<?xml version="1.0" encoding="UTF-8" standalone="no"?>
<!DOCTYPE svg PUBLIC "-//W3C//DTD SVG 1.1//EN"
 "http://www.w3.org/Graphics/SVG/1.1/DTD/svg11.dtd">
<!-- Generated by graphviz version 2.43.0 (0)
 -->
<!-- Title: firstparty/baseTypes.h Pages: 1 -->
<svg width="453pt" height="148pt"
 viewBox="0.00 0.00 452.50 148.00" xmlns="http://www.w3.org/2000/svg" xmlns:xlink="http://www.w3.org/1999/xlink">

<svg id="main" version="1.1" xmlns="http://www.w3.org/2000/svg" xmlns:xlink="http://www.w3.org/1999/xlink" xml:space="preserve" onload="init(evt)">
<style type="text/css"><![CDATA[
.node, .edge {opacity: 0.7;}
.node.selected, .edge.selected {opacity: 1;}
.edge:hover path { stroke: red; }
.edge:hover polygon { stroke: red; fill: red; }
]]></style>
<script type="application/ecmascript" xlink:href="svg.min.js"/>
<svg id="graph" class="graph">
<g id="graph0" class="graph" transform="scale(1 1) rotate(0) translate(4 144)">
<title>firstparty/baseTypes.h</title>
<!-- Node1 -->
<g id="Node000001" class="node">
<title>Node1</title>
<g id="a_Node000001"><a xlink:title="Fixed&#45;size integer aliases, small vector types, and common shorthand aliases used as near&#45;primitive t...">
<polygon fill="#999999" stroke="#666666" points="329.5,-140 205.5,-140 205.5,-121 329.5,-121 329.5,-140"/>
<text text-anchor="middle" x="267.5" y="-128" font-family="Helvetica,sans-Serif" font-size="10.00">firstparty/baseTypes.h</text>
</a>
</g>
</g>
<!-- Node2 -->
<g id="Node000002" class="node">
<title>Node2</title>
<g id="a_Node000002"><a xlink:href="systemSettings_8h.html" target="_top" xlink:title="Settings structures for mini&#45;games.">
<polygon fill="white" stroke="#666666" points="194,-79.5 45,-79.5 45,-60.5 194,-60.5 194,-79.5"/>
<text text-anchor="middle" x="119.5" y="-67.5" font-family="Helvetica,sans-Serif" font-size="10.00">firstparty/systemSettings.h</text>
</a>
</g>
</g>
<!-- Node1&#45;&gt;Node2 -->
<g id="edge1_Node000001_Node000002" class="edge">
<title>Node1&#45;&gt;Node2</title>
<g id="a_edge1_Node000001_Node000002"><a xlink:title=" ">
<path fill="none" stroke="#63b8ff" d="M236.46,-117.23C207.86,-105.92 166.16,-89.44 141.05,-79.52"/>
<polygon fill="#63b8ff" stroke="#63b8ff" points="235.39,-120.57 245.98,-120.99 237.97,-114.06 235.39,-120.57"/>
</a>
</g>
</g>
<!-- Node5 -->
<g id="Node000005" class="node">
<title>Node5</title>
<g id="a_Node000005"><a xlink:href="TODO_8c.html" target="_top" xlink:title="Placeholder file indicating that unit/integration tests are not yet implemented.">
<polygon fill="white" stroke="#666666" points="322.5,-79.5 212.5,-79.5 212.5,-60.5 322.5,-60.5 322.5,-79.5"/>
<text text-anchor="middle" x="267.5" y="-67.5" font-family="Helvetica,sans-Serif" font-size="10.00">lobby/tests/TODO.c</text>
</a>
</g>
</g>
<!-- Node1&#45;&gt;Node5 -->
<g id="edge4_Node000001_Node000005" class="edge">
<title>Node1&#45;&gt;Node5</title>
<g id="a_edge4_Node000001_Node000005"><a xlink:title=" ">
<path fill="none" stroke="#63b8ff" d="M267.5,-110.66C267.5,-100.24 267.5,-87.8 267.5,-79.67"/>
<polygon fill="#63b8ff" stroke="#63b8ff" points="264,-110.87 267.5,-120.87 271,-110.87 264,-110.87"/>
</a>
</g>
</g>
<!-- Node6 -->
<g id="Node000006" class="node">
<title>Node6</title>
<g id="a_Node000006"><a xlink:href="suika_2include_2utils_2common_8h.html" target="_top" xlink:title=" ">
<polygon fill="white" stroke="#666666" points="444.5,-85 340.5,-85 340.5,-55 444.5,-55 444.5,-85"/>
<text text-anchor="start" x="348.5" y="-73" font-family="Helvetica,sans-Serif" font-size="10.00">suika/include/utils</text>
<text text-anchor="middle" x="392.5" y="-62" font-family="Helvetica,sans-Serif" font-size="10.00">/common.h</text>
</a>
</g>
</g>
<!-- Node1&#45;&gt;Node6 -->
<g id="edge5_Node000001_Node000006" class="edge">
<title>Node1&#45;&gt;Node6</title>
<g id="a_edge5_Node000001_Node000006"><a xlink:title=" ">
<path fill="none" stroke="#63b8ff" d="M294.82,-116.72C314.71,-107.41 341.65,-94.8 362.21,-85.18"/>
<polygon fill="#63b8ff" stroke="#63b8ff" points="293.25,-113.58 285.68,-120.99 296.22,-119.92 293.25,-113.58"/>
</a>
</g>
</g>
<!-- Node3 -->
<g id="Node000003" class="node">
<title>Node3</title>
<g id="a_Node000003"><a xlink:href="lobbyAPI_8c.html" target="_top" xlink:title="Lobby / hub scene &#45; entry point and central navigation area.">
<polygon fill="white" stroke="#666666" points="115,-19 0,-19 0,0 115,0 115,-19"/>
<text text-anchor="middle" x="57.5" y="-7" font-family="Helvetica,sans-Serif" font-size="10.00">lobby/src/lobbyAPI.c</text>
</a>
</g>
</g>
<!-- Node2&#45;&gt;Node3 -->
<g id="edge2_Node000002_Node000003" class="edge">
<title>Node2&#45;&gt;Node3</title>
<g id="a_edge2_Node000002_Node000003"><a xlink:title=" ">
<path fill="none" stroke="#63b8ff" d="M102.98,-53.41C91.35,-42.44 76.22,-28.17 66.69,-19.17"/>
<polygon fill="#63b8ff" stroke="#63b8ff" points="100.68,-56.05 110.35,-60.37 105.48,-50.96 100.68,-56.05"/>
</a>
</g>
</g>
<!-- Node4 -->
<g id="Node000004" class="node">
<title>Node4</title>
<g id="a_Node000004"><a xlink:href="lobby_2src_2main_8c.html" target="_top" xlink:title="Program entry point – lobby main loop and game scene manager.">
<polygon fill="white" stroke="#666666" points="230,-19 133,-19 133,0 230,0 230,-19"/>
<text text-anchor="middle" x="181.5" y="-7" font-family="Helvetica,sans-Serif" font-size="10.00">lobby/src/main.c</text>
</a>
</g>
</g>
<!-- Node2&#45;&gt;Node4 -->
<g id="edge3_Node000002_Node000004" class="edge">
<title>Node2&#45;&gt;Node4</title>
<g id="a_edge3_Node000002_Node000004"><a xlink:title=" ">
<path fill="none" stroke="#63b8ff" d="M136.02,-53.41C147.65,-42.44 162.78,-28.17 172.31,-19.17"/>
<polygon fill="#63b8ff" stroke="#63b8ff" points="133.52,-50.96 128.65,-60.37 138.32,-56.05 133.52,-50.96"/>
</a>
</g>
</g>
</g>
</svg>
</svg>

<style type='text/css'>
<![CDATA[
[data-mouse-over-selected='false'] { opacity: 0.7; }
[data-mouse-over-selected='true']  { opacity: 1.0; }
]]>
</style>
<script type="application/ecmascript"><![CDATA[
document.addEventListener('DOMContentLoaded', (event) => {
  highlightEdges();
  highlightAdjacentNodes();
});
]]></script>
</svg>
