<?xml version="1.0" encoding="UTF-8" standalone="no"?>
<!DOCTYPE svg PUBLIC "-//W3C//DTD SVG 1.1//EN"
 "http://www.w3.org/Graphics/SVG/1.1/DTD/svg11.dtd">
<!-- Generated by graphviz version 2.43.0 (0)
 -->
<!-- Title: lobby Pages: 1 -->
<svg width="482pt" height="216pt"
 viewBox="0.00 0.00 482.00 216.00" xmlns="http://www.w3.org/2000/svg" xmlns:xlink="http://www.w3.org/1999/xlink">
<g id="graph0" class="graph" transform="scale(1 1) rotate(0) translate(4 212)">
<title>lobby</title>
<g id="clust1" class="cluster">
<title>clusterdir_7eacf9a4cbee950fc5622dc05d8cc337</title>
<g id="a_clust1"><a xlink:href="dir_7eacf9a4cbee950fc5622dc05d8cc337.html" target="_top">
<polygon fill="#edf0f7" stroke="#404040" stroke-width="2" points="8,-39 8,-200 466,-200 466,-39 8,-39"/>
</a>
</g>
</g>
<g id="clust2" class="cluster">
<title>clusterdir_b79e29a9eae7ac419f4ddcba1fe8c220</title>
<g id="a_clust2"><a xlink:href="dir_b79e29a9eae7ac419f4ddcba1fe8c220.html" target="_top">
<polygon fill="#d5ddec" stroke="#404040" points="72,-47 72,-137 244,-137 244,-47 72,-47"/>
</a>
</g>
</g>
<g id="clust3" class="cluster">
<title>clusterdir_89f25fc6493bcc8462a145bd0fe8b693</title>
<g id="a_clust3"><a xlink:href="dir_89f25fc6493bcc8462a145bd0fe8b693.html" target="_top">
<polygon fill="#d5ddec" stroke="#404040" points="16,-157 16,-192 224,-192 224,-157 16,-157"/>
</a>
</g>
</g>
<!-- dir_7eacf9a4cbee950fc5622dc05d8cc337 -->
<g id="node1" class="node">
<title>dir_7eacf9a4cbee950fc5622dc05d8cc337</title>
<text text-anchor="middle" x="376" y="-172" font-family="Helvetica,sans-Serif" font-size="10.00">lobby</text>
</g>
<!-- dir_38cc3457880ffee3c082aa4fac74488f -->
<g id="node2" class="node">
<title>dir_38cc3457880ffee3c082aa4fac74488f</title>
<g id="a_node2"><a xlink:href="dir_38cc3457880ffee3c082aa4fac74488f.html" target="_top" xlink:title="docs">
<polygon fill="#d5ddec" stroke="#404040" points="335.5,-184 296.5,-184 296.5,-165 335.5,-165 335.5,-184"/>
<text text-anchor="middle" x="316" y="-172" font-family="Helvetica,sans-Serif" font-size="10.00">docs</text>
</a>
</g>
</g>
<!-- dir_b79e29a9eae7ac419f4ddcba1fe8c220 -->
<g id="node3" class="node">
<title>dir_b79e29a9eae7ac419f4ddcba1fe8c220</title>
<text text-anchor="middle" x="210" y="-117" font-family="Helvetica,sans-Serif" font-size="10.00">include</text>
</g>
<!-- dir_90f8a5498097c817c5a32de9120cbf4c -->
<g id="node6" class="node">
<title>dir_90f8a5498097c817c5a32de9120cbf4c</title>
<g id="a_node6"><a xlink:href="dir_90f8a5498097c817c5a32de9120cbf4c.html" target="_top" xlink:title="utils">
<polygon fill="#bcc9e2" stroke="#404040" points="198,-74 160,-74 160,-55 198,-55 198,-74"/>
<text text-anchor="middle" x="179" y="-62" font-family="Helvetica,sans-Serif" font-size="10.00">utils</text>
</a>
</g>
</g>
<!-- dir_b79e29a9eae7ac419f4ddcba1fe8c220&#45;&gt;dir_90f8a5498097c817c5a32de9120cbf4c -->
<g id="edge2" class="edge">
<title>dir_b79e29a9eae7ac419f4ddcba1fe8c220&#45;&gt;dir_90f8a5498097c817c5a32de9120cbf4c</title>
<g id="a_edge2"><a xlink:href="dir_000009_000020.html" target="_top">
<path fill="none" stroke="#63b8ff" d="M204.88,-109.75C200.64,-102.49 194.47,-91.95 189.22,-82.98"/>
<polygon fill="#63b8ff" stroke="#63b8ff" points="192.09,-80.95 184.02,-74.09 186.05,-84.49 192.09,-80.95"/>
</a>
</g>
<g id="a_edge2&#45;headlabel"><a xlink:href="dir_000009_000020.html" target="_top" xlink:title="3">
<text text-anchor="middle" x="196.36" y="-80.12" font-family="Helvetica,sans-Serif" font-size="10.00" fill="#63b8ff">3</text>
</a>
</g>
</g>
<!-- dir_6811642e3859940657c5b310f9581969 -->
<g id="node13" class="node">
<title>dir_6811642e3859940657c5b310f9581969</title>
<g id="a_node13"><a xlink:href="dir_6811642e3859940657c5b310f9581969.html" target="_top" xlink:title="firstparty">
<polygon fill="#edf0f7" stroke="red" points="275.5,-19 214.5,-19 214.5,0 275.5,0 275.5,-19"/>
<text text-anchor="middle" x="245" y="-7" font-family="Helvetica,sans-Serif" font-size="10.00">firstparty</text>
</a>
</g>
</g>
<!-- dir_b79e29a9eae7ac419f4ddcba1fe8c220&#45;&gt;dir_6811642e3859940657c5b310f9581969 -->
<g id="edge1" class="edge">
<title>dir_b79e29a9eae7ac419f4ddcba1fe8c220&#45;&gt;dir_6811642e3859940657c5b310f9581969</title>
<g id="a_edge1"><a xlink:href="dir_000009_000008.html" target="_top">
<path fill="none" stroke="#63b8ff" d="M212.86,-109.66C218.56,-92.09 231.41,-52.45 239.02,-28.95"/>
<polygon fill="#63b8ff" stroke="#63b8ff" points="242.44,-29.75 242.19,-19.16 235.78,-27.59 242.44,-29.75"/>
</a>
</g>
<g id="a_edge1&#45;headlabel"><a xlink:href="dir_000009_000008.html" target="_top" xlink:title="2">
<text text-anchor="middle" x="244.03" y="-31.55" font-family="Helvetica,sans-Serif" font-size="10.00" fill="#63b8ff">2</text>
</a>
</g>
</g>
<!-- dir_94065c758ecd017a859ca79aa31744aa -->
<g id="node4" class="node">
<title>dir_94065c758ecd017a859ca79aa31744aa</title>
<g id="a_node4"><a xlink:href="dir_94065c758ecd017a859ca79aa31744aa.html" target="_top" xlink:title="core">
<polygon fill="#bcc9e2" stroke="#404040" points="166,-129 128,-129 128,-110 166,-110 166,-129"/>
<text text-anchor="middle" x="147" y="-117" font-family="Helvetica,sans-Serif" font-size="10.00">core</text>
</a>
</g>
</g>
<!-- dir_197c901ef5bae7665f7b9c6c5de5fa38 -->
<g id="node5" class="node">
<title>dir_197c901ef5bae7665f7b9c6c5de5fa38</title>
<g id="a_node5"><a xlink:href="dir_197c901ef5bae7665f7b9c6c5de5fa38.html" target="_top" xlink:title="ui">
<polygon fill="#bcc9e2" stroke="#404040" points="109.5,-129 80.5,-129 80.5,-110 109.5,-110 109.5,-129"/>
<text text-anchor="middle" x="95" y="-117" font-family="Helvetica,sans-Serif" font-size="10.00">ui</text>
</a>
</g>
</g>
<!-- dir_197c901ef5bae7665f7b9c6c5de5fa38&#45;&gt;dir_90f8a5498097c817c5a32de9120cbf4c -->
<g id="edge3" class="edge">
<title>dir_197c901ef5bae7665f7b9c6c5de5fa38&#45;&gt;dir_90f8a5498097c817c5a32de9120cbf4c</title>
<g id="a_edge3"><a xlink:href="dir_000018_000020.html" target="_top">
<path fill="none" stroke="#63b8ff" d="M108.5,-109.98C121.4,-101.84 141.1,-89.41 156.4,-79.76"/>
<polygon fill="#63b8ff" stroke="#63b8ff" points="158.67,-82.47 165.26,-74.17 154.93,-76.55 158.67,-82.47"/>
</a>
</g>
<g id="a_edge3&#45;headlabel"><a xlink:href="dir_000018_000020.html" target="_top" xlink:title="2">
<text text-anchor="middle" x="157.14" y="-84.29" font-family="Helvetica,sans-Serif" font-size="10.00" fill="#63b8ff">2</text>
</a>
</g>
</g>
<!-- dir_90f8a5498097c817c5a32de9120cbf4c&#45;&gt;dir_6811642e3859940657c5b310f9581969 -->
<g id="edge4" class="edge">
<title>dir_90f8a5498097c817c5a32de9120cbf4c&#45;&gt;dir_6811642e3859940657c5b310f9581969</title>
<g id="a_edge4"><a xlink:href="dir_000020_000008.html" target="_top">
<path fill="none" stroke="#63b8ff" d="M189.6,-54.98C199.46,-47.07 214.35,-35.11 226.22,-25.58"/>
<polygon fill="#63b8ff" stroke="#63b8ff" points="228.6,-28.16 234.2,-19.17 224.21,-22.7 228.6,-28.16"/>
</a>
</g>
<g id="a_edge4&#45;headlabel"><a xlink:href="dir_000020_000008.html" target="_top" xlink:title="1">
<text text-anchor="middle" x="227.57" y="-30.13" font-family="Helvetica,sans-Serif" font-size="10.00" fill="#63b8ff">1</text>
</a>
</g>
</g>
<!-- dir_a748ee7ca9807cd381b0c6e3d5967b1d -->
<g id="node7" class="node">
<title>dir_a748ee7ca9807cd381b0c6e3d5967b1d</title>
<g id="a_node7"><a xlink:href="dir_a748ee7ca9807cd381b0c6e3d5967b1d.html" target="_top" xlink:title="make">
<polygon fill="#d5ddec" stroke="#404040" points="278,-184 234,-184 234,-165 278,-165 278,-184"/>
<text text-anchor="middle" x="256" y="-172" font-family="Helvetica,sans-Serif" font-size="10.00">make</text>
</a>
</g>
</g>
<!-- dir_89f25fc6493bcc8462a145bd0fe8b693 -->
<g id="node8" class="node">
<title>dir_89f25fc6493bcc8462a145bd0fe8b693</title>
<text text-anchor="middle" x="200" y="-172" font-family="Helvetica,sans-Serif" font-size="10.00">src</text>
</g>
<!-- dir_89f25fc6493bcc8462a145bd0fe8b693&#45;&gt;dir_b79e29a9eae7ac419f4ddcba1fe8c220 -->
<g id="edge7" class="edge">
<title>dir_89f25fc6493bcc8462a145bd0fe8b693&#45;&gt;dir_b79e29a9eae7ac419f4ddcba1fe8c220</title>
<g id="a_edge7"><a xlink:href="dir_000014_000009.html" target="_top">
<path fill="none" stroke="#63b8ff" d="M201.65,-164.75C202.96,-157.8 204.84,-147.85 206.48,-139.13"/>
<polygon fill="#63b8ff" stroke="#63b8ff" points="209.96,-139.56 208.38,-129.09 203.09,-138.27 209.96,-139.56"/>
</a>
</g>
<g id="a_edge7&#45;headlabel"><a xlink:href="dir_000014_000009.html" target="_top" xlink:title="6">
<text text-anchor="middle" x="212.09" y="-141.12" font-family="Helvetica,sans-Serif" font-size="10.00" fill="#63b8ff">6</text>
</a>
</g>
</g>
<!-- dir_89f25fc6493bcc8462a145bd0fe8b693&#45;&gt;dir_197c901ef5bae7665f7b9c6c5de5fa38 -->
<g id="edge5" class="edge">
<title>dir_89f25fc6493bcc8462a145bd0fe8b693&#45;&gt;dir_197c901ef5bae7665f7b9c6c5de5fa38</title>
<g id="a_edge5"><a xlink:href="dir_000014_000018.html" target="_top">
<path fill="none" stroke="#63b8ff" d="M188.14,-164.83C184.1,-162.11 179.47,-159.23 175,-157 151.36,-145.19 142.53,-149.03 119,-137 117.65,-136.31 116.29,-135.55 114.93,-134.76"/>
<polygon fill="#63b8ff" stroke="#63b8ff" points="116.64,-131.69 106.34,-129.19 112.83,-137.57 116.64,-131.69"/>
</a>
</g>
<g id="a_edge5&#45;headlabel"><a xlink:href="dir_000014_000018.html" target="_top" xlink:title="4">
<text text-anchor="middle" x="121.2" y="-128.77" font-family="Helvetica,sans-Serif" font-size="10.00" fill="#63b8ff">4</text>
</a>
</g>
</g>
<!-- dir_89f25fc6493bcc8462a145bd0fe8b693&#45;&gt;dir_6811642e3859940657c5b310f9581969 -->
<g id="edge6" class="edge">
<title>dir_89f25fc6493bcc8462a145bd0fe8b693&#45;&gt;dir_6811642e3859940657c5b310f9581969</title>
<g id="a_edge6"><a xlink:href="dir_000014_000008.html" target="_top">
<path fill="none" stroke="#63b8ff" d="M209.49,-164.89C212.48,-162.29 215.82,-159.46 219,-157 231.37,-147.41 240.72,-150.86 248,-137 266.15,-102.44 257.66,-54.9 250.76,-29.06"/>
<polygon fill="#63b8ff" stroke="#63b8ff" points="254.03,-27.77 247.9,-19.13 247.31,-29.7 254.03,-27.77"/>
</a>
</g>
<g id="a_edge6&#45;headlabel"><a xlink:href="dir_000014_000008.html" target="_top" xlink:title="4">
<text text-anchor="middle" x="257.76" y="-27.93" font-family="Helvetica,sans-Serif" font-size="10.00" fill="#63b8ff">4</text>
</a>
</g>
</g>
<!-- dir_4c696e4bf078bff3e3476fc9e09b75c6 -->
<g id="node9" class="node">
<title>dir_4c696e4bf078bff3e3476fc9e09b75c6</title>
<g id="a_node9"><a xlink:href="dir_4c696e4bf078bff3e3476fc9e09b75c6.html" target="_top" xlink:title="core">
<polygon fill="#bcc9e2" stroke="#404040" points="166,-184 128,-184 128,-165 166,-165 166,-184"/>
<text text-anchor="middle" x="147" y="-172" font-family="Helvetica,sans-Serif" font-size="10.00">core</text>
</a>
</g>
</g>
<!-- dir_5cd4030cf8a3279c226cef993fcdf6d8 -->
<g id="node10" class="node">
<title>dir_5cd4030cf8a3279c226cef993fcdf6d8</title>
<g id="a_node10"><a xlink:href="dir_5cd4030cf8a3279c226cef993fcdf6d8.html" target="_top" xlink:title="ui">
<polygon fill="#bcc9e2" stroke="#404040" points="109.5,-184 80.5,-184 80.5,-165 109.5,-165 109.5,-184"/>
<text text-anchor="middle" x="95" y="-172" font-family="Helvetica,sans-Serif" font-size="10.00">ui</text>
</a>
</g>
</g>
<!-- dir_5cd4030cf8a3279c226cef993fcdf6d8&#45;&gt;dir_197c901ef5bae7665f7b9c6c5de5fa38 -->
<g id="edge8" class="edge">
<title>dir_5cd4030cf8a3279c226cef993fcdf6d8&#45;&gt;dir_197c901ef5bae7665f7b9c6c5de5fa38</title>
<g id="a_edge8"><a xlink:href="dir_000019_000018.html" target="_top">
<path fill="none" stroke="#63b8ff" d="M95,-164.75C95,-157.8 95,-147.85 95,-139.13"/>
<polygon fill="#63b8ff" stroke="#63b8ff" points="98.5,-139.09 95,-129.09 91.5,-139.09 98.5,-139.09"/>
</a>
</g>
<g id="a_edge8&#45;headlabel"><a xlink:href="dir_000019_000018.html" target="_top" xlink:title="2">
<text text-anchor="middle" x="101.34" y="-140.18" font-family="Helvetica,sans-Serif" font-size="10.00" fill="#63b8ff">2</text>
</a>
</g>
</g>
<!-- dir_74d1d3401bca99bdc72221819da6f84c -->
<g id="node11" class="node">
<title>dir_74d1d3401bca99bdc72221819da6f84c</title>
<g id="a_node11"><a xlink:href="dir_74d1d3401bca99bdc72221819da6f84c.html" target="_top" xlink:title="utils">
<polygon fill="#bcc9e2" stroke="#404040" points="62,-184 24,-184 24,-165 62,-165 62,-184"/>
<text text-anchor="middle" x="43" y="-172" font-family="Helvetica,sans-Serif" font-size="10.00">utils</text>
</a>
</g>
</g>
<!-- dir_2d6b88fcc1f3ae3b35e39d1d0ef9e855 -->
<g id="node12" class="node">
<title>dir_2d6b88fcc1f3ae3b35e39d1d0ef9e855</title>
<g id="a_node12"><a xlink:href="dir_2d6b88fcc1f3ae3b35e39d1d0ef9e855.html" target="_top" xlink:title="tests">
<polygon fill="#d5ddec" stroke="#404040" points="457.5,-184 416.5,-184 416.5,-165 457.5,-165 457.5,-184"/>
<text text-anchor="middle" x="437" y="-172" font-family="Helvetica,sans-Serif" font-size="10.00">tests</text>
</a>
</g>
</g>
<!-- dir_2d6b88fcc1f3ae3b35e39d1d0ef9e855&#45;&gt;dir_6811642e3859940657c5b310f9581969 -->
<g id="edge9" class="edge">
<title>dir_2d6b88fcc1f3ae3b35e39d1d0ef9e855&#45;&gt;dir_6811642e3859940657c5b310f9581969</title>
<g id="a_edge9"><a xlink:href="dir_000017_000008.html" target="_top">
<path fill="none" stroke="#63b8ff" d="M426.95,-164.97C396.25,-138.9 303.37,-60.06 263.5,-26.21"/>
<polygon fill="#63b8ff" stroke="#63b8ff" points="265.31,-23.15 255.42,-19.34 260.78,-28.48 265.31,-23.15"/>
</a>
</g>
<g id="a_edge9&#45;headlabel"><a xlink:href="dir_000017_000008.html" target="_top" xlink:title="1">
<text text-anchor="middle" x="269.88" y="-20.81" font-family="Helvetica,sans-Serif" font-size="10.00" fill="#63b8ff">1</text>
</a>
</g>
</g>
</g>
</svg>
