<?xml version="1.0" encoding="UTF-8" standalone="no"?>
<!DOCTYPE svg PUBLIC "-//W3C//DTD SVG 1.1//EN"
 "http://www.w3.org/Graphics/SVG/1.1/DTD/svg11.dtd">
<!-- Generated by graphviz version 2.43.0 (0)
 -->
<!-- Title: firstparty/APIs/generalAPI.h Pages: 1 -->
<svg width="1125pt" height="214pt"
 viewBox="0.00 0.00 1124.50 214.00" xmlns="http://www.w3.org/2000/svg" xmlns:xlink="http://www.w3.org/1999/xlink">
<g id="graph0" class="graph" transform="scale(1 1) rotate(0) translate(4 210)">
<title>firstparty/APIs/generalAPI.h</title>
<!-- Node1 -->
<g id="Node000001" class="node">
<title>Node1</title>
<g id="a_Node000001"><a xlink:title="Minimal shared interface and common types used by all mini&#45;games and the lobby.">
<polygon fill="#999999" stroke="#666666" points="448.5,-206 299.5,-206 299.5,-187 448.5,-187 448.5,-206"/>
<text text-anchor="middle" x="374" y="-194" font-family="Helvetica,sans-Serif" font-size="10.00">firstparty/APIs/generalAPI.h</text>
</a>
</g>
</g>
<!-- Node2 -->
<g id="Node000002" class="node">
<title>Node2</title>
<g id="a_Node000002"><a xlink:href="firstparty_2APIs_2suikaAPI_8h.html" target="_top" xlink:title="Public API for the Suika (Watermelon Game) mini&#45;game.">
<polygon fill="white" stroke="#666666" points="138,-145.5 0,-145.5 0,-126.5 138,-126.5 138,-145.5"/>
<text text-anchor="middle" x="69" y="-133.5" font-family="Helvetica,sans-Serif" font-size="10.00">firstparty/APIs/suikaAPI.h</text>
</a>
</g>
</g>
<!-- Node1&#45;&gt;Node2 -->
<g id="edge1_Node000001_Node000002" class="edge">
<title>Node1&#45;&gt;Node2</title>
<g id="a_edge1_Node000001_Node000002"><a xlink:title=" ">
<path fill="none" stroke="#63b8ff" d="M319.79,-185.1C260.95,-173.82 168.09,-156.01 113.4,-145.52"/>
<polygon fill="#63b8ff" stroke="#63b8ff" points="319.17,-188.55 329.65,-186.99 320.49,-181.67 319.17,-188.55"/>
</a>
</g>
</g>
<!-- Node4 -->
<g id="Node000004" class="node">
<title>Node4</title>
<g id="a_Node000004"><a xlink:href="systemSettings_8h.html" target="_top" xlink:title="Settings structures for mini&#45;games.">
<polygon fill="white" stroke="#666666" points="179.5,-79.5 30.5,-79.5 30.5,-60.5 179.5,-60.5 179.5,-79.5"/>
<text text-anchor="middle" x="105" y="-67.5" font-family="Helvetica,sans-Serif" font-size="10.00">firstparty/systemSettings.h</text>
</a>
</g>
</g>
<!-- Node1&#45;&gt;Node4 -->
<g id="edge3_Node000001_Node000004" class="edge">
<title>Node1&#45;&gt;Node4</title>
<g id="a_edge3_Node000001_Node000004"><a xlink:title=" ">
<path fill="none" stroke="#63b8ff" d="M346.38,-182.72C291.52,-157.33 170.12,-101.14 123.62,-79.62"/>
<polygon fill="#63b8ff" stroke="#63b8ff" points="344.97,-185.92 355.51,-186.94 347.91,-179.57 344.97,-185.92"/>
</a>
</g>
</g>
<!-- Node6 -->
<g id="Node000006" class="node">
<title>Node6</title>
<g id="a_Node000006"><a xlink:href="lobbyAPI_8h.html" target="_top" xlink:title="Public API for the Lobby mini&#45;game.">
<polygon fill="white" stroke="#666666" points="334.5,-79.5 197.5,-79.5 197.5,-60.5 334.5,-60.5 334.5,-79.5"/>
<text text-anchor="middle" x="266" y="-67.5" font-family="Helvetica,sans-Serif" font-size="10.00">lobby/include/lobbyAPI.h</text>
</a>
</g>
</g>
<!-- Node1&#45;&gt;Node6 -->
<g id="edge6_Node000001_Node000006" class="edge">
<title>Node1&#45;&gt;Node6</title>
<g id="a_edge6_Node000001_Node000006"><a xlink:title=" ">
<path fill="none" stroke="#63b8ff" d="M359.89,-179.24C336.7,-152.51 291.33,-100.2 273.48,-79.62"/>
<polygon fill="#63b8ff" stroke="#63b8ff" points="357.38,-181.68 366.58,-186.94 362.67,-177.1 357.38,-181.68"/>
</a>
</g>
</g>
<!-- Node7 -->
<g id="Node000007" class="node">
<title>Node7</title>
<g id="a_Node000007"><a xlink:href="userTypes_8h.html" target="_top" xlink:title="Core type definitions used throughout the game &#45; especially lobby and mini&#45;game integration.">
<polygon fill="white" stroke="#666666" points="541,-151 435,-151 435,-121 541,-121 541,-151"/>
<text text-anchor="start" x="443" y="-139" font-family="Helvetica,sans-Serif" font-size="10.00">lobby/include/utils</text>
<text text-anchor="middle" x="488" y="-128" font-family="Helvetica,sans-Serif" font-size="10.00">/userTypes.h</text>
</a>
</g>
</g>
<!-- Node1&#45;&gt;Node7 -->
<g id="edge9_Node000001_Node000007" class="edge">
<title>Node1&#45;&gt;Node7</title>
<g id="a_edge9_Node000001_Node000007"><a xlink:title=" ">
<path fill="none" stroke="#63b8ff" d="M400.17,-182.07C418.22,-172.81 442.16,-160.52 460.49,-151.11"/>
<polygon fill="#63b8ff" stroke="#63b8ff" points="398.12,-179.19 390.82,-186.87 401.32,-185.42 398.12,-179.19"/>
</a>
</g>
</g>
<!-- Node14 -->
<g id="Node000014" class="node">
<title>Node14</title>
<g id="a_Node000014"><a xlink:href="suika_2include_2suikaAPI_8h.html" target="_top" xlink:title=" ">
<polygon fill="white" stroke="#666666" points="1025,-145.5 891,-145.5 891,-126.5 1025,-126.5 1025,-145.5"/>
<text text-anchor="middle" x="958" y="-133.5" font-family="Helvetica,sans-Serif" font-size="10.00">suika/include/suikaAPI.h</text>
</a>
</g>
</g>
<!-- Node1&#45;&gt;Node14 -->
<g id="edge19_Node000001_Node000014" class="edge">
<title>Node1&#45;&gt;Node14</title>
<g id="a_edge19_Node000001_Node000014"><a xlink:title=" ">
<path fill="none" stroke="#63b8ff" d="M458.86,-190.53C559.95,-184.05 733.78,-171.1 882,-151 892.9,-149.52 904.62,-147.55 915.51,-145.56"/>
<polygon fill="#63b8ff" stroke="#63b8ff" points="458.46,-187.05 448.7,-191.18 458.91,-194.04 458.46,-187.05"/>
</a>
</g>
</g>
<!-- Node15 -->
<g id="Node000015" class="node">
<title>Node15</title>
<g id="a_Node000015"><a xlink:href="types_8h.html" target="_top" xlink:title=" ">
<polygon fill="white" stroke="#666666" points="873,-151 769,-151 769,-121 873,-121 873,-151"/>
<text text-anchor="start" x="777" y="-139" font-family="Helvetica,sans-Serif" font-size="10.00">suika/include/utils</text>
<text text-anchor="middle" x="821" y="-128" font-family="Helvetica,sans-Serif" font-size="10.00">/types.h</text>
</a>
</g>
</g>
<!-- Node1&#45;&gt;Node15 -->
<g id="edge20_Node000001_Node000015" class="edge">
<title>Node1&#45;&gt;Node15</title>
<g id="a_edge20_Node000001_Node000015"><a xlink:title=" ">
<path fill="none" stroke="#63b8ff" d="M448.93,-185.69C539.59,-173.83 689.85,-154.16 768.83,-143.83"/>
<polygon fill="#63b8ff" stroke="#63b8ff" points="448.46,-182.23 439,-186.99 449.37,-189.17 448.46,-182.23"/>
</a>
</g>
</g>
<!-- Node3 -->
<g id="Node000003" class="node">
<title>Node3</title>
<g id="a_Node000003"><a xlink:href="lobby_2src_2main_8c.html" target="_top" xlink:title="Program entry point – lobby main loop and game scene manager.">
<polygon fill="white" stroke="#666666" points="153.5,-19 56.5,-19 56.5,0 153.5,0 153.5,-19"/>
<text text-anchor="middle" x="105" y="-7" font-family="Helvetica,sans-Serif" font-size="10.00">lobby/src/main.c</text>
</a>
</g>
</g>
<!-- Node2&#45;&gt;Node3 -->
<g id="edge2_Node000002_Node000003" class="edge">
<title>Node2&#45;&gt;Node3</title>
<g id="a_edge2_Node000002_Node000003"><a xlink:title=" ">
<path fill="none" stroke="#63b8ff" d="M49.17,-119.92C30.54,-103.83 7.39,-77.61 21,-55 31.98,-36.76 53.22,-25.6 71.6,-19.02"/>
<polygon fill="#63b8ff" stroke="#63b8ff" points="47.06,-122.72 57.01,-126.35 51.5,-117.31 47.06,-122.72"/>
</a>
</g>
</g>
<!-- Node4&#45;&gt;Node3 -->
<g id="edge5_Node000004_Node000003" class="edge">
<title>Node4&#45;&gt;Node3</title>
<g id="a_edge5_Node000004_Node000003"><a xlink:title=" ">
<path fill="none" stroke="#63b8ff" d="M105,-50.16C105,-39.74 105,-27.3 105,-19.17"/>
<polygon fill="#63b8ff" stroke="#63b8ff" points="101.5,-50.37 105,-60.37 108.5,-50.37 101.5,-50.37"/>
</a>
</g>
</g>
<!-- Node5 -->
<g id="Node000005" class="node">
<title>Node5</title>
<g id="a_Node000005"><a xlink:href="lobbyAPI_8c.html" target="_top" xlink:title="Lobby / hub scene &#45; entry point and central navigation area.">
<polygon fill="white" stroke="#666666" points="334.5,-19 219.5,-19 219.5,0 334.5,0 334.5,-19"/>
<text text-anchor="middle" x="277" y="-7" font-family="Helvetica,sans-Serif" font-size="10.00">lobby/src/lobbyAPI.c</text>
</a>
</g>
</g>
<!-- Node4&#45;&gt;Node5 -->
<g id="edge4_Node000004_Node000005" class="edge">
<title>Node4&#45;&gt;Node5</title>
<g id="a_edge4_Node000004_Node000005"><a xlink:title=" ">
<path fill="none" stroke="#63b8ff" d="M139.78,-57.17C173.04,-45.86 222.39,-29.07 251.96,-19.02"/>
<polygon fill="#63b8ff" stroke="#63b8ff" points="138.35,-53.96 130.01,-60.49 140.6,-60.59 138.35,-53.96"/>
</a>
</g>
</g>
<!-- Node6&#45;&gt;Node3 -->
<g id="edge8_Node000006_Node000003" class="edge">
<title>Node6&#45;&gt;Node3</title>
<g id="a_edge8_Node000006_Node000003"><a xlink:title=" ">
<path fill="none" stroke="#63b8ff" d="M233.04,-57.02C201.91,-45.71 156,-29.03 128.44,-19.02"/>
<polygon fill="#63b8ff" stroke="#63b8ff" points="232,-60.37 242.59,-60.49 234.39,-53.79 232,-60.37"/>
</a>
</g>
</g>
<!-- Node6&#45;&gt;Node5 -->
<g id="edge7_Node000006_Node000005" class="edge">
<title>Node6&#45;&gt;Node5</title>
<g id="a_edge7_Node000006_Node000005"><a xlink:title=" ">
<path fill="none" stroke="#63b8ff" d="M269.48,-50.49C271.45,-40.01 273.82,-27.39 275.37,-19.17"/>
<polygon fill="#63b8ff" stroke="#63b8ff" points="266.03,-49.89 267.62,-60.37 272.91,-51.19 266.03,-49.89"/>
</a>
</g>
</g>
<!-- Node7&#45;&gt;Node6 -->
<g id="edge10_Node000007_Node000006" class="edge">
<title>Node7&#45;&gt;Node6</title>
<g id="a_edge10_Node000007_Node000006"><a xlink:title=" ">
<path fill="none" stroke="#63b8ff" d="M429.48,-118.13C386.39,-105.71 329.59,-89.33 295.54,-79.52"/>
<polygon fill="#63b8ff" stroke="#63b8ff" points="428.7,-121.55 439.28,-120.95 430.64,-114.82 428.7,-121.55"/>
</a>
</g>
</g>
<!-- Node8 -->
<g id="Node000008" class="node">
<title>Node8</title>
<g id="a_Node000008"><a xlink:href="app_8h.html" target="_top" xlink:title=" ">
<polygon fill="white" stroke="#666666" points="477,-79.5 353,-79.5 353,-60.5 477,-60.5 477,-79.5"/>
<text text-anchor="middle" x="415" y="-67.5" font-family="Helvetica,sans-Serif" font-size="10.00">lobby/include/ui/app.h</text>
</a>
</g>
</g>
<!-- Node7&#45;&gt;Node8 -->
<g id="edge11_Node000007_Node000008" class="edge">
<title>Node7&#45;&gt;Node8</title>
<g id="a_edge11_Node000007_Node000008"><a xlink:title=" ">
<path fill="none" stroke="#63b8ff" d="M463.97,-113.93C450.76,-102.35 435.08,-88.61 425.09,-79.84"/>
<polygon fill="#63b8ff" stroke="#63b8ff" points="461.97,-116.84 471.8,-120.8 466.59,-111.57 461.97,-116.84"/>
</a>
</g>
</g>
<!-- Node10 -->
<g id="Node000010" class="node">
<title>Node10</title>
<g id="a_Node000010"><a xlink:href="lobby_2include_2ui_2game_8h.html" target="_top" xlink:title=" ">
<polygon fill="white" stroke="#666666" points="629,-79.5 495,-79.5 495,-60.5 629,-60.5 629,-79.5"/>
<text text-anchor="middle" x="562" y="-67.5" font-family="Helvetica,sans-Serif" font-size="10.00">lobby/include/ui/game.h</text>
</a>
</g>
</g>
<!-- Node7&#45;&gt;Node10 -->
<g id="edge14_Node000007_Node000010" class="edge">
<title>Node7&#45;&gt;Node10</title>
<g id="a_edge14_Node000007_Node000010"><a xlink:title=" ">
<path fill="none" stroke="#63b8ff" d="M512.36,-113.93C525.75,-102.35 541.64,-88.61 551.77,-79.84"/>
<polygon fill="#63b8ff" stroke="#63b8ff" points="509.7,-111.61 504.42,-120.8 514.28,-116.9 509.7,-111.61"/>
</a>
</g>
</g>
<!-- Node12 -->
<g id="Node000012" class="node">
<title>Node12</title>
<g id="a_Node000012"><a xlink:href="suika_2include_2core_2game_8h.html" target="_top" xlink:title=" ">
<polygon fill="white" stroke="#666666" points="873,-85 769,-85 769,-55 873,-55 873,-85"/>
<text text-anchor="start" x="777" y="-73" font-family="Helvetica,sans-Serif" font-size="10.00">suika/include/core</text>
<text text-anchor="middle" x="821" y="-62" font-family="Helvetica,sans-Serif" font-size="10.00">/game.h</text>
</a>
</g>
</g>
<!-- Node7&#45;&gt;Node12 -->
<g id="edge17_Node000007_Node000012" class="edge">
<title>Node7&#45;&gt;Node12</title>
<g id="a_edge17_Node000007_Node000012"><a xlink:title=" ">
<path fill="none" stroke="#63b8ff" d="M551.03,-124.22C606.25,-114.58 688.62,-99.74 760,-85 762.87,-84.41 765.82,-83.78 768.79,-83.14"/>
<polygon fill="#63b8ff" stroke="#63b8ff" points="550.29,-120.8 541.04,-125.96 551.49,-127.69 550.29,-120.8"/>
</a>
</g>
</g>
<!-- Node13 -->
<g id="Node000013" class="node">
<title>Node13</title>
<g id="a_Node000013"><a xlink:href="suika_2include_2utils_2globals_8h.html" target="_top" xlink:title=" ">
<polygon fill="white" stroke="#666666" points="751,-85 647,-85 647,-55 751,-55 751,-85"/>
<text text-anchor="start" x="655" y="-73" font-family="Helvetica,sans-Serif" font-size="10.00">suika/include/utils</text>
<text text-anchor="middle" x="699" y="-62" font-family="Helvetica,sans-Serif" font-size="10.00">/globals.h</text>
</a>
</g>
</g>
<!-- Node7&#45;&gt;Node13 -->
<g id="edge18_Node000007_Node000013" class="edge">
<title>Node7&#45;&gt;Node13</title>
<g id="a_edge18_Node000007_Node000013"><a xlink:title=" ">
<path fill="none" stroke="#63b8ff" d="M544.08,-117.99C578.03,-107.69 620.81,-94.72 652.8,-85.01"/>
<polygon fill="#63b8ff" stroke="#63b8ff" points="542.86,-114.7 534.3,-120.95 544.89,-121.4 542.86,-114.7"/>
</a>
</g>
</g>
<!-- Node8&#45;&gt;Node5 -->
<g id="edge12_Node000008_Node000005" class="edge">
<title>Node8&#45;&gt;Node5</title>
<g id="a_edge12_Node000008_Node000005"><a xlink:title=" ">
<path fill="none" stroke="#63b8ff" d="M385.71,-56.58C359.05,-45.28 320.4,-28.9 297.09,-19.02"/>
<polygon fill="#63b8ff" stroke="#63b8ff" points="384.36,-59.81 394.93,-60.49 387.09,-53.37 384.36,-59.81"/>
</a>
</g>
</g>
<!-- Node9 -->
<g id="Node000009" class="node">
<title>Node9</title>
<g id="a_Node000009"><a xlink:href="app_8c.html" target="_top" xlink:title=" ">
<polygon fill="white" stroke="#666666" points="466,-19 364,-19 364,0 466,0 466,-19"/>
<text text-anchor="middle" x="415" y="-7" font-family="Helvetica,sans-Serif" font-size="10.00">lobby/src/ui/app.c</text>
</a>
</g>
</g>
<!-- Node8&#45;&gt;Node9 -->
<g id="edge13_Node000008_Node000009" class="edge">
<title>Node8&#45;&gt;Node9</title>
<g id="a_edge13_Node000008_Node000009"><a xlink:title=" ">
<path fill="none" stroke="#63b8ff" d="M415,-50.16C415,-39.74 415,-27.3 415,-19.17"/>
<polygon fill="#63b8ff" stroke="#63b8ff" points="411.5,-50.37 415,-60.37 418.5,-50.37 411.5,-50.37"/>
</a>
</g>
</g>
<!-- Node10&#45;&gt;Node5 -->
<g id="edge15_Node000010_Node000005" class="edge">
<title>Node10&#45;&gt;Node5</title>
<g id="a_edge15_Node000010_Node000005"><a xlink:title=" ">
<path fill="none" stroke="#63b8ff" d="M510.67,-58.46C455.65,-47.17 369.38,-29.46 318.49,-19.02"/>
<polygon fill="#63b8ff" stroke="#63b8ff" points="510.06,-61.91 520.56,-60.49 511.47,-55.05 510.06,-61.91"/>
</a>
</g>
</g>
<!-- Node11 -->
<g id="Node000011" class="node">
<title>Node11</title>
<g id="a_Node000011"><a xlink:href="lobby_2src_2ui_2game_8c.html" target="_top" xlink:title="Low&#45;level drawing routines for lobby gameplay elements.">
<polygon fill="white" stroke="#666666" points="618,-19 506,-19 506,0 618,0 618,-19"/>
<text text-anchor="middle" x="562" y="-7" font-family="Helvetica,sans-Serif" font-size="10.00">lobby/src/ui/game.c</text>
</a>
</g>
</g>
<!-- Node10&#45;&gt;Node11 -->
<g id="edge16_Node000010_Node000011" class="edge">
<title>Node10&#45;&gt;Node11</title>
<g id="a_edge16_Node000010_Node000011"><a xlink:title=" ">
<path fill="none" stroke="#63b8ff" d="M562,-50.16C562,-39.74 562,-27.3 562,-19.17"/>
<polygon fill="#63b8ff" stroke="#63b8ff" points="558.5,-50.37 562,-60.37 565.5,-50.37 558.5,-50.37"/>
</a>
</g>
</g>
<!-- Node15&#45;&gt;Node12 -->
<g id="edge21_Node000015_Node000012" class="edge">
<title>Node15&#45;&gt;Node12</title>
<g id="a_edge21_Node000015_Node000012"><a xlink:title=" ">
<path fill="none" stroke="#63b8ff" d="M821,-110.54C821,-101.96 821,-92.61 821,-85.16"/>
<polygon fill="#63b8ff" stroke="#63b8ff" points="817.5,-110.8 821,-120.8 824.5,-110.8 817.5,-110.8"/>
</a>
</g>
</g>
<!-- Node16 -->
<g id="Node000016" class="node">
<title>Node16</title>
<g id="a_Node000016"><a xlink:href="suika_2src_2main_8c.html" target="_top" xlink:title="Suika game entry point for standalone mode.">
<polygon fill="white" stroke="#666666" points="1116.5,-79.5 1021.5,-79.5 1021.5,-60.5 1116.5,-60.5 1116.5,-79.5"/>
<text text-anchor="middle" x="1069" y="-67.5" font-family="Helvetica,sans-Serif" font-size="10.00">suika/src/main.c</text>
</a>
</g>
</g>
<!-- Node15&#45;&gt;Node16 -->
<g id="edge22_Node000015_Node000016" class="edge">
<title>Node15&#45;&gt;Node16</title>
<g id="a_edge22_Node000015_Node000016"><a xlink:title=" ">
<path fill="none" stroke="#63b8ff" d="M883.04,-118.99C931.45,-106.5 996.82,-89.63 1035.77,-79.58"/>
<polygon fill="#63b8ff" stroke="#63b8ff" points="882.1,-115.62 873.29,-121.51 883.85,-122.4 882.1,-115.62"/>
</a>
</g>
</g>
<!-- Node17 -->
<g id="Node000017" class="node">
<title>Node17</title>
<g id="a_Node000017"><a xlink:href="suikaAPI_8c.html" target="_top" xlink:title="Implementation of the Suika mini&#45;game API.">
<polygon fill="white" stroke="#666666" points="1003,-79.5 891,-79.5 891,-60.5 1003,-60.5 1003,-79.5"/>
<text text-anchor="middle" x="947" y="-67.5" font-family="Helvetica,sans-Serif" font-size="10.00">suika/src/suikaAPI.c</text>
</a>
</g>
</g>
<!-- Node15&#45;&gt;Node17 -->
<g id="edge23_Node000015_Node000017" class="edge">
<title>Node15&#45;&gt;Node17</title>
<g id="a_edge23_Node000015_Node000017"><a xlink:title=" ">
<path fill="none" stroke="#63b8ff" d="M857.82,-116.3C881.76,-104.14 911.84,-88.86 930.23,-79.52"/>
<polygon fill="#63b8ff" stroke="#63b8ff" points="855.98,-113.31 848.65,-120.95 859.15,-119.55 855.98,-113.31"/>
</a>
</g>
</g>
</g>
</svg>
