<?xml version="1.0" encoding="UTF-8" standalone="no"?>
<!DOCTYPE svg PUBLIC "-//W3C//DTD SVG 1.1//EN"
 "http://www.w3.org/Graphics/SVG/1.1/DTD/svg11.dtd">
<!-- Generated by graphviz version 2.43.0 (0)
 -->
<!-- Title: main Pages: 1 -->
<svg width="896pt" height="586pt"
 viewBox="0.00 0.00 896.00 586.00" xmlns="http://www.w3.org/2000/svg" xmlns:xlink="http://www.w3.org/1999/xlink">
<g id="graph0" class="graph" transform="scale(1 1) rotate(0) translate(4 582)">
<title>main</title>
<!-- Node1 -->
<g id="Node000001" class="node">
<title>Node1</title>
<g id="a_Node000001"><a xlink:title="Program entry point.">
<polygon fill="#999999" stroke="#666666" points="41,-430 0,-430 0,-411 41,-411 41,-430"/>
<text text-anchor="middle" x="20.5" y="-418" font-family="Helvetica,sans-Serif" font-size="10.00">main</text>
</a>
</g>
</g>
<!-- Node2 -->
<g id="Node000002" class="node">
<title>Node2</title>
<g id="a_Node000002"><a xlink:href="systemSettings_8h.html#a6b34158f067734d410ac9cac1dc5ad04" target="_top" xlink:title=" ">
<polygon fill="white" stroke="#666666" points="197,-504 77,-504 77,-485 197,-485 197,-504"/>
<text text-anchor="middle" x="137" y="-492" font-family="Helvetica,sans-Serif" font-size="10.00">applySystemSettings</text>
</a>
</g>
</g>
<!-- Node1&#45;&gt;Node2 -->
<g id="edge1_Node000001_Node000002" class="edge">
<title>Node1&#45;&gt;Node2</title>
<g id="a_edge1_Node000001_Node000002"><a xlink:title=" ">
<path fill="none" stroke="#63b8ff" d="M28.66,-430.27C38.3,-442.75 56.61,-464.19 77,-476.5 79.8,-478.19 82.76,-479.73 85.82,-481.13"/>
<polygon fill="#63b8ff" stroke="#63b8ff" points="84.61,-484.42 95.19,-484.95 87.25,-477.94 84.61,-484.42"/>
</a>
</g>
</g>
<!-- Node3 -->
<g id="Node000003" class="node">
<title>Node3</title>
<g id="a_Node000003"><a xlink:href="lobbyAPI_8c.html#aa31806a0f0b16e110a0e7ac934e0f59d" target="_top" xlink:title="Releases all resources associated with the game and frees the handle.">
<polygon fill="white" stroke="#666666" points="186,-467 88,-467 88,-448 186,-448 186,-467"/>
<text text-anchor="middle" x="137" y="-455" font-family="Helvetica,sans-Serif" font-size="10.00">lobby_freeGame</text>
</a>
</g>
</g>
<!-- Node1&#45;&gt;Node3 -->
<g id="edge2_Node000001_Node000003" class="edge">
<title>Node1&#45;&gt;Node3</title>
<g id="a_edge2_Node000001_Node000003"><a xlink:title=" ">
<path fill="none" stroke="#63b8ff" d="M41.22,-427.43C51.8,-431.11 65.08,-435.64 77,-439.5 82.61,-441.32 88.54,-443.18 94.39,-445"/>
<polygon fill="#63b8ff" stroke="#63b8ff" points="93.51,-448.39 104.09,-447.98 95.56,-441.7 93.51,-448.39"/>
</a>
</g>
</g>
<!-- Node4 -->
<g id="Node000004" class="node">
<title>Node4</title>
<g id="a_Node000004"><a xlink:href="lobbyAPI_8c.html#aea557c0037d29d29b3a14ee7e981c572" target="_top" xlink:title="Executes one frame of the game (input &#45;&gt; update &#45;&gt; render).">
<polygon fill="white" stroke="#666666" points="187,-430 87,-430 87,-411 187,-411 187,-430"/>
<text text-anchor="middle" x="137" y="-418" font-family="Helvetica,sans-Serif" font-size="10.00">lobby_gameLoop</text>
</a>
</g>
</g>
<!-- Node1&#45;&gt;Node4 -->
<g id="edge3_Node000001_Node000004" class="edge">
<title>Node1&#45;&gt;Node4</title>
<g id="a_edge3_Node000001_Node000004"><a xlink:title=" ">
<path fill="none" stroke="#63b8ff" d="M41.18,-420.5C51.07,-420.5 63.64,-420.5 76.36,-420.5"/>
<polygon fill="#63b8ff" stroke="#63b8ff" points="76.55,-424 86.55,-420.5 76.55,-417 76.55,-424"/>
</a>
</g>
</g>
<!-- Node16 -->
<g id="Node000016" class="node">
<title>Node16</title>
<g id="a_Node000016"><a xlink:href="suikaAPI_8c.html#aecb4b1a7bc34dd49f6177e568b8af6db" target="_top" xlink:title=" ">
<polygon fill="white" stroke="#666666" points="185,-319 89,-319 89,-300 185,-300 185,-319"/>
<text text-anchor="middle" x="137" y="-307" font-family="Helvetica,sans-Serif" font-size="10.00">suika_freeGame</text>
</a>
</g>
</g>
<!-- Node1&#45;&gt;Node16 -->
<g id="edge17_Node000001_Node000016" class="edge">
<title>Node1&#45;&gt;Node16</title>
<g id="a_edge17_Node000001_Node000016"><a xlink:title=" ">
<path fill="none" stroke="#63b8ff" d="M31.66,-410.65C51.23,-391.68 94.36,-349.87 118.59,-326.38"/>
<polygon fill="#63b8ff" stroke="#63b8ff" points="121.28,-328.64 126.03,-319.17 116.41,-323.62 121.28,-328.64"/>
</a>
</g>
</g>
<!-- Node19 -->
<g id="Node000019" class="node">
<title>Node19</title>
<g id="a_Node000019"><a xlink:href="suikaAPI_8c.html#a7f41358d4fd1808bd05696cf110387bb" target="_top" xlink:title=" ">
<polygon fill="white" stroke="#666666" points="186,-244 88,-244 88,-225 186,-225 186,-244"/>
<text text-anchor="middle" x="137" y="-232" font-family="Helvetica,sans-Serif" font-size="10.00">suika_gameLoop</text>
</a>
</g>
</g>
<!-- Node1&#45;&gt;Node19 -->
<g id="edge20_Node000001_Node000019" class="edge">
<title>Node1&#45;&gt;Node19</title>
<g id="a_edge20_Node000001_Node000019"><a xlink:title=" ">
<path fill="none" stroke="#63b8ff" d="M24.23,-410.78C30.82,-388.35 49.15,-331.82 77,-291.5 87.65,-276.08 102.95,-261.44 115.3,-250.87"/>
<polygon fill="#63b8ff" stroke="#63b8ff" points="117.83,-253.32 123.28,-244.23 113.35,-247.93 117.83,-253.32"/>
</a>
</g>
</g>
<!-- Node5 -->
<g id="Node000005" class="node">
<title>Node5</title>
<g id="a_Node000005"><a xlink:href="lobby_2src_2core_2game_8c.html#a00aea9f7c73f366d0d7b862427520c85" target="_top" xlink:title="Handles skin selection via mouse clicks on preview rectangles or number keybinds.">
<polygon fill="white" stroke="#666666" points="351,-578 233,-578 233,-559 351,-559 351,-578"/>
<text text-anchor="middle" x="292" y="-566" font-family="Helvetica,sans-Serif" font-size="10.00">choosePlayerTexture</text>
</a>
</g>
</g>
<!-- Node4&#45;&gt;Node5 -->
<g id="edge4_Node000004_Node000005" class="edge">
<title>Node4&#45;&gt;Node5</title>
<g id="a_edge4_Node000004_Node000005"><a xlink:title=" ">
<path fill="none" stroke="#63b8ff" d="M183.43,-430.08C188.44,-432.54 193.12,-435.62 197,-439.5 233.71,-476.13 196.1,-514.06 233,-550.5 234.08,-551.56 235.22,-552.57 236.41,-553.51"/>
<polygon fill="#63b8ff" stroke="#63b8ff" points="234.59,-556.5 244.91,-558.91 238.35,-550.6 234.59,-556.5"/>
</a>
</g>
</g>
<!-- Node6 -->
<g id="Node000006" class="node">
<title>Node6</title>
<g id="a_Node000006"><a xlink:href="app_8c.html#a0e9e4b5753ec221d6f00645e3471326c" target="_top" xlink:title="Draws the skin selection menu overlay when open.">
<polygon fill="white" stroke="#666666" points="346.5,-541 237.5,-541 237.5,-522 346.5,-522 346.5,-541"/>
<text text-anchor="middle" x="292" y="-529" font-family="Helvetica,sans-Serif" font-size="10.00">drawMenuTextures</text>
</a>
</g>
</g>
<!-- Node4&#45;&gt;Node6 -->
<g id="edge5_Node000004_Node000006" class="edge">
<title>Node4&#45;&gt;Node6</title>
<g id="a_edge5_Node000004_Node000006"><a xlink:title=" ">
<path fill="none" stroke="#63b8ff" d="M181.73,-430.07C187.26,-432.53 192.53,-435.62 197,-439.5 224.62,-463.47 205.25,-489.67 233,-513.5 234.5,-514.79 236.09,-515.98 237.75,-517.09"/>
<polygon fill="#63b8ff" stroke="#63b8ff" points="236.1,-520.18 246.54,-521.96 239.49,-514.06 236.1,-520.18"/>
</a>
</g>
</g>
<!-- Node8 -->
<g id="Node000008" class="node">
<title>Node8</title>
<g id="a_Node000008"><a xlink:href="lobby_2src_2ui_2game_8c.html#a900175186a38e6b6605c3bebb3e317d3" target="_top" xlink:title="Draws all static platforms in the lobby world.">
<polygon fill="white" stroke="#666666" points="336,-504 248,-504 248,-485 336,-485 336,-504"/>
<text text-anchor="middle" x="292" y="-492" font-family="Helvetica,sans-Serif" font-size="10.00">drawPlatforms</text>
</a>
</g>
</g>
<!-- Node4&#45;&gt;Node8 -->
<g id="edge7_Node000004_Node000008" class="edge">
<title>Node4&#45;&gt;Node8</title>
<g id="a_edge7_Node000004_Node000008"><a xlink:title=" ">
<path fill="none" stroke="#63b8ff" d="M176.97,-430.06C183.91,-432.59 190.87,-435.7 197,-439.5 216.5,-451.6 213.44,-464.51 233,-476.5 235.66,-478.13 238.47,-479.62 241.37,-480.99"/>
<polygon fill="#63b8ff" stroke="#63b8ff" points="240.28,-484.32 250.85,-484.93 242.97,-477.86 240.28,-484.32"/>
</a>
</g>
</g>
<!-- Node9 -->
<g id="Node000009" class="node">
<title>Node9</title>
<g id="a_Node000009"><a xlink:href="lobby_2src_2ui_2game_8c.html#a249058c026ab0f8f5ee8f533a1bdee15" target="_top" xlink:title="Draws the player character in the lobby.">
<polygon fill="white" stroke="#666666" points="327.5,-430 256.5,-430 256.5,-411 327.5,-411 327.5,-430"/>
<text text-anchor="middle" x="292" y="-418" font-family="Helvetica,sans-Serif" font-size="10.00">drawPlayer</text>
</a>
</g>
</g>
<!-- Node4&#45;&gt;Node9 -->
<g id="edge8_Node000004_Node000009" class="edge">
<title>Node4&#45;&gt;Node9</title>
<g id="a_edge8_Node000004_Node000009"><a xlink:title=" ">
<path fill="none" stroke="#63b8ff" d="M187.25,-420.5C206.18,-420.5 227.67,-420.5 246.16,-420.5"/>
<polygon fill="#63b8ff" stroke="#63b8ff" points="246.37,-424 256.37,-420.5 246.37,-417 246.37,-424"/>
</a>
</g>
</g>
<!-- Node12 -->
<g id="Node000012" class="node">
<title>Node12</title>
<g id="a_Node000012"><a xlink:href="app_8c.html#aa2b7b70d122b50fbf2af1328e0f6eb1a" target="_top" xlink:title="Draws the skin&#45;menu toggle button (usually an icon in a corner).">
<polygon fill="white" stroke="#666666" points="339,-467 245,-467 245,-448 339,-448 339,-467"/>
<text text-anchor="middle" x="292" y="-455" font-family="Helvetica,sans-Serif" font-size="10.00">drawSkinButton</text>
</a>
</g>
</g>
<!-- Node4&#45;&gt;Node12 -->
<g id="edge12_Node000004_Node000012" class="edge">
<title>Node4&#45;&gt;Node12</title>
<g id="a_edge12_Node000004_Node000012"><a xlink:title=" ">
<path fill="none" stroke="#63b8ff" d="M177.4,-430.03C196.96,-434.76 220.78,-440.52 241.55,-445.54"/>
<polygon fill="#63b8ff" stroke="#63b8ff" points="240.92,-448.99 251.47,-447.94 242.57,-442.19 240.92,-448.99"/>
</a>
</g>
</g>
<!-- Node13 -->
<g id="Node000013" class="node">
<title>Node13</title>
<g id="a_Node000013"><a xlink:href="lobby_2src_2core_2game_8c.html#a0aacc2cdcb6e469a9b9c8c6ee620885d" target="_top" xlink:title="Toggles the skin selection menu visibility.">
<polygon fill="white" stroke="#666666" points="339.5,-393 244.5,-393 244.5,-374 339.5,-374 339.5,-393"/>
<text text-anchor="middle" x="292" y="-381" font-family="Helvetica,sans-Serif" font-size="10.00">toggleSkinMenu</text>
</a>
</g>
</g>
<!-- Node4&#45;&gt;Node13 -->
<g id="edge14_Node000004_Node000013" class="edge">
<title>Node4&#45;&gt;Node13</title>
<g id="a_edge14_Node000004_Node000013"><a xlink:title=" ">
<path fill="none" stroke="#63b8ff" d="M177.4,-410.97C196.96,-406.24 220.78,-400.48 241.55,-395.46"/>
<polygon fill="#63b8ff" stroke="#63b8ff" points="242.57,-398.81 251.47,-393.06 240.92,-392.01 242.57,-398.81"/>
</a>
</g>
</g>
<!-- Node14 -->
<g id="Node000014" class="node">
<title>Node14</title>
<g id="a_Node000014"><a xlink:href="lobby_2src_2core_2game_8c.html#a9f9fa790171a99a908ef789a6d0fcdae" target="_top" xlink:title="Updates player position, velocity, angle, jump state, and performs collisions.">
<polygon fill="white" stroke="#666666" points="332.5,-356 251.5,-356 251.5,-337 332.5,-337 332.5,-356"/>
<text text-anchor="middle" x="292" y="-344" font-family="Helvetica,sans-Serif" font-size="10.00">updatePlayer</text>
</a>
</g>
</g>
<!-- Node4&#45;&gt;Node14 -->
<g id="edge15_Node000004_Node000014" class="edge">
<title>Node4&#45;&gt;Node14</title>
<g id="a_edge15_Node000004_Node000014"><a xlink:title=" ">
<path fill="none" stroke="#63b8ff" d="M152.31,-410.94C170.48,-399.11 203.08,-378.89 233,-365.5 237.77,-363.36 242.86,-361.35 247.97,-359.48"/>
<polygon fill="#63b8ff" stroke="#63b8ff" points="249.43,-362.67 257.73,-356.08 247.13,-356.06 249.43,-362.67"/>
</a>
</g>
</g>
<!-- Node7 -->
<g id="Node000007" class="node">
<title>Node7</title>
<g id="a_Node000007"><a xlink:href="utils_8c.html#a754f78d61af1e3cff8243a2fd65c081c" target="_top" xlink:title="Returns the full source rectangle of a texture ({0, 0, w, h}).">
<polygon fill="white" stroke="#666666" points="515.5,-467 429.5,-467 429.5,-448 515.5,-448 515.5,-467"/>
<text text-anchor="middle" x="472.5" y="-455" font-family="Helvetica,sans-Serif" font-size="10.00">getTextureRec</text>
</a>
</g>
</g>
<!-- Node6&#45;&gt;Node7 -->
<g id="edge6_Node000006_Node000007" class="edge">
<title>Node6&#45;&gt;Node7</title>
<g id="a_edge6_Node000006_Node000007"><a xlink:title=" ">
<path fill="none" stroke="#63b8ff" d="M326.39,-521.98C334.51,-519.43 343.13,-516.53 351,-513.5 383.54,-500.95 419.67,-483.7 443.8,-471.67"/>
<polygon fill="#63b8ff" stroke="#63b8ff" points="445.69,-474.64 453.05,-467.02 442.54,-468.38 445.69,-474.64"/>
</a>
</g>
</g>
<!-- Node9&#45;&gt;Node7 -->
<g id="edge11_Node000009_Node000007" class="edge">
<title>Node9&#45;&gt;Node7</title>
<g id="a_edge11_Node000009_Node000007"><a xlink:title=" ">
<path fill="none" stroke="#63b8ff" d="M327.84,-427.72C353.8,-433.1 389.68,-440.54 419.09,-446.64"/>
<polygon fill="#63b8ff" stroke="#63b8ff" points="418.7,-450.13 429.2,-448.73 420.12,-443.27 418.7,-450.13"/>
</a>
</g>
</g>
<!-- Node10 -->
<g id="Node000010" class="node">
<title>Node10</title>
<g id="a_Node000010"><a xlink:href="lobby_2src_2core_2game_8c.html#aac6e5d2cccde2e07a73b894aaa16eccf" target="_top" xlink:title="Returns the local offset from the top&#45;left of the collision box to its center.">
<polygon fill="white" stroke="#666666" points="520,-430 425,-430 425,-411 520,-411 520,-430"/>
<text text-anchor="middle" x="472.5" y="-418" font-family="Helvetica,sans-Serif" font-size="10.00">getPlayerCenter</text>
</a>
</g>
</g>
<!-- Node9&#45;&gt;Node10 -->
<g id="edge9_Node000009_Node000010" class="edge">
<title>Node9&#45;&gt;Node10</title>
<g id="a_edge9_Node000009_Node000010"><a xlink:title=" ">
<path fill="none" stroke="#63b8ff" d="M327.84,-420.5C352.51,-420.5 386.15,-420.5 414.67,-420.5"/>
<polygon fill="#63b8ff" stroke="#63b8ff" points="414.92,-424 424.92,-420.5 414.92,-417 414.92,-424"/>
</a>
</g>
</g>
<!-- Node11 -->
<g id="Node000011" class="node">
<title>Node11</title>
<g id="a_Node000011"><a xlink:href="lobby_2src_2core_2game_8c.html#a6c8b06b89e288cb9aae0cf98dd079663" target="_top" xlink:title="Computes the axis&#45;aligned bounding box that fully encloses the player&#39;s circle.">
<polygon fill="white" stroke="#666666" points="534.5,-393 410.5,-393 410.5,-374 534.5,-374 534.5,-393"/>
<text text-anchor="middle" x="472.5" y="-381" font-family="Helvetica,sans-Serif" font-size="10.00">getPlayerCollisionBox</text>
</a>
</g>
</g>
<!-- Node9&#45;&gt;Node11 -->
<g id="edge10_Node000009_Node000011" class="edge">
<title>Node9&#45;&gt;Node11</title>
<g id="a_edge10_Node000009_Node000011"><a xlink:title=" ">
<path fill="none" stroke="#63b8ff" d="M327.84,-413.28C352.8,-408.1 386.94,-401.03 415.67,-395.07"/>
<polygon fill="#63b8ff" stroke="#63b8ff" points="416.51,-398.47 425.59,-393.02 415.08,-391.62 416.51,-398.47"/>
</a>
</g>
</g>
<!-- Node12&#45;&gt;Node7 -->
<g id="edge13_Node000012_Node000007" class="edge">
<title>Node12&#45;&gt;Node7</title>
<g id="a_edge13_Node000012_Node000007"><a xlink:title=" ">
<path fill="none" stroke="#63b8ff" d="M339.43,-457.5C363.86,-457.5 393.88,-457.5 419.13,-457.5"/>
<polygon fill="#63b8ff" stroke="#63b8ff" points="419.27,-461 429.27,-457.5 419.27,-454 419.27,-461"/>
</a>
</g>
</g>
<!-- Node15 -->
<g id="Node000015" class="node">
<title>Node15</title>
<g id="a_Node000015"><a xlink:href="lobby_2src_2core_2game_8c.html#a30238db470edcd0634463922ff874a7d" target="_top" xlink:title="Resolves collision between player&#39;s circle and a single axis&#45;aligned rectangle.">
<polygon fill="white" stroke="#666666" points="544.5,-356 400.5,-356 400.5,-337 544.5,-337 544.5,-356"/>
<text text-anchor="middle" x="472.5" y="-344" font-family="Helvetica,sans-Serif" font-size="10.00">resolveCircleRectCollision</text>
</a>
</g>
</g>
<!-- Node14&#45;&gt;Node15 -->
<g id="edge16_Node000014_Node000015" class="edge">
<title>Node14&#45;&gt;Node15</title>
<g id="a_edge16_Node000014_Node000015"><a xlink:title=" ">
<path fill="none" stroke="#63b8ff" d="M332.61,-346.5C349.66,-346.5 370.25,-346.5 390.29,-346.5"/>
<polygon fill="#63b8ff" stroke="#63b8ff" points="390.38,-350 400.38,-346.5 390.38,-343 390.38,-350"/>
</a>
</g>
</g>
<!-- Node17 -->
<g id="Node000017" class="node">
<title>Node17</title>
<g id="a_Node000017"><a xlink:href="suika_2src_2core_2game_8c.html#a8e2bb340c87ef243428ea8ec4f00533c" target="_top" xlink:title=" ">
<polygon fill="white" stroke="#666666" points="335,-319 249,-319 249,-300 335,-300 335,-319"/>
<text text-anchor="middle" x="292" y="-307" font-family="Helvetica,sans-Serif" font-size="10.00">suika_cleanup</text>
</a>
</g>
</g>
<!-- Node16&#45;&gt;Node17 -->
<g id="edge18_Node000016_Node000017" class="edge">
<title>Node16&#45;&gt;Node17</title>
<g id="a_edge18_Node000016_Node000017"><a xlink:title=" ">
<path fill="none" stroke="#63b8ff" d="M185.15,-309.5C202.18,-309.5 221.5,-309.5 238.92,-309.5"/>
<polygon fill="#63b8ff" stroke="#63b8ff" points="238.93,-313 248.93,-309.5 238.93,-306 238.93,-313"/>
</a>
</g>
</g>
<!-- Node18 -->
<g id="Node000018" class="node">
<title>Node18</title>
<g id="a_Node000018"><a xlink:href="suika_2src_2core_2game_8c.html#af97e86e3c48a7eab9ec13a2309e0fbcd" target="_top" xlink:title=" ">
<polygon fill="white" stroke="#666666" points="348.5,-282 235.5,-282 235.5,-263 348.5,-263 348.5,-282"/>
<text text-anchor="middle" x="292" y="-270" font-family="Helvetica,sans-Serif" font-size="10.00">suika_unloadAssets</text>
</a>
</g>
</g>
<!-- Node16&#45;&gt;Node18 -->
<g id="edge19_Node000016_Node000018" class="edge">
<title>Node16&#45;&gt;Node18</title>
<g id="a_edge19_Node000016_Node000018"><a xlink:title=" ">
<path fill="none" stroke="#63b8ff" d="M177.4,-299.97C196.96,-295.24 220.78,-289.48 241.55,-284.46"/>
<polygon fill="#63b8ff" stroke="#63b8ff" points="242.57,-287.81 251.47,-282.06 240.92,-281.01 242.57,-287.81"/>
</a>
</g>
</g>
<!-- Node20 -->
<g id="Node000020" class="node">
<title>Node20</title>
<g id="a_Node000020"><a xlink:href="suika_2src_2core_2game_8c.html#adbc69fd5e984caf25b56d1fb8fcf3ccb" target="_top" xlink:title=" ">
<polygon fill="white" stroke="#666666" points="327.5,-244 256.5,-244 256.5,-225 327.5,-225 327.5,-244"/>
<text text-anchor="middle" x="292" y="-232" font-family="Helvetica,sans-Serif" font-size="10.00">suika_draw</text>
</a>
</g>
</g>
<!-- Node19&#45;&gt;Node20 -->
<g id="edge21_Node000019_Node000020" class="edge">
<title>Node19&#45;&gt;Node20</title>
<g id="a_edge21_Node000019_Node000020"><a xlink:title=" ">
<path fill="none" stroke="#63b8ff" d="M186.41,-234.5C205.62,-234.5 227.56,-234.5 246.38,-234.5"/>
<polygon fill="#63b8ff" stroke="#63b8ff" points="246.47,-238 256.47,-234.5 246.47,-231 246.47,-238"/>
</a>
</g>
</g>
<!-- Node27 -->
<g id="Node000027" class="node">
<title>Node27</title>
<g id="a_Node000027"><a xlink:href="suika_2src_2core_2game_8c.html#a7a0b1ac9bedc2005a3c73ccbcdd67bd9" target="_top" xlink:title=" ">
<polygon fill="white" stroke="#666666" points="332.5,-112 251.5,-112 251.5,-93 332.5,-93 332.5,-112"/>
<text text-anchor="middle" x="292" y="-100" font-family="Helvetica,sans-Serif" font-size="10.00">suika_update</text>
</a>
</g>
</g>
<!-- Node19&#45;&gt;Node27 -->
<g id="edge28_Node000019_Node000027" class="edge">
<title>Node19&#45;&gt;Node27</title>
<g id="a_edge28_Node000019_Node000027"><a xlink:title=" ">
<path fill="none" stroke="#63b8ff" d="M149.5,-224.58C175.66,-202.01 239.82,-146.66 271.98,-118.91"/>
<polygon fill="#63b8ff" stroke="#63b8ff" points="274.5,-121.36 279.78,-112.18 269.92,-116.06 274.5,-121.36"/>
</a>
</g>
</g>
<!-- Node21 -->
<g id="Node000021" class="node">
<title>Node21</title>
<g id="a_Node000021"><a xlink:href="suika_2src_2core_2game_8c.html#a36b79c24a700011f032278fbfd42858b" target="_top" xlink:title=" ">
<polygon fill="white" stroke="#666666" points="532,-319 413,-319 413,-300 532,-300 532,-319"/>
<text text-anchor="middle" x="472.5" y="-307" font-family="Helvetica,sans-Serif" font-size="10.00">suika_drawContainer</text>
</a>
</g>
</g>
<!-- Node20&#45;&gt;Node21 -->
<g id="edge22_Node000020_Node000021" class="edge">
<title>Node20&#45;&gt;Node21</title>
<g id="a_edge22_Node000020_Node000021"><a xlink:title=" ">
<path fill="none" stroke="#63b8ff" d="M327.68,-244.06C335.6,-246.89 343.8,-250.36 351,-254.5 369.31,-265.02 368.41,-275.49 387,-285.5 395.47,-290.06 404.9,-293.83 414.3,-296.92"/>
<polygon fill="#63b8ff" stroke="#63b8ff" points="413.45,-300.32 424.04,-299.91 415.5,-293.63 413.45,-300.32"/>
</a>
</g>
</g>
<!-- Node22 -->
<g id="Node000022" class="node">
<title>Node22</title>
<g id="a_Node000022"><a xlink:href="suika_2src_2core_2game_8c.html#a343cf96d1d78e07da4c666b13d0b88d1" target="_top" xlink:title=" ">
<polygon fill="white" stroke="#666666" points="702.5,-262 609.5,-262 609.5,-243 702.5,-243 702.5,-262"/>
<text text-anchor="middle" x="656" y="-250" font-family="Helvetica,sans-Serif" font-size="10.00">suika_drawFruit</text>
</a>
</g>
</g>
<!-- Node20&#45;&gt;Node22 -->
<g id="edge23_Node000020_Node000022" class="edge">
<title>Node20&#45;&gt;Node22</title>
<g id="a_edge23_Node000020_Node000022"><a xlink:title=" ">
<path fill="none" stroke="#63b8ff" d="M327.59,-242.75C345.26,-246.54 367.15,-250.62 387,-252.5 460.11,-259.44 544.93,-257.82 599.24,-255.56"/>
<polygon fill="#63b8ff" stroke="#63b8ff" points="599.52,-259.05 609.35,-255.12 599.21,-252.06 599.52,-259.05"/>
</a>
</g>
</g>
<!-- Node24 -->
<g id="Node000024" class="node">
<title>Node24</title>
<g id="a_Node000024"><a xlink:href="suika_2src_2core_2game_8c.html#ace17611fa8ed663544a3fd503f7d5f8e" target="_top" xlink:title=" ">
<polygon fill="white" stroke="#666666" points="558,-243 387,-243 387,-224 558,-224 558,-243"/>
<text text-anchor="middle" x="472.5" y="-231" font-family="Helvetica,sans-Serif" font-size="10.00">suika_drawGradientBackground</text>
</a>
</g>
</g>
<!-- Node20&#45;&gt;Node24 -->
<g id="edge25_Node000020_Node000024" class="edge">
<title>Node20&#45;&gt;Node24</title>
<g id="a_edge25_Node000020_Node000024"><a xlink:title=" ">
<path fill="none" stroke="#63b8ff" d="M327.84,-234.3C342,-234.23 359.12,-234.13 376.54,-234.03"/>
<polygon fill="#63b8ff" stroke="#63b8ff" points="376.82,-237.53 386.8,-233.97 376.78,-230.53 376.82,-237.53"/>
</a>
</g>
</g>
<!-- Node25 -->
<g id="Node000025" class="node">
<title>Node25</title>
<g id="a_Node000025"><a xlink:href="suika_2src_2core_2game_8c.html#a5e95cbe3020dca490d2a6c9323b8e6df" target="_top" xlink:title=" ">
<polygon fill="white" stroke="#666666" points="519.5,-206 425.5,-206 425.5,-187 519.5,-187 519.5,-206"/>
<text text-anchor="middle" x="472.5" y="-194" font-family="Helvetica,sans-Serif" font-size="10.00">suika_drawHUD</text>
</a>
</g>
</g>
<!-- Node20&#45;&gt;Node25 -->
<g id="edge26_Node000020_Node000025" class="edge">
<title>Node20&#45;&gt;Node25</title>
<g id="a_edge26_Node000020_Node000025"><a xlink:title=" ">
<path fill="none" stroke="#63b8ff" d="M327.84,-227.08C353.07,-221.71 387.68,-214.34 416.61,-208.19"/>
<polygon fill="#63b8ff" stroke="#63b8ff" points="417.53,-211.57 426.58,-206.06 416.07,-204.72 417.53,-211.57"/>
</a>
</g>
</g>
<!-- Node23 -->
<g id="Node000023" class="node">
<title>Node23</title>
<g id="a_Node000023"><a xlink:href="suika_2src_2core_2game_8c.html#a86b0672b7e4006725e25ae8450bbbc22" target="_top" xlink:title=" ">
<polygon fill="white" stroke="#666666" points="888,-131 754,-131 754,-112 888,-112 888,-131"/>
<text text-anchor="middle" x="821" y="-119" font-family="Helvetica,sans-Serif" font-size="10.00">suika_getFruitProperties</text>
</a>
</g>
</g>
<!-- Node22&#45;&gt;Node23 -->
<g id="edge24_Node000022_Node000023" class="edge">
<title>Node22&#45;&gt;Node23</title>
<g id="a_edge24_Node000022_Node000023"><a xlink:title=" ">
<path fill="none" stroke="#63b8ff" d="M674.96,-242.86C687.44,-235.87 704.24,-225.85 718,-215.5 750.31,-191.2 784.1,-158.35 803.54,-138.61"/>
<polygon fill="#63b8ff" stroke="#63b8ff" points="806.24,-140.86 810.72,-131.26 801.23,-135.97 806.24,-140.86"/>
</a>
</g>
</g>
<!-- Node26 -->
<g id="Node000026" class="node">
<title>Node26</title>
<g id="a_Node000026"><a xlink:href="suika_2src_2core_2game_8c.html#a24d71cf760735799444dc3f2d677af08" target="_top" xlink:title=" ">
<polygon fill="white" stroke="#666666" points="705,-206 607,-206 607,-187 705,-187 705,-206"/>
<text text-anchor="middle" x="656" y="-194" font-family="Helvetica,sans-Serif" font-size="10.00">suika_drawPanel</text>
</a>
</g>
</g>
<!-- Node25&#45;&gt;Node26 -->
<g id="edge27_Node000025_Node000026" class="edge">
<title>Node25&#45;&gt;Node26</title>
<g id="a_edge27_Node000025_Node000026"><a xlink:title=" ">
<path fill="none" stroke="#63b8ff" d="M519.77,-196.5C543.22,-196.5 571.93,-196.5 596.85,-196.5"/>
<polygon fill="#63b8ff" stroke="#63b8ff" points="596.91,-200 606.91,-196.5 596.91,-193 596.91,-200"/>
</a>
</g>
</g>
<!-- Node28 -->
<g id="Node000028" class="node">
<title>Node28</title>
<g id="a_Node000028"><a xlink:href="suika_2src_2core_2game_8c.html#a9423928149c1bb3e03f19b5c0638bfea" target="_top" xlink:title=" ">
<polygon fill="white" stroke="#666666" points="536.5,-169 408.5,-169 408.5,-150 536.5,-150 536.5,-169"/>
<text text-anchor="middle" x="472.5" y="-157" font-family="Helvetica,sans-Serif" font-size="10.00">suika_checkGameOver</text>
</a>
</g>
</g>
<!-- Node27&#45;&gt;Node28 -->
<g id="edge29_Node000027_Node000028" class="edge">
<title>Node27&#45;&gt;Node28</title>
<g id="a_edge29_Node000027_Node000028"><a xlink:title=" ">
<path fill="none" stroke="#63b8ff" d="M318.79,-112.03C337.6,-118.86 363.75,-128.13 387,-135.5 399.62,-139.5 413.39,-143.55 426.09,-147.15"/>
<polygon fill="#63b8ff" stroke="#63b8ff" points="425.43,-150.6 436,-149.93 427.32,-143.86 425.43,-150.6"/>
</a>
</g>
</g>
<!-- Node29 -->
<g id="Node000029" class="node">
<title>Node29</title>
<g id="a_Node000029"><a xlink:href="suika_2src_2core_2game_8c.html#a006c1d15513718c42bcebdd17d905217" target="_top" xlink:title=" ">
<polygon fill="white" stroke="#666666" points="714,-131 598,-131 598,-112 714,-112 714,-131"/>
<text text-anchor="middle" x="656" y="-119" font-family="Helvetica,sans-Serif" font-size="10.00">suika_checkMerging</text>
</a>
</g>
</g>
<!-- Node27&#45;&gt;Node29 -->
<g id="edge30_Node000027_Node000029" class="edge">
<title>Node27&#45;&gt;Node29</title>
<g id="a_edge30_Node000027_Node000029"><a xlink:title=" ">
<path fill="none" stroke="#63b8ff" d="M332.78,-104.59C394.17,-107.81 512.75,-114.03 587.67,-117.97"/>
<polygon fill="#63b8ff" stroke="#63b8ff" points="587.77,-121.48 597.94,-118.51 588.14,-114.49 587.77,-121.48"/>
</a>
</g>
</g>
<!-- Node30 -->
<g id="Node000030" class="node">
<title>Node30</title>
<g id="a_Node000030"><a xlink:href="suika_2src_2core_2game_8c.html#ab70256256562f42ccedc516b20a20f9d" target="_top" xlink:title=" ">
<polygon fill="white" stroke="#666666" points="518,-93 427,-93 427,-74 518,-74 518,-93"/>
<text text-anchor="middle" x="472.5" y="-81" font-family="Helvetica,sans-Serif" font-size="10.00">suika_dropFruit</text>
</a>
</g>
</g>
<!-- Node27&#45;&gt;Node30 -->
<g id="edge32_Node000027_Node000030" class="edge">
<title>Node27&#45;&gt;Node30</title>
<g id="a_edge32_Node000027_Node000030"><a xlink:title=" ">
<path fill="none" stroke="#63b8ff" d="M332.61,-98.28C357.39,-95.65 389.64,-92.21 416.83,-89.32"/>
<polygon fill="#63b8ff" stroke="#63b8ff" points="417.4,-92.78 426.97,-88.24 416.66,-85.82 417.4,-92.78"/>
</a>
</g>
</g>
<!-- Node32 -->
<g id="Node000032" class="node">
<title>Node32</title>
<g id="a_Node000032"><a xlink:href="suika_2src_2core_2game_8c.html#a60c6e2017f72fea6b3cd6aff5c0c983a" target="_top" xlink:title=" ">
<polygon fill="white" stroke="#666666" points="508.5,-56 436.5,-56 436.5,-37 508.5,-37 508.5,-56"/>
<text text-anchor="middle" x="472.5" y="-44" font-family="Helvetica,sans-Serif" font-size="10.00">suika_reset</text>
</a>
</g>
</g>
<!-- Node27&#45;&gt;Node32 -->
<g id="edge35_Node000027_Node000032" class="edge">
<title>Node27&#45;&gt;Node32</title>
<g id="a_edge35_Node000027_Node000032"><a xlink:title=" ">
<path fill="none" stroke="#63b8ff" d="M313.53,-92.99C332.33,-84.57 361.08,-72.43 387,-64.5 399.56,-60.66 413.42,-57.33 426.22,-54.63"/>
<polygon fill="#63b8ff" stroke="#63b8ff" points="427.11,-58.02 436.2,-52.59 425.71,-51.16 427.11,-58.02"/>
</a>
</g>
</g>
<!-- Node33 -->
<g id="Node000033" class="node">
<title>Node33</title>
<g id="a_Node000033"><a xlink:href="suika_2src_2core_2game_8c.html#a609d2d138e1d54b2db72fa5b0e9f0640" target="_top" xlink:title=" ">
<polygon fill="white" stroke="#666666" points="531.5,-19 413.5,-19 413.5,0 531.5,0 531.5,-19"/>
<text text-anchor="middle" x="472.5" y="-7" font-family="Helvetica,sans-Serif" font-size="10.00">suika_updatePhysics</text>
</a>
</g>
</g>
<!-- Node27&#45;&gt;Node33 -->
<g id="edge37_Node000027_Node000033" class="edge">
<title>Node27&#45;&gt;Node33</title>
<g id="a_edge37_Node000027_Node000033"><a xlink:title=" ">
<path fill="none" stroke="#63b8ff" d="M301.86,-92.99C317.45,-76.86 351.52,-44.28 387,-27.5 392.21,-25.04 397.76,-22.91 403.44,-21.06"/>
<polygon fill="#63b8ff" stroke="#63b8ff" points="404.45,-24.41 413.06,-18.23 402.48,-17.7 404.45,-24.41"/>
</a>
</g>
</g>
<!-- Node29&#45;&gt;Node23 -->
<g id="edge31_Node000029_Node000023" class="edge">
<title>Node29&#45;&gt;Node23</title>
<g id="a_edge31_Node000029_Node000023"><a xlink:title=" ">
<path fill="none" stroke="#63b8ff" d="M714.01,-121.5C723.55,-121.5 733.58,-121.5 743.51,-121.5"/>
<polygon fill="#63b8ff" stroke="#63b8ff" points="743.8,-125 753.8,-121.5 743.8,-118 743.8,-125"/>
</a>
</g>
</g>
<!-- Node31 -->
<g id="Node000031" class="node">
<title>Node31</title>
<g id="a_Node000031"><a xlink:href="suika_2src_2core_2game_8c.html#afec037471cad5e1f6b2c97811cb98fba" target="_top" xlink:title=" ">
<polygon fill="white" stroke="#666666" points="718,-93 594,-93 594,-74 718,-74 718,-93"/>
<text text-anchor="middle" x="656" y="-81" font-family="Helvetica,sans-Serif" font-size="10.00">suika_spawnNextFruit</text>
</a>
</g>
</g>
<!-- Node30&#45;&gt;Node31 -->
<g id="edge33_Node000030_Node000031" class="edge">
<title>Node30&#45;&gt;Node31</title>
<g id="a_edge33_Node000030_Node000031"><a xlink:title=" ">
<path fill="none" stroke="#63b8ff" d="M518.37,-83.5C538.12,-83.5 561.81,-83.5 583.87,-83.5"/>
<polygon fill="#63b8ff" stroke="#63b8ff" points="583.88,-87 593.88,-83.5 583.88,-80 583.88,-87"/>
</a>
</g>
</g>
<!-- Node31&#45;&gt;Node23 -->
<g id="edge34_Node000031_Node000023" class="edge">
<title>Node31&#45;&gt;Node23</title>
<g id="a_edge34_Node000031_Node000023"><a xlink:title=" ">
<path fill="none" stroke="#63b8ff" d="M698.13,-93.09C719.74,-98.13 746.41,-104.34 769.29,-109.68"/>
<polygon fill="#63b8ff" stroke="#63b8ff" points="768.63,-113.12 779.16,-111.98 770.22,-106.3 768.63,-113.12"/>
</a>
</g>
</g>
<!-- Node32&#45;&gt;Node31 -->
<g id="edge36_Node000032_Node000031" class="edge">
<title>Node32&#45;&gt;Node31</title>
<g id="a_edge36_Node000032_Node000031"><a xlink:title=" ">
<path fill="none" stroke="#63b8ff" d="M508.93,-53.72C534.3,-58.9 569.02,-65.97 598.23,-71.93"/>
<polygon fill="#63b8ff" stroke="#63b8ff" points="597.82,-75.41 608.32,-73.98 599.22,-68.56 597.82,-75.41"/>
</a>
</g>
</g>
</g>
</svg>
