<?xml version="1.0" encoding="UTF-8" standalone="no"?>
<!DOCTYPE svg PUBLIC "-//W3C//DTD SVG 1.1//EN"
 "http://www.w3.org/Graphics/SVG/1.1/DTD/svg11.dtd">
<!-- Generated by graphviz version 2.43.0 (0)
 -->
<!-- Title: lobby/src/ui/game.c Pages: 1 -->
<svg width="310pt" height="247pt"
 viewBox="0.00 0.00 309.50 247.00" xmlns="http://www.w3.org/2000/svg" xmlns:xlink="http://www.w3.org/1999/xlink">
<g id="graph0" class="graph" transform="scale(1 1) rotate(0) translate(4 243)">
<title>lobby/src/ui/game.c</title>
<!-- Node1 -->
<g id="Node000001" class="node">
<title>Node1</title>
<g id="a_Node000001"><a xlink:title="Low&#45;level drawing routines for lobby gameplay elements.">
<polygon fill="#999999" stroke="#666666" points="230,-239 118,-239 118,-220 230,-220 230,-239"/>
<text text-anchor="middle" x="174" y="-227" font-family="Helvetica,sans-Serif" font-size="10.00">lobby/src/ui/game.c</text>
</a>
</g>
</g>
<!-- Node2 -->
<g id="Node000002" class="node">
<title>Node2</title>
<g id="a_Node000002"><a xlink:href="lobby_2include_2ui_2game_8h.html" target="_top" xlink:title=" ">
<polygon fill="white" stroke="#666666" points="117.5,-184 52.5,-184 52.5,-165 117.5,-165 117.5,-184"/>
<text text-anchor="middle" x="85" y="-172" font-family="Helvetica,sans-Serif" font-size="10.00">ui/game.h</text>
</a>
</g>
</g>
<!-- Node1&#45;&gt;Node2 -->
<g id="edge1_Node000001_Node000002" class="edge">
<title>Node1&#45;&gt;Node2</title>
<g id="a_edge1_Node000001_Node000002"><a xlink:title=" ">
<path fill="none" stroke="#63b8ff" d="M159.7,-219.98C145.9,-211.77 124.76,-199.18 108.49,-189.49"/>
<polygon fill="#63b8ff" stroke="#63b8ff" points="109.94,-186.28 99.56,-184.17 106.36,-192.29 109.94,-186.28"/>
</a>
</g>
</g>
<!-- Node7 -->
<g id="Node000007" class="node">
<title>Node7</title>
<g id="a_Node000007"><a xlink:title=" ">
<polygon fill="#e0e0e0" stroke="#999999" points="212.5,-184 135.5,-184 135.5,-165 212.5,-165 212.5,-184"/>
<text text-anchor="middle" x="174" y="-172" font-family="Helvetica,sans-Serif" font-size="10.00">core/game.h</text>
</a>
</g>
</g>
<!-- Node1&#45;&gt;Node7 -->
<g id="edge6_Node000001_Node000007" class="edge">
<title>Node1&#45;&gt;Node7</title>
<g id="a_edge6_Node000001_Node000007"><a xlink:title=" ">
<path fill="none" stroke="#63b8ff" d="M174,-219.75C174,-212.8 174,-202.85 174,-194.13"/>
<polygon fill="#63b8ff" stroke="#63b8ff" points="177.5,-194.09 174,-184.09 170.5,-194.09 177.5,-194.09"/>
</a>
</g>
</g>
<!-- Node8 -->
<g id="Node000008" class="node">
<title>Node8</title>
<g id="a_Node000008"><a xlink:title=" ">
<polygon fill="#e0e0e0" stroke="#999999" points="301.5,-184 230.5,-184 230.5,-165 301.5,-165 301.5,-184"/>
<text text-anchor="middle" x="266" y="-172" font-family="Helvetica,sans-Serif" font-size="10.00">utils/utils.h</text>
</a>
</g>
</g>
<!-- Node1&#45;&gt;Node8 -->
<g id="edge7_Node000001_Node000008" class="edge">
<title>Node1&#45;&gt;Node8</title>
<g id="a_edge7_Node000001_Node000008"><a xlink:title=" ">
<path fill="none" stroke="#63b8ff" d="M188.78,-219.98C203.18,-211.69 225.31,-198.94 242.19,-189.22"/>
<polygon fill="#63b8ff" stroke="#63b8ff" points="244.03,-192.19 250.95,-184.17 240.54,-186.13 244.03,-192.19"/>
</a>
</g>
</g>
<!-- Node3 -->
<g id="Node000003" class="node">
<title>Node3</title>
<g id="a_Node000003"><a xlink:href="userTypes_8h.html" target="_top" xlink:title="Core type definitions used throughout the game &#45; especially lobby and mini&#45;game integration.">
<polygon fill="white" stroke="#666666" points="134,-129 36,-129 36,-110 134,-110 134,-129"/>
<text text-anchor="middle" x="85" y="-117" font-family="Helvetica,sans-Serif" font-size="10.00">utils/userTypes.h</text>
</a>
</g>
</g>
<!-- Node2&#45;&gt;Node3 -->
<g id="edge2_Node000002_Node000003" class="edge">
<title>Node2&#45;&gt;Node3</title>
<g id="a_edge2_Node000002_Node000003"><a xlink:title=" ">
<path fill="none" stroke="#63b8ff" d="M85,-164.75C85,-157.8 85,-147.85 85,-139.13"/>
<polygon fill="#63b8ff" stroke="#63b8ff" points="88.5,-139.09 85,-129.09 81.5,-139.09 88.5,-139.09"/>
</a>
</g>
</g>
<!-- Node4 -->
<g id="Node000004" class="node">
<title>Node4</title>
<g id="a_Node000004"><a xlink:title=" ">
<polygon fill="#e0e0e0" stroke="#999999" points="68,-74 0,-74 0,-55 68,-55 68,-74"/>
<text text-anchor="middle" x="34" y="-62" font-family="Helvetica,sans-Serif" font-size="10.00">common.h</text>
</a>
</g>
</g>
<!-- Node3&#45;&gt;Node4 -->
<g id="edge3_Node000003_Node000004" class="edge">
<title>Node3&#45;&gt;Node4</title>
<g id="a_edge3_Node000003_Node000004"><a xlink:title=" ">
<path fill="none" stroke="#63b8ff" d="M76.58,-109.75C69.23,-102.11 58.37,-90.82 49.46,-81.56"/>
<polygon fill="#63b8ff" stroke="#63b8ff" points="51.72,-78.87 42.26,-74.09 46.68,-83.72 51.72,-78.87"/>
</a>
</g>
</g>
<!-- Node5 -->
<g id="Node000005" class="node">
<title>Node5</title>
<g id="a_Node000005"><a xlink:href="generalAPI_8h.html" target="_top" xlink:title="Minimal shared interface and common types used by all mini&#45;games and the lobby.">
<polygon fill="white" stroke="#666666" points="188,-74 86,-74 86,-55 188,-55 188,-74"/>
<text text-anchor="middle" x="137" y="-62" font-family="Helvetica,sans-Serif" font-size="10.00">APIs/generalAPI.h</text>
</a>
</g>
</g>
<!-- Node3&#45;&gt;Node5 -->
<g id="edge4_Node000003_Node000005" class="edge">
<title>Node3&#45;&gt;Node5</title>
<g id="a_edge4_Node000003_Node000005"><a xlink:title=" ">
<path fill="none" stroke="#63b8ff" d="M93.59,-109.75C101.16,-102.03 112.38,-90.6 121.51,-81.28"/>
<polygon fill="#63b8ff" stroke="#63b8ff" points="124.07,-83.68 128.57,-74.09 119.07,-78.78 124.07,-83.68"/>
</a>
</g>
</g>
<!-- Node6 -->
<g id="Node000006" class="node">
<title>Node6</title>
<g id="a_Node000006"><a xlink:title=" ">
<polygon fill="#e0e0e0" stroke="#999999" points="168,-19 106,-19 106,0 168,0 168,-19"/>
<text text-anchor="middle" x="137" y="-7" font-family="Helvetica,sans-Serif" font-size="10.00">stdbool.h</text>
</a>
</g>
</g>
<!-- Node5&#45;&gt;Node6 -->
<g id="edge5_Node000005_Node000006" class="edge">
<title>Node5&#45;&gt;Node6</title>
<g id="a_edge5_Node000005_Node000006"><a xlink:title=" ">
<path fill="none" stroke="#63b8ff" d="M137,-54.75C137,-47.8 137,-37.85 137,-29.13"/>
<polygon fill="#63b8ff" stroke="#63b8ff" points="140.5,-29.09 137,-19.09 133.5,-29.09 140.5,-29.09"/>
</a>
</g>
</g>
</g>
</svg>
