<?xml version="1.0" encoding="UTF-8" standalone="no"?>
<!DOCTYPE svg PUBLIC "-//W3C//DTD SVG 1.1//EN"
 "http://www.w3.org/Graphics/SVG/1.1/DTD/svg11.dtd">
<!-- Generated by graphviz version 2.43.0 (0)
 -->
<!-- Title: getPlayerCenter Pages: 1 -->
<svg width="423pt" height="27pt"
 viewBox="0.00 0.00 423.00 27.00" xmlns="http://www.w3.org/2000/svg" xmlns:xlink="http://www.w3.org/1999/xlink">
<g id="graph0" class="graph" transform="scale(1 1) rotate(0) translate(4 23)">
<title>getPlayerCenter</title>
<!-- Node1 -->
<g id="Node000001" class="node">
<title>Node1</title>
<g id="a_Node000001"><a xlink:title="Returns the local offset from the top&#45;left of the collision box to its center.">
<polygon fill="#999999" stroke="#666666" points="415,-19 320,-19 320,0 415,0 415,-19"/>
<text text-anchor="middle" x="367.5" y="-7" font-family="Helvetica,sans-Serif" font-size="10.00">getPlayerCenter</text>
</a>
</g>
</g>
<!-- Node2 -->
<g id="Node000002" class="node">
<title>Node2</title>
<g id="a_Node000002"><a xlink:href="lobby_2src_2ui_2game_8c.html#a249058c026ab0f8f5ee8f533a1bdee15" target="_top" xlink:title="Draws the player character in the lobby.">
<polygon fill="white" stroke="#666666" points="284,-19 213,-19 213,0 284,0 284,-19"/>
<text text-anchor="middle" x="248.5" y="-7" font-family="Helvetica,sans-Serif" font-size="10.00">drawPlayer</text>
</a>
</g>
</g>
<!-- Node1&#45;&gt;Node2 -->
<g id="edge1_Node000001_Node000002" class="edge">
<title>Node1&#45;&gt;Node2</title>
<g id="a_edge1_Node000001_Node000002"><a xlink:title=" ">
<path fill="none" stroke="#63b8ff" d="M309.7,-9.5C300.92,-9.5 292.1,-9.5 284.02,-9.5"/>
<polygon fill="#63b8ff" stroke="#63b8ff" points="309.92,-13 319.92,-9.5 309.92,-6 309.92,-13"/>
</a>
</g>
</g>
<!-- Node3 -->
<g id="Node000003" class="node">
<title>Node3</title>
<g id="a_Node000003"><a xlink:href="lobbyAPI_8c.html#aea557c0037d29d29b3a14ee7e981c572" target="_top" xlink:title="Executes one frame of the game (input &#45;&gt; update &#45;&gt; render).">
<polygon fill="white" stroke="#666666" points="177,-19 77,-19 77,0 177,0 177,-19"/>
<text text-anchor="middle" x="127" y="-7" font-family="Helvetica,sans-Serif" font-size="10.00">lobby_gameLoop</text>
</a>
</g>
</g>
<!-- Node2&#45;&gt;Node3 -->
<g id="edge2_Node000002_Node000003" class="edge">
<title>Node2&#45;&gt;Node3</title>
<g id="a_edge2_Node000002_Node000003"><a xlink:title=" ">
<path fill="none" stroke="#63b8ff" d="M202.66,-9.5C194.34,-9.5 185.6,-9.5 177.15,-9.5"/>
<polygon fill="#63b8ff" stroke="#63b8ff" points="202.94,-13 212.94,-9.5 202.94,-6 202.94,-13"/>
</a>
</g>
</g>
<!-- Node4 -->
<g id="Node000004" class="node">
<title>Node4</title>
<g id="a_Node000004"><a xlink:href="lobby_2src_2main_8c.html#a829bd6402048eb2a52282fa941b2c45d" target="_top" xlink:title="Program entry point.">
<polygon fill="white" stroke="#666666" points="41,-19 0,-19 0,0 41,0 41,-19"/>
<text text-anchor="middle" x="20.5" y="-7" font-family="Helvetica,sans-Serif" font-size="10.00">main</text>
</a>
</g>
</g>
<!-- Node3&#45;&gt;Node4 -->
<g id="edge3_Node000003_Node000004" class="edge">
<title>Node3&#45;&gt;Node4</title>
<g id="a_edge3_Node000003_Node000004"><a xlink:title=" ">
<path fill="none" stroke="#63b8ff" d="M66.77,-9.5C57.58,-9.5 48.68,-9.5 41.24,-9.5"/>
<polygon fill="#63b8ff" stroke="#63b8ff" points="66.81,-13 76.81,-9.5 66.81,-6 66.81,-13"/>
</a>
</g>
</g>
</g>
</svg>
