<?xml version="1.0" encoding="UTF-8" standalone="no"?>
<!DOCTYPE svg PUBLIC "-//W3C//DTD SVG 1.1//EN"
 "http://www.w3.org/Graphics/SVG/1.1/DTD/svg11.dtd">
<!-- Generated by graphviz version 2.43.0 (0)
 -->
<!-- Title: lobby/include/lobbyAPI.h Pages: 1 -->
<svg width="196pt" height="192pt"
 viewBox="0.00 0.00 196.00 192.00" xmlns="http://www.w3.org/2000/svg" xmlns:xlink="http://www.w3.org/1999/xlink">
<g id="graph0" class="graph" transform="scale(1 1) rotate(0) translate(4 188)">
<title>lobby/include/lobbyAPI.h</title>
<!-- Node1 -->
<g id="Node000001" class="node">
<title>Node1</title>
<g id="a_Node000001"><a xlink:title="Public API for the Lobby mini&#45;game.">
<polygon fill="#999999" stroke="#666666" points="166.5,-184 29.5,-184 29.5,-165 166.5,-165 166.5,-184"/>
<text text-anchor="middle" x="98" y="-172" font-family="Helvetica,sans-Serif" font-size="10.00">lobby/include/lobbyAPI.h</text>
</a>
</g>
</g>
<!-- Node2 -->
<g id="Node000002" class="node">
<title>Node2</title>
<g id="a_Node000002"><a xlink:href="userTypes_8h.html" target="_top" xlink:title="Core type definitions used throughout the game &#45; especially lobby and mini&#45;game integration.">
<polygon fill="white" stroke="#666666" points="109,-129 11,-129 11,-110 109,-110 109,-129"/>
<text text-anchor="middle" x="60" y="-117" font-family="Helvetica,sans-Serif" font-size="10.00">utils/userTypes.h</text>
</a>
</g>
</g>
<!-- Node1&#45;&gt;Node2 -->
<g id="edge1_Node000001_Node000002" class="edge">
<title>Node1&#45;&gt;Node2</title>
<g id="a_edge1_Node000001_Node000002"><a xlink:title=" ">
<path fill="none" stroke="#63b8ff" d="M91.73,-164.75C86.41,-157.34 78.64,-146.5 72.12,-137.41"/>
<polygon fill="#63b8ff" stroke="#63b8ff" points="74.83,-135.18 66.16,-129.09 69.14,-139.26 74.83,-135.18"/>
</a>
</g>
</g>
<!-- Node4 -->
<g id="Node000004" class="node">
<title>Node4</title>
<g id="a_Node000004"><a xlink:href="generalAPI_8h.html" target="_top" xlink:title="Minimal shared interface and common types used by all mini&#45;games and the lobby.">
<polygon fill="white" stroke="#666666" points="188,-74 86,-74 86,-55 188,-55 188,-74"/>
<text text-anchor="middle" x="137" y="-62" font-family="Helvetica,sans-Serif" font-size="10.00">APIs/generalAPI.h</text>
</a>
</g>
</g>
<!-- Node1&#45;&gt;Node4 -->
<g id="edge5_Node000001_Node000004" class="edge">
<title>Node1&#45;&gt;Node4</title>
<g id="a_edge5_Node000001_Node000004"><a xlink:title=" ">
<path fill="none" stroke="#63b8ff" d="M102.33,-164.78C106.64,-155.91 113.27,-141.7 118,-129 123.53,-114.15 128.61,-96.91 132.12,-84.14"/>
<polygon fill="#63b8ff" stroke="#63b8ff" points="135.56,-84.81 134.77,-74.25 128.8,-83 135.56,-84.81"/>
</a>
</g>
</g>
<!-- Node3 -->
<g id="Node000003" class="node">
<title>Node3</title>
<g id="a_Node000003"><a xlink:title=" ">
<polygon fill="#e0e0e0" stroke="#999999" points="68,-74 0,-74 0,-55 68,-55 68,-74"/>
<text text-anchor="middle" x="34" y="-62" font-family="Helvetica,sans-Serif" font-size="10.00">common.h</text>
</a>
</g>
</g>
<!-- Node2&#45;&gt;Node3 -->
<g id="edge2_Node000002_Node000003" class="edge">
<title>Node2&#45;&gt;Node3</title>
<g id="a_edge2_Node000002_Node000003"><a xlink:title=" ">
<path fill="none" stroke="#63b8ff" d="M55.71,-109.75C52.19,-102.57 47.09,-92.18 42.72,-83.27"/>
<polygon fill="#63b8ff" stroke="#63b8ff" points="45.76,-81.53 38.21,-74.09 39.48,-84.61 45.76,-81.53"/>
</a>
</g>
</g>
<!-- Node2&#45;&gt;Node4 -->
<g id="edge3_Node000002_Node000004" class="edge">
<title>Node2&#45;&gt;Node4</title>
<g id="a_edge3_Node000002_Node000004"><a xlink:title=" ">
<path fill="none" stroke="#63b8ff" d="M72.37,-109.98C84.09,-101.92 101.92,-89.65 115.89,-80.03"/>
<polygon fill="#63b8ff" stroke="#63b8ff" points="118.15,-82.72 124.4,-74.17 114.18,-76.96 118.15,-82.72"/>
</a>
</g>
</g>
<!-- Node5 -->
<g id="Node000005" class="node">
<title>Node5</title>
<g id="a_Node000005"><a xlink:title=" ">
<polygon fill="#e0e0e0" stroke="#999999" points="168,-19 106,-19 106,0 168,0 168,-19"/>
<text text-anchor="middle" x="137" y="-7" font-family="Helvetica,sans-Serif" font-size="10.00">stdbool.h</text>
</a>
</g>
</g>
<!-- Node4&#45;&gt;Node5 -->
<g id="edge4_Node000004_Node000005" class="edge">
<title>Node4&#45;&gt;Node5</title>
<g id="a_edge4_Node000004_Node000005"><a xlink:title=" ">
<path fill="none" stroke="#63b8ff" d="M137,-54.75C137,-47.8 137,-37.85 137,-29.13"/>
<polygon fill="#63b8ff" stroke="#63b8ff" points="140.5,-29.09 137,-19.09 133.5,-29.09 140.5,-29.09"/>
</a>
</g>
</g>
</g>
</svg>
