<?xml version="1.0" encoding="UTF-8" standalone="no"?>
<!DOCTYPE svg PUBLIC "-//W3C//DTD SVG 1.1//EN"
 "http://www.w3.org/Graphics/SVG/1.1/DTD/svg11.dtd">
<!-- Generated by graphviz version 2.43.0 (0)
 -->
<!-- Title: lobby/src/main.c Pages: 1 -->
<svg width="908pt" height="247pt"
 viewBox="0.00 0.00 908.13 247.00" xmlns="http://www.w3.org/2000/svg" xmlns:xlink="http://www.w3.org/1999/xlink">
<g id="graph0" class="graph" transform="scale(1 1) rotate(0) translate(4 243)">
<title>lobby/src/main.c</title>
<!-- Node1 -->
<g id="Node000001" class="node">
<title>Node1</title>
<g id="a_Node000001"><a xlink:title="Program entry point – lobby main loop and game scene manager.">
<polygon fill="#999999" stroke="#666666" points="254.5,-239 157.5,-239 157.5,-220 254.5,-220 254.5,-239"/>
<text text-anchor="middle" x="206" y="-227" font-family="Helvetica,sans-Serif" font-size="10.00">lobby/src/main.c</text>
</a>
</g>
</g>
<!-- Node2 -->
<g id="Node000002" class="node">
<title>Node2</title>
<g id="a_Node000002"><a xlink:href="lobbyAPI_8h.html" target="_top" xlink:title="Public API for the Lobby mini&#45;game.">
<polygon fill="white" stroke="#666666" points="105,-184 37,-184 37,-165 105,-165 105,-184"/>
<text text-anchor="middle" x="71" y="-172" font-family="Helvetica,sans-Serif" font-size="10.00">lobbyAPI.h</text>
</a>
</g>
</g>
<!-- Node1&#45;&gt;Node2 -->
<g id="edge1_Node000001_Node000002" class="edge">
<title>Node1&#45;&gt;Node2</title>
<g id="a_edge1_Node000001_Node000002"><a xlink:title=" ">
<path fill="none" stroke="#63b8ff" d="M184.31,-219.98C162.2,-211.3 127.68,-197.75 102.55,-187.88"/>
<polygon fill="#63b8ff" stroke="#63b8ff" points="103.67,-184.57 93.08,-184.17 101.11,-191.08 103.67,-184.57"/>
</a>
</g>
</g>
<!-- Node7 -->
<g id="Node000007" class="node">
<title>Node7</title>
<g id="a_Node000007"><a xlink:href="firstparty_2APIs_2suikaAPI_8h.html" target="_top" xlink:title="Public API for the Suika (Watermelon Game) mini&#45;game.">
<polygon fill="white" stroke="#666666" points="214.5,-184 123.5,-184 123.5,-165 214.5,-165 214.5,-184"/>
<text text-anchor="middle" x="169" y="-172" font-family="Helvetica,sans-Serif" font-size="10.00">APIs/suikaAPI.h</text>
</a>
</g>
</g>
<!-- Node1&#45;&gt;Node7 -->
<g id="edge7_Node000001_Node000007" class="edge">
<title>Node1&#45;&gt;Node7</title>
<g id="a_edge7_Node000001_Node000007"><a xlink:title=" ">
<path fill="none" stroke="#63b8ff" d="M199.89,-219.75C194.72,-212.34 187.15,-201.5 180.81,-192.41"/>
<polygon fill="#63b8ff" stroke="#63b8ff" points="183.59,-190.29 175,-184.09 177.85,-194.29 183.59,-190.29"/>
</a>
</g>
</g>
<!-- Node8 -->
<g id="Node000008" class="node">
<title>Node8</title>
<g id="a_Node000008"><a xlink:href="systemSettings_8h.html" target="_top" xlink:title="Settings structures for mini&#45;games.">
<polygon fill="white" stroke="#666666" points="293.5,-129 192.5,-129 192.5,-110 293.5,-110 293.5,-129"/>
<text text-anchor="middle" x="243" y="-117" font-family="Helvetica,sans-Serif" font-size="10.00">systemSettings.h</text>
</a>
</g>
</g>
<!-- Node1&#45;&gt;Node8 -->
<g id="edge9_Node000001_Node000008" class="edge">
<title>Node1&#45;&gt;Node8</title>
<g id="a_edge9_Node000001_Node000008"><a xlink:title=" ">
<path fill="none" stroke="#63b8ff" d="M209.83,-219.73C213.66,-210.82 219.58,-196.58 224,-184 229.25,-169.05 234.35,-151.82 237.94,-139.08"/>
<polygon fill="#63b8ff" stroke="#63b8ff" points="241.37,-139.78 240.67,-129.21 234.63,-137.91 241.37,-139.78"/>
</a>
</g>
</g>
<!-- Node11 -->
<g id="Node000011" class="node">
<title>Node11</title>
<g id="a_Node000011"><a xlink:href="logger_8h.html" target="_top" xlink:title="Flexible, colored console + file logger with stack trace support (Linux&#45;focused).">
<polygon fill="white" stroke="#666666" points="616,-184 560,-184 560,-165 616,-165 616,-184"/>
<text text-anchor="middle" x="588" y="-172" font-family="Helvetica,sans-Serif" font-size="10.00">logger.h</text>
</a>
</g>
</g>
<!-- Node1&#45;&gt;Node11 -->
<g id="edge14_Node000001_Node000011" class="edge">
<title>Node1&#45;&gt;Node11</title>
<g id="a_edge14_Node000001_Node000011"><a xlink:title=" ">
<path fill="none" stroke="#63b8ff" d="M254.77,-221.73C331.68,-211.06 479.57,-190.54 549.52,-180.84"/>
<polygon fill="#63b8ff" stroke="#63b8ff" points="550.24,-184.27 559.66,-179.43 549.28,-177.34 550.24,-184.27"/>
</a>
</g>
</g>
<!-- Node3 -->
<g id="Node000003" class="node">
<title>Node3</title>
<g id="a_Node000003"><a xlink:href="userTypes_8h.html" target="_top" xlink:title="Core type definitions used throughout the game &#45; especially lobby and mini&#45;game integration.">
<polygon fill="white" stroke="#666666" points="98,-129 0,-129 0,-110 98,-110 98,-129"/>
<text text-anchor="middle" x="49" y="-117" font-family="Helvetica,sans-Serif" font-size="10.00">utils/userTypes.h</text>
</a>
</g>
</g>
<!-- Node2&#45;&gt;Node3 -->
<g id="edge2_Node000002_Node000003" class="edge">
<title>Node2&#45;&gt;Node3</title>
<g id="a_edge2_Node000002_Node000003"><a xlink:title=" ">
<path fill="none" stroke="#63b8ff" d="M67.37,-164.75C64.42,-157.65 60.17,-147.4 56.49,-138.56"/>
<polygon fill="#63b8ff" stroke="#63b8ff" points="59.63,-136.98 52.57,-129.09 53.17,-139.67 59.63,-136.98"/>
</a>
</g>
</g>
<!-- Node5 -->
<g id="Node000005" class="node">
<title>Node5</title>
<g id="a_Node000005"><a xlink:href="generalAPI_8h.html" target="_top" xlink:title="Minimal shared interface and common types used by all mini&#45;games and the lobby.">
<polygon fill="white" stroke="#666666" points="209,-74 107,-74 107,-55 209,-55 209,-74"/>
<text text-anchor="middle" x="158" y="-62" font-family="Helvetica,sans-Serif" font-size="10.00">APIs/generalAPI.h</text>
</a>
</g>
</g>
<!-- Node2&#45;&gt;Node5 -->
<g id="edge6_Node000002_Node000005" class="edge">
<title>Node2&#45;&gt;Node5</title>
<g id="a_edge6_Node000002_Node000005"><a xlink:title=" ">
<path fill="none" stroke="#63b8ff" d="M77.91,-164.98C85.16,-156.02 96.9,-141.53 107,-129 119.83,-113.08 134.44,-94.88 144.73,-82.06"/>
<polygon fill="#63b8ff" stroke="#63b8ff" points="147.56,-84.13 151.08,-74.14 142.09,-79.75 147.56,-84.13"/>
</a>
</g>
</g>
<!-- Node4 -->
<g id="Node000004" class="node">
<title>Node4</title>
<g id="a_Node000004"><a xlink:title=" ">
<polygon fill="#e0e0e0" stroke="#999999" points="83,-74 15,-74 15,-55 83,-55 83,-74"/>
<text text-anchor="middle" x="49" y="-62" font-family="Helvetica,sans-Serif" font-size="10.00">common.h</text>
</a>
</g>
</g>
<!-- Node3&#45;&gt;Node4 -->
<g id="edge3_Node000003_Node000004" class="edge">
<title>Node3&#45;&gt;Node4</title>
<g id="a_edge3_Node000003_Node000004"><a xlink:title=" ">
<path fill="none" stroke="#63b8ff" d="M49,-109.75C49,-102.8 49,-92.85 49,-84.13"/>
<polygon fill="#63b8ff" stroke="#63b8ff" points="52.5,-84.09 49,-74.09 45.5,-84.09 52.5,-84.09"/>
</a>
</g>
</g>
<!-- Node3&#45;&gt;Node5 -->
<g id="edge4_Node000003_Node000005" class="edge">
<title>Node3&#45;&gt;Node5</title>
<g id="a_edge4_Node000003_Node000005"><a xlink:title=" ">
<path fill="none" stroke="#63b8ff" d="M66.51,-109.98C83.97,-101.5 111.01,-88.35 131.17,-78.54"/>
<polygon fill="#63b8ff" stroke="#63b8ff" points="132.71,-81.69 140.17,-74.17 129.64,-75.4 132.71,-81.69"/>
</a>
</g>
</g>
<!-- Node6 -->
<g id="Node000006" class="node">
<title>Node6</title>
<g id="a_Node000006"><a xlink:title=" ">
<polygon fill="#e0e0e0" stroke="#999999" points="335,-19 273,-19 273,0 335,0 335,-19"/>
<text text-anchor="middle" x="304" y="-7" font-family="Helvetica,sans-Serif" font-size="10.00">stdbool.h</text>
</a>
</g>
</g>
<!-- Node5&#45;&gt;Node6 -->
<g id="edge5_Node000005_Node000006" class="edge">
<title>Node5&#45;&gt;Node6</title>
<g id="a_edge5_Node000005_Node000006"><a xlink:title=" ">
<path fill="none" stroke="#63b8ff" d="M181.46,-54.98C205.58,-46.23 243.37,-32.51 270.6,-22.62"/>
<polygon fill="#63b8ff" stroke="#63b8ff" points="271.91,-25.87 280.12,-19.17 269.52,-19.29 271.91,-25.87"/>
</a>
</g>
</g>
<!-- Node7&#45;&gt;Node5 -->
<g id="edge8_Node000007_Node000005" class="edge">
<title>Node7&#45;&gt;Node5</title>
<g id="a_edge8_Node000007_Node000005"><a xlink:title=" ">
<path fill="none" stroke="#63b8ff" d="M168.1,-164.66C166.32,-147.17 162.31,-107.8 159.91,-84.27"/>
<polygon fill="#63b8ff" stroke="#63b8ff" points="163.38,-83.75 158.88,-74.16 156.41,-84.46 163.38,-83.75"/>
</a>
</g>
</g>
<!-- Node8&#45;&gt;Node5 -->
<g id="edge13_Node000008_Node000005" class="edge">
<title>Node8&#45;&gt;Node5</title>
<g id="a_edge13_Node000008_Node000005"><a xlink:title=" ">
<path fill="none" stroke="#63b8ff" d="M229.34,-109.98C216.16,-101.77 195.97,-89.18 180.43,-79.49"/>
<polygon fill="#63b8ff" stroke="#63b8ff" points="182.24,-76.49 171.91,-74.17 178.54,-82.43 182.24,-76.49"/>
</a>
</g>
</g>
<!-- Node9 -->
<g id="Node000009" class="node">
<title>Node9</title>
<g id="a_Node000009"><a xlink:href="baseTypes_8h.html" target="_top" xlink:title="Fixed&#45;size integer aliases, small vector types, and common shorthand aliases used as near&#45;primitive t...">
<polygon fill="white" stroke="#666666" points="304.5,-74 227.5,-74 227.5,-55 304.5,-55 304.5,-74"/>
<text text-anchor="middle" x="266" y="-62" font-family="Helvetica,sans-Serif" font-size="10.00">baseTypes.h</text>
</a>
</g>
</g>
<!-- Node8&#45;&gt;Node9 -->
<g id="edge10_Node000008_Node000009" class="edge">
<title>Node8&#45;&gt;Node9</title>
<g id="a_edge10_Node000008_Node000009"><a xlink:title=" ">
<path fill="none" stroke="#63b8ff" d="M246.8,-109.75C249.91,-102.57 254.42,-92.18 258.29,-83.27"/>
<polygon fill="#63b8ff" stroke="#63b8ff" points="261.5,-84.66 262.27,-74.09 255.08,-81.87 261.5,-84.66"/>
</a>
</g>
</g>
<!-- Node9&#45;&gt;Node6 -->
<g id="edge12_Node000009_Node000006" class="edge">
<title>Node9&#45;&gt;Node6</title>
<g id="a_edge12_Node000009_Node000006"><a xlink:title=" ">
<path fill="none" stroke="#63b8ff" d="M272.27,-54.75C277.59,-47.34 285.36,-36.5 291.88,-27.41"/>
<polygon fill="#63b8ff" stroke="#63b8ff" points="294.86,-29.26 297.84,-19.09 289.17,-25.18 294.86,-29.26"/>
</a>
</g>
</g>
<!-- Node10 -->
<g id="Node000010" class="node">
<title>Node10</title>
<g id="a_Node000010"><a xlink:title=" ">
<polygon fill="#e0e0e0" stroke="#999999" points="254.5,-19 201.5,-19 201.5,0 254.5,0 254.5,-19"/>
<text text-anchor="middle" x="228" y="-7" font-family="Helvetica,sans-Serif" font-size="10.00">stdint.h</text>
</a>
</g>
</g>
<!-- Node9&#45;&gt;Node10 -->
<g id="edge11_Node000009_Node000010" class="edge">
<title>Node9&#45;&gt;Node10</title>
<g id="a_edge11_Node000009_Node000010"><a xlink:title=" ">
<path fill="none" stroke="#63b8ff" d="M259.73,-54.75C254.41,-47.34 246.64,-36.5 240.12,-27.41"/>
<polygon fill="#63b8ff" stroke="#63b8ff" points="242.83,-25.18 234.16,-19.09 237.14,-29.26 242.83,-25.18"/>
</a>
</g>
</g>
<!-- Node11&#45;&gt;Node6 -->
<g id="edge16_Node000011_Node000006" class="edge">
<title>Node11&#45;&gt;Node6</title>
<g id="a_edge16_Node000011_Node000006"><a xlink:title=" ">
<path fill="none" stroke="#63b8ff" d="M616.24,-173.89C685.33,-174.19 859.88,-170.71 896,-129 901.53,-122.62 901.45,-116.45 896,-110 824.87,-25.92 467.72,-12.85 345.27,-10.85"/>
<polygon fill="#63b8ff" stroke="#63b8ff" points="345.22,-7.35 335.17,-10.7 345.12,-14.35 345.22,-7.35"/>
</a>
</g>
</g>
<!-- Node12 -->
<g id="Node000012" class="node">
<title>Node12</title>
<g id="a_Node000012"><a xlink:title=" ">
<polygon fill="#e0e0e0" stroke="#999999" points="813,-129 763,-129 763,-110 813,-110 813,-129"/>
<text text-anchor="middle" x="788" y="-117" font-family="Helvetica,sans-Serif" font-size="10.00">stdio.h</text>
</a>
</g>
</g>
<!-- Node11&#45;&gt;Node12 -->
<g id="edge15_Node000011_Node000012" class="edge">
<title>Node11&#45;&gt;Node12</title>
<g id="a_edge15_Node000011_Node000012"><a xlink:title=" ">
<path fill="none" stroke="#63b8ff" d="M616.23,-166.02C652.11,-156.51 714.04,-140.1 752.92,-129.8"/>
<polygon fill="#63b8ff" stroke="#63b8ff" points="753.99,-133.13 762.76,-127.19 752.19,-126.37 753.99,-133.13"/>
</a>
</g>
</g>
<!-- Node13 -->
<g id="Node000013" class="node">
<title>Node13</title>
<g id="a_Node000013"><a xlink:title=" ">
<polygon fill="#e0e0e0" stroke="#999999" points="887,-129 831,-129 831,-110 887,-110 887,-129"/>
<text text-anchor="middle" x="859" y="-117" font-family="Helvetica,sans-Serif" font-size="10.00">stdarg.h</text>
</a>
</g>
</g>
<!-- Node11&#45;&gt;Node13 -->
<g id="edge17_Node000011_Node000013" class="edge">
<title>Node11&#45;&gt;Node13</title>
<g id="a_edge17_Node000011_Node000013"><a xlink:title=" ">
<path fill="none" stroke="#63b8ff" d="M616.16,-168.5C658.38,-160.93 740.81,-145.85 820.53,-129.25"/>
<polygon fill="#63b8ff" stroke="#63b8ff" points="821.67,-132.58 830.74,-127.11 820.24,-125.73 821.67,-132.58"/>
</a>
</g>
</g>
<!-- Node14 -->
<g id="Node000014" class="node">
<title>Node14</title>
<g id="a_Node000014"><a xlink:title=" ">
<polygon fill="#e0e0e0" stroke="#999999" points="364.5,-129 311.5,-129 311.5,-110 364.5,-110 364.5,-129"/>
<text text-anchor="middle" x="338" y="-117" font-family="Helvetica,sans-Serif" font-size="10.00">stdlib.h</text>
</a>
</g>
</g>
<!-- Node11&#45;&gt;Node14 -->
<g id="edge18_Node000011_Node000014" class="edge">
<title>Node11&#45;&gt;Node14</title>
<g id="a_edge18_Node000011_Node000014"><a xlink:title=" ">
<path fill="none" stroke="#63b8ff" d="M559.91,-167.91C520.71,-160.05 447.17,-145.12 374.5,-129.06"/>
<polygon fill="#63b8ff" stroke="#63b8ff" points="375.24,-125.64 364.72,-126.89 373.72,-132.47 375.24,-125.64"/>
</a>
</g>
</g>
<!-- Node15 -->
<g id="Node000015" class="node">
<title>Node15</title>
<g id="a_Node000015"><a xlink:title=" ">
<polygon fill="#e0e0e0" stroke="#999999" points="439,-129 383,-129 383,-110 439,-110 439,-129"/>
<text text-anchor="middle" x="411" y="-117" font-family="Helvetica,sans-Serif" font-size="10.00">stddef.h</text>
</a>
</g>
</g>
<!-- Node11&#45;&gt;Node15 -->
<g id="edge19_Node000011_Node000015" class="edge">
<title>Node11&#45;&gt;Node15</title>
<g id="a_edge19_Node000011_Node000015"><a xlink:title=" ">
<path fill="none" stroke="#63b8ff" d="M559.95,-165.1C530.01,-156.13 482.37,-141.87 449.05,-131.89"/>
<polygon fill="#63b8ff" stroke="#63b8ff" points="449.79,-128.46 439.21,-128.95 447.78,-135.17 449.79,-128.46"/>
</a>
</g>
</g>
<!-- Node16 -->
<g id="Node000016" class="node">
<title>Node16</title>
<g id="a_Node000016"><a xlink:title=" ">
<polygon fill="#e0e0e0" stroke="#999999" points="505,-129 457,-129 457,-110 505,-110 505,-129"/>
<text text-anchor="middle" x="481" y="-117" font-family="Helvetica,sans-Serif" font-size="10.00">time.h</text>
</a>
</g>
</g>
<!-- Node11&#45;&gt;Node16 -->
<g id="edge20_Node000011_Node000016" class="edge">
<title>Node11&#45;&gt;Node16</title>
<g id="a_edge20_Node000011_Node000016"><a xlink:title=" ">
<path fill="none" stroke="#63b8ff" d="M570.81,-164.98C553.75,-156.54 527.37,-143.47 507.6,-133.68"/>
<polygon fill="#63b8ff" stroke="#63b8ff" points="509.02,-130.47 498.5,-129.17 505.91,-136.75 509.02,-130.47"/>
</a>
</g>
</g>
<!-- Node17 -->
<g id="Node000017" class="node">
<title>Node17</title>
<g id="a_Node000017"><a xlink:title=" ">
<polygon fill="#e0e0e0" stroke="#999999" points="576.5,-129 523.5,-129 523.5,-110 576.5,-110 576.5,-129"/>
<text text-anchor="middle" x="550" y="-117" font-family="Helvetica,sans-Serif" font-size="10.00">string.h</text>
</a>
</g>
</g>
<!-- Node11&#45;&gt;Node17 -->
<g id="edge21_Node000011_Node000017" class="edge">
<title>Node11&#45;&gt;Node17</title>
<g id="a_edge21_Node000011_Node000017"><a xlink:title=" ">
<path fill="none" stroke="#63b8ff" d="M581.73,-164.75C576.41,-157.34 568.64,-146.5 562.12,-137.41"/>
<polygon fill="#63b8ff" stroke="#63b8ff" points="564.83,-135.18 556.16,-129.09 559.14,-139.26 564.83,-135.18"/>
</a>
</g>
</g>
<!-- Node18 -->
<g id="Node000018" class="node">
<title>Node18</title>
<g id="a_Node000018"><a xlink:title=" ">
<polygon fill="#e0e0e0" stroke="#999999" points="659,-129 595,-129 595,-110 659,-110 659,-129"/>
<text text-anchor="middle" x="627" y="-117" font-family="Helvetica,sans-Serif" font-size="10.00">sys/stat.h</text>
</a>
</g>
</g>
<!-- Node11&#45;&gt;Node18 -->
<g id="edge22_Node000011_Node000018" class="edge">
<title>Node11&#45;&gt;Node18</title>
<g id="a_edge22_Node000011_Node000018"><a xlink:title=" ">
<path fill="none" stroke="#63b8ff" d="M594.44,-164.75C599.89,-157.34 607.86,-146.5 614.56,-137.41"/>
<polygon fill="#63b8ff" stroke="#63b8ff" points="617.57,-139.22 620.68,-129.09 611.93,-135.07 617.57,-139.22"/>
</a>
</g>
</g>
<!-- Node19 -->
<g id="Node000019" class="node">
<title>Node19</title>
<g id="a_Node000019"><a xlink:title=" ">
<polygon fill="#e0e0e0" stroke="#999999" points="745,-129 677,-129 677,-110 745,-110 745,-129"/>
<text text-anchor="middle" x="711" y="-117" font-family="Helvetica,sans-Serif" font-size="10.00">sys/time.h</text>
</a>
</g>
</g>
<!-- Node11&#45;&gt;Node19 -->
<g id="edge23_Node000011_Node000019" class="edge">
<title>Node11&#45;&gt;Node19</title>
<g id="a_edge23_Node000011_Node000019"><a xlink:title=" ">
<path fill="none" stroke="#63b8ff" d="M607.76,-164.98C627.73,-156.38 658.8,-142.99 681.65,-133.15"/>
<polygon fill="#63b8ff" stroke="#63b8ff" points="683.08,-136.34 690.88,-129.17 680.31,-129.91 683.08,-136.34"/>
</a>
</g>
</g>
</g>
</svg>
