<?xml version="1.0" encoding="UTF-8" standalone="no"?>
<!DOCTYPE svg PUBLIC "-//W3C//DTD SVG 1.1//EN"
 "http://www.w3.org/Graphics/SVG/1.1/DTD/svg11.dtd">
<!-- Generated by graphviz version 2.43.0 (0)
 -->
<!-- Title: lobby_gameLoop Pages: 1 -->
<svg width="442pt" height="249pt"
 viewBox="0.00 0.00 442.00 249.00" xmlns="http://www.w3.org/2000/svg" xmlns:xlink="http://www.w3.org/1999/xlink">
<g id="graph0" class="graph" transform="scale(1 1) rotate(0) translate(4 245)">
<title>lobby_gameLoop</title>
<!-- Node1 -->
<g id="Node000001" class="node">
<title>Node1</title>
<g id="a_Node000001"><a xlink:title="Executes one frame of the game (input &#45;&gt; update &#45;&gt; render).">
<polygon fill="#999999" stroke="#666666" points="100,-130 0,-130 0,-111 100,-111 100,-130"/>
<text text-anchor="middle" x="50" y="-118" font-family="Helvetica,sans-Serif" font-size="10.00">lobby_gameLoop</text>
</a>
</g>
</g>
<!-- Node2 -->
<g id="Node000002" class="node">
<title>Node2</title>
<g id="a_Node000002"><a xlink:href="lobby_2src_2core_2game_8c.html#a00aea9f7c73f366d0d7b862427520c85" target="_top" xlink:title="Handles skin selection via mouse clicks on preview rectangles or number keybinds.">
<polygon fill="white" stroke="#666666" points="254,-241 136,-241 136,-222 254,-222 254,-241"/>
<text text-anchor="middle" x="195" y="-229" font-family="Helvetica,sans-Serif" font-size="10.00">choosePlayerTexture</text>
</a>
</g>
</g>
<!-- Node1&#45;&gt;Node2 -->
<g id="edge1_Node000001_Node000002" class="edge">
<title>Node1&#45;&gt;Node2</title>
<g id="a_edge1_Node000001_Node000002"><a xlink:title=" ">
<path fill="none" stroke="#63b8ff" d="M57.24,-130.22C69.83,-149.08 100.17,-190.76 136,-213.5 138.59,-215.14 141.33,-216.64 144.17,-218.01"/>
<polygon fill="#63b8ff" stroke="#63b8ff" points="142.88,-221.27 153.46,-221.96 145.62,-214.83 142.88,-221.27"/>
</a>
</g>
</g>
<!-- Node3 -->
<g id="Node000003" class="node">
<title>Node3</title>
<g id="a_Node000003"><a xlink:href="app_8c.html#a0e9e4b5753ec221d6f00645e3471326c" target="_top" xlink:title="Draws the skin selection menu overlay when open.">
<polygon fill="white" stroke="#666666" points="249.5,-204 140.5,-204 140.5,-185 249.5,-185 249.5,-204"/>
<text text-anchor="middle" x="195" y="-192" font-family="Helvetica,sans-Serif" font-size="10.00">drawMenuTextures</text>
</a>
</g>
</g>
<!-- Node1&#45;&gt;Node3 -->
<g id="edge2_Node000001_Node000003" class="edge">
<title>Node1&#45;&gt;Node3</title>
<g id="a_edge2_Node000001_Node000003"><a xlink:title=" ">
<path fill="none" stroke="#63b8ff" d="M63.02,-130.01C78.92,-142.21 108.2,-163.35 136,-176.5 139.81,-178.3 143.84,-179.98 147.93,-181.52"/>
<polygon fill="#63b8ff" stroke="#63b8ff" points="146.92,-184.88 157.51,-184.9 149.24,-178.28 146.92,-184.88"/>
</a>
</g>
</g>
<!-- Node5 -->
<g id="Node000005" class="node">
<title>Node5</title>
<g id="a_Node000005"><a xlink:href="lobby_2src_2ui_2game_8c.html#a900175186a38e6b6605c3bebb3e317d3" target="_top" xlink:title="Draws all static platforms in the lobby world.">
<polygon fill="white" stroke="#666666" points="239,-167 151,-167 151,-148 239,-148 239,-167"/>
<text text-anchor="middle" x="195" y="-155" font-family="Helvetica,sans-Serif" font-size="10.00">drawPlatforms</text>
</a>
</g>
</g>
<!-- Node1&#45;&gt;Node5 -->
<g id="edge4_Node000001_Node000005" class="edge">
<title>Node1&#45;&gt;Node5</title>
<g id="a_edge4_Node000001_Node000005"><a xlink:title=" ">
<path fill="none" stroke="#63b8ff" d="M87.83,-130.03C105.87,-134.7 127.79,-140.37 147.02,-145.35"/>
<polygon fill="#63b8ff" stroke="#63b8ff" points="146.24,-148.76 156.8,-147.88 148,-141.98 146.24,-148.76"/>
</a>
</g>
</g>
<!-- Node6 -->
<g id="Node000006" class="node">
<title>Node6</title>
<g id="a_Node000006"><a xlink:href="lobby_2src_2ui_2game_8c.html#a249058c026ab0f8f5ee8f533a1bdee15" target="_top" xlink:title="Draws the player character in the lobby.">
<polygon fill="white" stroke="#666666" points="230.5,-93 159.5,-93 159.5,-74 230.5,-74 230.5,-93"/>
<text text-anchor="middle" x="195" y="-81" font-family="Helvetica,sans-Serif" font-size="10.00">drawPlayer</text>
</a>
</g>
</g>
<!-- Node1&#45;&gt;Node6 -->
<g id="edge5_Node000001_Node000006" class="edge">
<title>Node1&#45;&gt;Node6</title>
<g id="a_edge5_Node000001_Node000006"><a xlink:title=" ">
<path fill="none" stroke="#63b8ff" d="M87.83,-110.97C106.66,-106.1 129.72,-100.13 149.54,-95"/>
<polygon fill="#63b8ff" stroke="#63b8ff" points="150.46,-98.38 159.27,-92.49 148.71,-91.6 150.46,-98.38"/>
</a>
</g>
</g>
<!-- Node9 -->
<g id="Node000009" class="node">
<title>Node9</title>
<g id="a_Node000009"><a xlink:href="app_8c.html#aa2b7b70d122b50fbf2af1328e0f6eb1a" target="_top" xlink:title="Draws the skin&#45;menu toggle button (usually an icon in a corner).">
<polygon fill="white" stroke="#666666" points="242,-130 148,-130 148,-111 242,-111 242,-130"/>
<text text-anchor="middle" x="195" y="-118" font-family="Helvetica,sans-Serif" font-size="10.00">drawSkinButton</text>
</a>
</g>
</g>
<!-- Node1&#45;&gt;Node9 -->
<g id="edge9_Node000001_Node000009" class="edge">
<title>Node1&#45;&gt;Node9</title>
<g id="a_edge9_Node000001_Node000009"><a xlink:title=" ">
<path fill="none" stroke="#63b8ff" d="M100.21,-120.5C112.2,-120.5 125.13,-120.5 137.43,-120.5"/>
<polygon fill="#63b8ff" stroke="#63b8ff" points="137.59,-124 147.59,-120.5 137.59,-117 137.59,-124"/>
</a>
</g>
</g>
<!-- Node10 -->
<g id="Node000010" class="node">
<title>Node10</title>
<g id="a_Node000010"><a xlink:href="lobby_2src_2core_2game_8c.html#a0aacc2cdcb6e469a9b9c8c6ee620885d" target="_top" xlink:title="Toggles the skin selection menu visibility.">
<polygon fill="white" stroke="#666666" points="242.5,-56 147.5,-56 147.5,-37 242.5,-37 242.5,-56"/>
<text text-anchor="middle" x="195" y="-44" font-family="Helvetica,sans-Serif" font-size="10.00">toggleSkinMenu</text>
</a>
</g>
</g>
<!-- Node1&#45;&gt;Node10 -->
<g id="edge11_Node000001_Node000010" class="edge">
<title>Node1&#45;&gt;Node10</title>
<g id="a_edge11_Node000001_Node000010"><a xlink:title=" ">
<path fill="none" stroke="#63b8ff" d="M63.64,-110.83C79.73,-98.88 108.72,-78.53 136,-65.5 140.6,-63.3 145.53,-61.26 150.49,-59.39"/>
<polygon fill="#63b8ff" stroke="#63b8ff" points="151.74,-62.66 159.99,-56.02 149.4,-56.06 151.74,-62.66"/>
</a>
</g>
</g>
<!-- Node11 -->
<g id="Node000011" class="node">
<title>Node11</title>
<g id="a_Node000011"><a xlink:href="lobby_2src_2core_2game_8c.html#a9f9fa790171a99a908ef789a6d0fcdae" target="_top" xlink:title="Updates player position, velocity, angle, jump state, and performs collisions.">
<polygon fill="white" stroke="#666666" points="235.5,-19 154.5,-19 154.5,0 235.5,0 235.5,-19"/>
<text text-anchor="middle" x="195" y="-7" font-family="Helvetica,sans-Serif" font-size="10.00">updatePlayer</text>
</a>
</g>
</g>
<!-- Node1&#45;&gt;Node11 -->
<g id="edge12_Node000001_Node000011" class="edge">
<title>Node1&#45;&gt;Node11</title>
<g id="a_edge12_Node000001_Node000011"><a xlink:title=" ">
<path fill="none" stroke="#63b8ff" d="M57.3,-110.94C69.99,-92.37 100.5,-51.29 136,-28.5 139.17,-26.46 142.59,-24.62 146.11,-22.97"/>
<polygon fill="#63b8ff" stroke="#63b8ff" points="147.73,-26.09 155.61,-19.01 145.03,-19.63 147.73,-26.09"/>
</a>
</g>
</g>
<!-- Node4 -->
<g id="Node000004" class="node">
<title>Node4</title>
<g id="a_Node000004"><a xlink:href="utils_8c.html#a754f78d61af1e3cff8243a2fd65c081c" target="_top" xlink:title="Returns the full source rectangle of a texture ({0, 0, w, h}).">
<polygon fill="white" stroke="#666666" points="405,-130 319,-130 319,-111 405,-111 405,-130"/>
<text text-anchor="middle" x="362" y="-118" font-family="Helvetica,sans-Serif" font-size="10.00">getTextureRec</text>
</a>
</g>
</g>
<!-- Node3&#45;&gt;Node4 -->
<g id="edge3_Node000003_Node000004" class="edge">
<title>Node3&#45;&gt;Node4</title>
<g id="a_edge3_Node000003_Node000004"><a xlink:title=" ">
<path fill="none" stroke="#63b8ff" d="M230.41,-184.95C238.26,-182.46 246.5,-179.6 254,-176.5 283.04,-164.51 314.74,-147.37 336.04,-135.22"/>
<polygon fill="#63b8ff" stroke="#63b8ff" points="337.85,-138.21 344.77,-130.19 334.35,-132.15 337.85,-138.21"/>
</a>
</g>
</g>
<!-- Node6&#45;&gt;Node4 -->
<g id="edge8_Node000006_Node000004" class="edge">
<title>Node6&#45;&gt;Node4</title>
<g id="a_edge8_Node000006_Node000004"><a xlink:title=" ">
<path fill="none" stroke="#63b8ff" d="M230.59,-91.26C253.28,-96.34 283.37,-103.09 308.93,-108.82"/>
<polygon fill="#63b8ff" stroke="#63b8ff" points="308.32,-112.27 318.84,-111.05 309.85,-105.44 308.32,-112.27"/>
</a>
</g>
</g>
<!-- Node7 -->
<g id="Node000007" class="node">
<title>Node7</title>
<g id="a_Node000007"><a xlink:href="lobby_2src_2core_2game_8c.html#aac6e5d2cccde2e07a73b894aaa16eccf" target="_top" xlink:title="Returns the local offset from the top&#45;left of the collision box to its center.">
<polygon fill="white" stroke="#666666" points="409.5,-93 314.5,-93 314.5,-74 409.5,-74 409.5,-93"/>
<text text-anchor="middle" x="362" y="-81" font-family="Helvetica,sans-Serif" font-size="10.00">getPlayerCenter</text>
</a>
</g>
</g>
<!-- Node6&#45;&gt;Node7 -->
<g id="edge6_Node000006_Node000007" class="edge">
<title>Node6&#45;&gt;Node7</title>
<g id="a_edge6_Node000006_Node000007"><a xlink:title=" ">
<path fill="none" stroke="#63b8ff" d="M230.59,-83.5C251.84,-83.5 279.58,-83.5 304.01,-83.5"/>
<polygon fill="#63b8ff" stroke="#63b8ff" points="304.25,-87 314.25,-83.5 304.25,-80 304.25,-87"/>
</a>
</g>
</g>
<!-- Node8 -->
<g id="Node000008" class="node">
<title>Node8</title>
<g id="a_Node000008"><a xlink:href="lobby_2src_2core_2game_8c.html#a6c8b06b89e288cb9aae0cf98dd079663" target="_top" xlink:title="Computes the axis&#45;aligned bounding box that fully encloses the player&#39;s circle.">
<polygon fill="white" stroke="#666666" points="424,-56 300,-56 300,-37 424,-37 424,-56"/>
<text text-anchor="middle" x="362" y="-44" font-family="Helvetica,sans-Serif" font-size="10.00">getPlayerCollisionBox</text>
</a>
</g>
</g>
<!-- Node6&#45;&gt;Node8 -->
<g id="edge7_Node000006_Node000008" class="edge">
<title>Node6&#45;&gt;Node8</title>
<g id="a_edge7_Node000006_Node000008"><a xlink:title=" ">
<path fill="none" stroke="#63b8ff" d="M230.59,-75.74C253.2,-70.67 283.15,-63.96 308.65,-58.24"/>
<polygon fill="#63b8ff" stroke="#63b8ff" points="309.55,-61.62 318.54,-56.02 308.02,-54.79 309.55,-61.62"/>
</a>
</g>
</g>
<!-- Node9&#45;&gt;Node4 -->
<g id="edge10_Node000009_Node000004" class="edge">
<title>Node9&#45;&gt;Node4</title>
<g id="a_edge10_Node000009_Node000004"><a xlink:title=" ">
<path fill="none" stroke="#63b8ff" d="M242.4,-120.5C263.04,-120.5 287.44,-120.5 308.73,-120.5"/>
<polygon fill="#63b8ff" stroke="#63b8ff" points="308.89,-124 318.89,-120.5 308.89,-117 308.89,-124"/>
</a>
</g>
</g>
<!-- Node12 -->
<g id="Node000012" class="node">
<title>Node12</title>
<g id="a_Node000012"><a xlink:href="lobby_2src_2core_2game_8c.html#a30238db470edcd0634463922ff874a7d" target="_top" xlink:title="Resolves collision between player&#39;s circle and a single axis&#45;aligned rectangle.">
<polygon fill="white" stroke="#666666" points="434,-19 290,-19 290,0 434,0 434,-19"/>
<text text-anchor="middle" x="362" y="-7" font-family="Helvetica,sans-Serif" font-size="10.00">resolveCircleRectCollision</text>
</a>
</g>
</g>
<!-- Node11&#45;&gt;Node12 -->
<g id="edge13_Node000011_Node000012" class="edge">
<title>Node11&#45;&gt;Node12</title>
<g id="a_edge13_Node000011_Node000012"><a xlink:title=" ">
<path fill="none" stroke="#63b8ff" d="M235.52,-9.5C248.9,-9.5 264.36,-9.5 279.76,-9.5"/>
<polygon fill="#63b8ff" stroke="#63b8ff" points="279.86,-13 289.86,-9.5 279.86,-6 279.86,-13"/>
</a>
</g>
</g>
</g>
</svg>
