<?xml version="1.0" encoding="UTF-8" standalone="no"?>
<!DOCTYPE svg PUBLIC "-//W3C//DTD SVG 1.1//EN"
 "http://www.w3.org/Graphics/SVG/1.1/DTD/svg11.dtd">
<!-- Generated by graphviz version 2.43.0 (0)
 -->
<!-- Title: firstparty/logger.h Pages: 1 -->
<svg width="612pt" height="93pt"
 viewBox="0.00 0.00 611.50 93.00" xmlns="http://www.w3.org/2000/svg" xmlns:xlink="http://www.w3.org/1999/xlink">
<g id="graph0" class="graph" transform="scale(1 1) rotate(0) translate(4 89)">
<title>firstparty/logger.h</title>
<!-- Node1 -->
<g id="Node000001" class="node">
<title>Node1</title>
<g id="a_Node000001"><a xlink:title="Flexible, colored console + file logger with stack trace support (Linux&#45;focused).">
<polygon fill="#999999" stroke="#666666" points="350,-85 247,-85 247,-66 350,-66 350,-85"/>
<text text-anchor="middle" x="298.5" y="-73" font-family="Helvetica,sans-Serif" font-size="10.00">firstparty/logger.h</text>
</a>
</g>
</g>
<!-- Node2 -->
<g id="Node000002" class="node">
<title>Node2</title>
<g id="a_Node000002"><a xlink:href="lobby_2src_2main_8c.html" target="_top" xlink:title="Program entry point – lobby main loop and game scene manager.">
<polygon fill="white" stroke="#666666" points="97,-24.5 0,-24.5 0,-5.5 97,-5.5 97,-24.5"/>
<text text-anchor="middle" x="48.5" y="-12.5" font-family="Helvetica,sans-Serif" font-size="10.00">lobby/src/main.c</text>
</a>
</g>
</g>
<!-- Node1&#45;&gt;Node2 -->
<g id="edge1_Node000001_Node000002" class="edge">
<title>Node1&#45;&gt;Node2</title>
<g id="a_edge1_Node000001_Node000002"><a xlink:title=" ">
<path fill="none" stroke="#63b8ff" d="M251.33,-63.69C212.44,-54.75 155.86,-41.68 106.5,-30 99.14,-28.26 91.26,-26.37 83.76,-24.57"/>
<polygon fill="#63b8ff" stroke="#63b8ff" points="250.78,-67.16 261.31,-65.99 252.35,-60.34 250.78,-67.16"/>
</a>
</g>
</g>
<!-- Node3 -->
<g id="Node000003" class="node">
<title>Node3</title>
<g id="a_Node000003"><a xlink:href="suika_2include_2utils_2common_8h.html" target="_top" xlink:title=" ">
<polygon fill="white" stroke="#666666" points="219.5,-30 115.5,-30 115.5,0 219.5,0 219.5,-30"/>
<text text-anchor="start" x="123.5" y="-18" font-family="Helvetica,sans-Serif" font-size="10.00">suika/include/utils</text>
<text text-anchor="middle" x="167.5" y="-7" font-family="Helvetica,sans-Serif" font-size="10.00">/common.h</text>
</a>
</g>
</g>
<!-- Node1&#45;&gt;Node3 -->
<g id="edge2_Node000001_Node000003" class="edge">
<title>Node1&#45;&gt;Node3</title>
<g id="a_edge2_Node000001_Node000003"><a xlink:title=" ">
<path fill="none" stroke="#63b8ff" d="M270.12,-61.83C249.17,-52.47 220.65,-39.74 198.99,-30.06"/>
<polygon fill="#63b8ff" stroke="#63b8ff" points="268.89,-65.11 279.45,-65.99 271.75,-58.72 268.89,-65.11"/>
</a>
</g>
</g>
<!-- Node4 -->
<g id="Node000004" class="node">
<title>Node4</title>
<g id="a_Node000004"><a xlink:href="suika_2src_2core_2game_8c.html" target="_top" xlink:title="Core Suika game logic with sprite atlas support.">
<polygon fill="white" stroke="#666666" points="359.5,-24.5 237.5,-24.5 237.5,-5.5 359.5,-5.5 359.5,-24.5"/>
<text text-anchor="middle" x="298.5" y="-12.5" font-family="Helvetica,sans-Serif" font-size="10.00">suika/src/core/game.c</text>
</a>
</g>
</g>
<!-- Node1&#45;&gt;Node4 -->
<g id="edge3_Node000001_Node000004" class="edge">
<title>Node1&#45;&gt;Node4</title>
<g id="a_edge3_Node000001_Node000004"><a xlink:title=" ">
<path fill="none" stroke="#63b8ff" d="M298.5,-55.66C298.5,-45.24 298.5,-32.8 298.5,-24.67"/>
<polygon fill="#63b8ff" stroke="#63b8ff" points="295,-55.87 298.5,-65.87 302,-55.87 295,-55.87"/>
</a>
</g>
</g>
<!-- Node5 -->
<g id="Node000005" class="node">
<title>Node5</title>
<g id="a_Node000005"><a xlink:href="suika_2src_2main_8c.html" target="_top" xlink:title="Suika game entry point for standalone mode.">
<polygon fill="white" stroke="#666666" points="473,-24.5 378,-24.5 378,-5.5 473,-5.5 473,-24.5"/>
<text text-anchor="middle" x="425.5" y="-12.5" font-family="Helvetica,sans-Serif" font-size="10.00">suika/src/main.c</text>
</a>
</g>
</g>
<!-- Node1&#45;&gt;Node5 -->
<g id="edge4_Node000001_Node000005" class="edge">
<title>Node1&#45;&gt;Node5</title>
<g id="a_edge4_Node000001_Node000005"><a xlink:title=" ">
<path fill="none" stroke="#63b8ff" d="M326.11,-61.78C350.62,-50.49 385.74,-34.31 407.01,-24.52"/>
<polygon fill="#63b8ff" stroke="#63b8ff" points="324.59,-58.63 316.97,-65.99 327.51,-64.99 324.59,-58.63"/>
</a>
</g>
</g>
<!-- Node6 -->
<g id="Node000006" class="node">
<title>Node6</title>
<g id="a_Node000006"><a xlink:href="suikaAPI_8c.html" target="_top" xlink:title="Implementation of the Suika mini&#45;game API.">
<polygon fill="white" stroke="#666666" points="603.5,-24.5 491.5,-24.5 491.5,-5.5 603.5,-5.5 603.5,-24.5"/>
<text text-anchor="middle" x="547.5" y="-12.5" font-family="Helvetica,sans-Serif" font-size="10.00">suika/src/suikaAPI.c</text>
</a>
</g>
</g>
<!-- Node1&#45;&gt;Node6 -->
<g id="edge5_Node000001_Node000006" class="edge">
<title>Node1&#45;&gt;Node6</title>
<g id="a_edge5_Node000001_Node000006"><a xlink:title=" ">
<path fill="none" stroke="#63b8ff" d="M344.55,-63.68C392.67,-52.38 467.16,-34.88 511.25,-24.52"/>
<polygon fill="#63b8ff" stroke="#63b8ff" points="343.64,-60.3 334.71,-65.99 345.24,-67.11 343.64,-60.3"/>
</a>
</g>
</g>
</g>
</svg>
