<?xml version="1.0" encoding="UTF-8" standalone="no"?>
<!DOCTYPE svg PUBLIC "-//W3C//DTD SVG 1.1//EN"
 "http://www.w3.org/Graphics/SVG/1.1/DTD/svg11.dtd">
<!-- Generated by graphviz version 2.43.0 (0)
 -->
<!-- Title: LobbyGame_St Pages: 1 -->
<svg width="401pt" height="159pt"
 viewBox="0.00 0.00 400.50 159.00" xmlns="http://www.w3.org/2000/svg" xmlns:xlink="http://www.w3.org/1999/xlink">
<g id="graph0" class="graph" transform="scale(1 1) rotate(0) translate(4 155)">
<title>LobbyGame_St</title>
<!-- Node1 -->
<g id="Node000001" class="node">
<title>Node1</title>
<g id="a_Node000001"><a xlink:title="Complete state of the lobby / main hub world.">
<polygon fill="#999999" stroke="#666666" points="232.5,-19 142.5,-19 142.5,0 232.5,0 232.5,-19"/>
<text text-anchor="middle" x="187.5" y="-7" font-family="Helvetica,sans-Serif" font-size="10.00">LobbyGame_St</text>
</a>
</g>
</g>
<!-- Node2 -->
<g id="Node000002" class="node">
<title>Node2</title>
<g id="a_Node000002"><a xlink:href="structBaseGame__St.html" target="_top" xlink:title=" ">
<polygon fill="white" stroke="#666666" points="85,-151 0,-151 0,-132 85,-132 85,-151"/>
<text text-anchor="middle" x="42.5" y="-139" font-family="Helvetica,sans-Serif" font-size="10.00">BaseGame_St</text>
</a>
</g>
</g>
<!-- Node2&#45;&gt;Node1 -->
<g id="edge1_Node000001_Node000002" class="edge">
<title>Node2&#45;&gt;Node1</title>
<g id="a_edge1_Node000001_Node000002"><a xlink:title=" ">
<path fill="none" stroke="#9a32cd" stroke-dasharray="5,2" d="M34.61,-122.32C28.91,-106.09 24.02,-82.42 35.5,-66 59.41,-31.81 106.73,-18.61 142.25,-13.56"/>
<polygon fill="#9a32cd" stroke="#9a32cd" points="31.41,-123.73 38.32,-131.76 37.92,-121.17 31.41,-123.73"/>
</a>
</g>
<text text-anchor="middle" x="49" y="-73" font-family="Helvetica,sans-Serif" font-size="10.00" fill="grey"> base</text>
</g>
<!-- Node5 -->
<g id="Node000005" class="node">
<title>Node5</title>
<g id="a_Node000005"><a xlink:href="structSubGameManager__St.html" target="_top" xlink:title="Manages which mini&#45;game is currently active and its integration with the lobby.">
<polygon fill="white" stroke="#666666" points="193.5,-85 71.5,-85 71.5,-66 193.5,-66 193.5,-85"/>
<text text-anchor="middle" x="132.5" y="-73" font-family="Helvetica,sans-Serif" font-size="10.00">SubGameManager_St</text>
</a>
</g>
</g>
<!-- Node2&#45;&gt;Node5 -->
<g id="edge5_Node000005_Node000002" class="edge">
<title>Node2&#45;&gt;Node5</title>
<g id="a_edge5_Node000005_Node000002"><a xlink:title=" ">
<path fill="none" stroke="#9a32cd" stroke-dasharray="5,2" d="M63.12,-125.83C80.78,-113.28 105.6,-95.63 120.27,-85.2"/>
<polygon fill="#9a32cd" stroke="#9a32cd" points="60.76,-123.22 54.64,-131.87 64.82,-128.93 60.76,-123.22"/>
</a>
</g>
<text text-anchor="middle" x="123.5" y="-106" font-family="Helvetica,sans-Serif" font-size="10.00" fill="grey"> miniGames</text>
</g>
<!-- Node3 -->
<g id="Node000003" class="node">
<title>Node3</title>
<g id="a_Node000003"><a xlink:href="structPlayer__st.html" target="_top" xlink:title="Physics and movement state of the player character in the lobby (platformer).">
<polygon fill="white" stroke="#666666" points="276.5,-85 214.5,-85 214.5,-66 276.5,-66 276.5,-85"/>
<text text-anchor="middle" x="245.5" y="-73" font-family="Helvetica,sans-Serif" font-size="10.00">Player_st</text>
</a>
</g>
</g>
<!-- Node3&#45;&gt;Node1 -->
<g id="edge2_Node000001_Node000003" class="edge">
<title>Node3&#45;&gt;Node1</title>
<g id="a_edge2_Node000001_Node000003"><a xlink:title=" ">
<path fill="none" stroke="#9a32cd" stroke-dasharray="5,2" d="M237.08,-56.86C233.44,-50.23 228.8,-42.88 223.5,-37 217.27,-30.08 208.97,-23.83 201.91,-19.13"/>
<polygon fill="#9a32cd" stroke="#9a32cd" points="233.99,-58.5 241.66,-65.81 240.22,-55.31 233.99,-58.5"/>
</a>
</g>
<text text-anchor="middle" x="247.5" y="-40" font-family="Helvetica,sans-Serif" font-size="10.00" fill="grey"> player</text>
</g>
<!-- Node4 -->
<g id="Node000004" class="node">
<title>Node4</title>
<g id="a_Node000004"><a xlink:href="structPlayerVisuals__St.html" target="_top" xlink:title="Visual / rendering related state of the player character.">
<polygon fill="white" stroke="#666666" points="392.5,-85 294.5,-85 294.5,-66 392.5,-66 392.5,-85"/>
<text text-anchor="middle" x="343.5" y="-73" font-family="Helvetica,sans-Serif" font-size="10.00">PlayerVisuals_St</text>
</a>
</g>
</g>
<!-- Node4&#45;&gt;Node1 -->
<g id="edge3_Node000001_Node000004" class="edge">
<title>Node4&#45;&gt;Node1</title>
<g id="a_edge3_Node000001_Node000004"><a xlink:title=" ">
<path fill="none" stroke="#9a32cd" stroke-dasharray="5,2" d="M318.78,-60.98C304.36,-53.39 285.68,-44.06 268.5,-37 251.8,-30.14 232.63,-23.8 217.12,-19.04"/>
<polygon fill="#9a32cd" stroke="#9a32cd" points="317.54,-64.29 328.01,-65.91 320.84,-58.12 317.54,-64.29"/>
</a>
</g>
<text text-anchor="middle" x="326.5" y="-40" font-family="Helvetica,sans-Serif" font-size="10.00" fill="grey"> playerVisuals</text>
</g>
<!-- Node5&#45;&gt;Node1 -->
<g id="edge4_Node000001_Node000005" class="edge">
<title>Node5&#45;&gt;Node1</title>
<g id="a_edge4_Node000001_Node000005"><a xlink:title=" ">
<path fill="none" stroke="#9a32cd" stroke-dasharray="5,2" d="M127.27,-55.81C126.53,-49.41 127,-42.49 130.5,-37 135.78,-28.72 144.4,-22.99 153.34,-19.03"/>
<polygon fill="#9a32cd" stroke="#9a32cd" points="123.87,-56.64 129.32,-65.73 130.72,-55.23 123.87,-56.64"/>
</a>
</g>
<text text-anchor="middle" x="177" y="-40" font-family="Helvetica,sans-Serif" font-size="10.00" fill="grey"> subGameManager</text>
</g>
</g>
</svg>
