<?xml version="1.0" encoding="UTF-8" standalone="no"?>
<!DOCTYPE svg PUBLIC "-//W3C//DTD SVG 1.1//EN"
 "http://www.w3.org/Graphics/SVG/1.1/DTD/svg11.dtd">
<!-- Generated by graphviz version 2.43.0 (0)
 -->
<!-- Title: SuikaGame_St Pages: 1 -->
<svg width="165pt" height="104pt"
 viewBox="0.00 0.00 164.50 104.00" xmlns="http://www.w3.org/2000/svg" xmlns:xlink="http://www.w3.org/1999/xlink">
<g id="graph0" class="graph" transform="scale(1 1) rotate(0) translate(4 100)">
<title>SuikaGame_St</title>
<!-- Node1 -->
<g id="Node000001" class="node">
<title>Node1</title>
<g id="a_Node000001"><a xlink:title=" ">
<polygon fill="#999999" stroke="#666666" points="129,-19 42,-19 42,0 129,0 129,-19"/>
<text text-anchor="middle" x="85.5" y="-7" font-family="Helvetica,sans-Serif" font-size="10.00">SuikaGame_St</text>
</a>
</g>
</g>
<!-- Node2 -->
<g id="Node000002" class="node">
<title>Node2</title>
<g id="a_Node000002"><a xlink:href="structBaseGame__St.html" target="_top" xlink:title=" ">
<polygon fill="white" stroke="#666666" points="85,-96 0,-96 0,-77 85,-77 85,-96"/>
<text text-anchor="middle" x="42.5" y="-84" font-family="Helvetica,sans-Serif" font-size="10.00">BaseGame_St</text>
</a>
</g>
</g>
<!-- Node2&#45;&gt;Node1 -->
<g id="edge1_Node000001_Node000002" class="edge">
<title>Node2&#45;&gt;Node1</title>
<g id="a_edge1_Node000001_Node000002"><a xlink:title=" ">
<path fill="none" stroke="#9a32cd" stroke-dasharray="5,2" d="M52.62,-67.86C61.44,-52.47 73.85,-30.82 80.62,-19"/>
<polygon fill="#9a32cd" stroke="#9a32cd" points="49.37,-66.48 47.43,-76.9 55.44,-69.96 49.37,-66.48"/>
</a>
</g>
<text text-anchor="middle" x="83" y="-45.5" font-family="Helvetica,sans-Serif" font-size="10.00" fill="grey"> base</text>
</g>
<!-- Node3 -->
<g id="Node000003" class="node">
<title>Node3</title>
<g id="a_Node000003"><a xlink:href="structFruit__St.html" target="_top" xlink:title=" ">
<polygon fill="white" stroke="#666666" points="156,-96 103,-96 103,-77 156,-77 156,-96"/>
<text text-anchor="middle" x="129.5" y="-84" font-family="Helvetica,sans-Serif" font-size="10.00">Fruit_St</text>
</a>
</g>
</g>
<!-- Node3&#45;&gt;Node1 -->
<g id="edge2_Node000001_Node000003" class="edge">
<title>Node3&#45;&gt;Node1</title>
<g id="a_edge2_Node000001_Node000003"><a xlink:title=" ">
<path fill="none" stroke="#9a32cd" stroke-dasharray="5,2" d="M119.15,-67.86C110.12,-52.47 97.42,-30.82 90.49,-19"/>
<polygon fill="#9a32cd" stroke="#9a32cd" points="116.37,-70.04 124.45,-76.9 122.41,-66.5 116.37,-70.04"/>
</a>
</g>
<text text-anchor="middle" x="134.5" y="-51" font-family="Helvetica,sans-Serif" font-size="10.00" fill="grey"> fruits</text>
<text text-anchor="middle" x="134.5" y="-40" font-family="Helvetica,sans-Serif" font-size="10.00" fill="grey">nextFruit</text>
</g>
</g>
</svg>
