<?xml version="1.0" encoding="UTF-8" standalone="no"?>
<!DOCTYPE svg PUBLIC "-//W3C//DTD SVG 1.1//EN"
 "http://www.w3.org/Graphics/SVG/1.1/DTD/svg11.dtd">
<!-- Generated by graphviz version 2.43.0 (0)
 -->
<!-- Title: suika_spawnNextFruit Pages: 1 -->
<svg width="625pt" height="101pt"
 viewBox="0.00 0.00 625.00 101.00" xmlns="http://www.w3.org/2000/svg" xmlns:xlink="http://www.w3.org/1999/xlink">
<g id="graph0" class="graph" transform="scale(1 1) rotate(0) translate(4 97)">
<title>suika_spawnNextFruit</title>
<!-- Node1 -->
<g id="Node000001" class="node">
<title>Node1</title>
<g id="a_Node000001"><a xlink:title=" ">
<polygon fill="#999999" stroke="#666666" points="617,-56 493,-56 493,-37 617,-37 617,-56"/>
<text text-anchor="middle" x="555" y="-44" font-family="Helvetica,sans-Serif" font-size="10.00">suika_spawnNextFruit</text>
</a>
</g>
</g>
<!-- Node2 -->
<g id="Node000002" class="node">
<title>Node2</title>
<g id="a_Node000002"><a xlink:href="suika_2src_2core_2game_8c.html#ab70256256562f42ccedc516b20a20f9d" target="_top" xlink:title=" ">
<polygon fill="white" stroke="#666666" points="457,-93 366,-93 366,-74 457,-74 457,-93"/>
<text text-anchor="middle" x="411.5" y="-81" font-family="Helvetica,sans-Serif" font-size="10.00">suika_dropFruit</text>
</a>
</g>
</g>
<!-- Node1&#45;&gt;Node2 -->
<g id="edge1_Node000001_Node000002" class="edge">
<title>Node1&#45;&gt;Node2</title>
<g id="a_edge1_Node000001_Node000002"><a xlink:title=" ">
<path fill="none" stroke="#63b8ff" d="M507.65,-58.62C488.72,-63.57 467.13,-69.22 449.31,-73.88"/>
<polygon fill="#63b8ff" stroke="#63b8ff" points="508.77,-61.94 517.56,-56.03 507,-55.17 508.77,-61.94"/>
</a>
</g>
</g>
<!-- Node6 -->
<g id="Node000006" class="node">
<title>Node6</title>
<g id="a_Node000006"><a xlink:href="suika_2src_2core_2game_8c.html#aadb299b4e95e8d52aefee09419239169" target="_top" xlink:title=" ">
<polygon fill="white" stroke="#666666" points="443,-19 380,-19 380,0 443,0 443,-19"/>
<text text-anchor="middle" x="411.5" y="-7" font-family="Helvetica,sans-Serif" font-size="10.00">suika_init</text>
</a>
</g>
</g>
<!-- Node1&#45;&gt;Node6 -->
<g id="edge5_Node000001_Node000006" class="edge">
<title>Node1&#45;&gt;Node6</title>
<g id="a_edge5_Node000001_Node000006"><a xlink:title=" ">
<path fill="none" stroke="#63b8ff" d="M507.76,-34.41C486.54,-28.86 461.95,-22.43 443.08,-17.49"/>
<polygon fill="#63b8ff" stroke="#63b8ff" points="507,-37.83 517.56,-36.97 508.77,-31.06 507,-37.83"/>
</a>
</g>
</g>
<!-- Node8 -->
<g id="Node000008" class="node">
<title>Node8</title>
<g id="a_Node000008"><a xlink:href="suika_2src_2core_2game_8c.html#a60c6e2017f72fea6b3cd6aff5c0c983a" target="_top" xlink:title=" ">
<polygon fill="white" stroke="#666666" points="447.5,-56 375.5,-56 375.5,-37 447.5,-37 447.5,-56"/>
<text text-anchor="middle" x="411.5" y="-44" font-family="Helvetica,sans-Serif" font-size="10.00">suika_reset</text>
</a>
</g>
</g>
<!-- Node1&#45;&gt;Node8 -->
<g id="edge7_Node000001_Node000008" class="edge">
<title>Node1&#45;&gt;Node8</title>
<g id="a_edge7_Node000001_Node000008"><a xlink:title=" ">
<path fill="none" stroke="#63b8ff" d="M482.61,-46.5C470.49,-46.5 458.39,-46.5 447.75,-46.5"/>
<polygon fill="#63b8ff" stroke="#63b8ff" points="482.76,-50 492.76,-46.5 482.76,-43 482.76,-50"/>
</a>
</g>
</g>
<!-- Node3 -->
<g id="Node000003" class="node">
<title>Node3</title>
<g id="a_Node000003"><a xlink:href="suika_2src_2core_2game_8c.html#a7a0b1ac9bedc2005a3c73ccbcdd67bd9" target="_top" xlink:title=" ">
<polygon fill="white" stroke="#666666" points="311,-74 230,-74 230,-55 311,-55 311,-74"/>
<text text-anchor="middle" x="270.5" y="-62" font-family="Helvetica,sans-Serif" font-size="10.00">suika_update</text>
</a>
</g>
</g>
<!-- Node2&#45;&gt;Node3 -->
<g id="edge2_Node000002_Node000003" class="edge">
<title>Node2&#45;&gt;Node3</title>
<g id="a_edge2_Node000002_Node000003"><a xlink:title=" ">
<path fill="none" stroke="#63b8ff" d="M355.62,-76C340.72,-73.96 324.87,-71.8 311,-69.9"/>
<polygon fill="#63b8ff" stroke="#63b8ff" points="355.37,-79.5 365.75,-77.38 356.32,-72.56 355.37,-79.5"/>
</a>
</g>
</g>
<!-- Node4 -->
<g id="Node000004" class="node">
<title>Node4</title>
<g id="a_Node000004"><a xlink:href="suikaAPI_8c.html#a7f41358d4fd1808bd05696cf110387bb" target="_top" xlink:title=" ">
<polygon fill="white" stroke="#666666" points="175,-74 77,-74 77,-55 175,-55 175,-74"/>
<text text-anchor="middle" x="126" y="-62" font-family="Helvetica,sans-Serif" font-size="10.00">suika_gameLoop</text>
</a>
</g>
</g>
<!-- Node3&#45;&gt;Node4 -->
<g id="edge3_Node000003_Node000004" class="edge">
<title>Node3&#45;&gt;Node4</title>
<g id="a_edge3_Node000003_Node000004"><a xlink:title=" ">
<path fill="none" stroke="#63b8ff" d="M219.56,-64.5C205.13,-64.5 189.41,-64.5 175.09,-64.5"/>
<polygon fill="#63b8ff" stroke="#63b8ff" points="219.81,-68 229.81,-64.5 219.81,-61 219.81,-68"/>
</a>
</g>
</g>
<!-- Node5 -->
<g id="Node000005" class="node">
<title>Node5</title>
<g id="a_Node000005"><a xlink:href="suika_2src_2main_8c.html#a840291bc02cba5474a4cb46a9b9566fe" target="_top" xlink:title=" ">
<polygon fill="white" stroke="#666666" points="41,-74 0,-74 0,-55 41,-55 41,-74"/>
<text text-anchor="middle" x="20.5" y="-62" font-family="Helvetica,sans-Serif" font-size="10.00">main</text>
</a>
</g>
</g>
<!-- Node4&#45;&gt;Node5 -->
<g id="edge4_Node000004_Node000005" class="edge">
<title>Node4&#45;&gt;Node5</title>
<g id="a_edge4_Node000004_Node000005"><a xlink:title=" ">
<path fill="none" stroke="#63b8ff" d="M66.79,-64.5C57.53,-64.5 48.55,-64.5 41.06,-64.5"/>
<polygon fill="#63b8ff" stroke="#63b8ff" points="66.89,-68 76.89,-64.5 66.89,-61 66.89,-68"/>
</a>
</g>
</g>
<!-- Node7 -->
<g id="Node000007" class="node">
<title>Node7</title>
<g id="a_Node000007"><a xlink:href="suikaAPI_8c.html#ac450b7d8520252d60ebfcb3450ea6bc9" target="_top" xlink:title=" ">
<polygon fill="white" stroke="#666666" points="330,-19 211,-19 211,0 330,0 330,-19"/>
<text text-anchor="middle" x="270.5" y="-7" font-family="Helvetica,sans-Serif" font-size="10.00">suika_initGame__full</text>
</a>
</g>
</g>
<!-- Node6&#45;&gt;Node7 -->
<g id="edge6_Node000006_Node000007" class="edge">
<title>Node6&#45;&gt;Node7</title>
<g id="a_edge6_Node000006_Node000007"><a xlink:title=" ">
<path fill="none" stroke="#63b8ff" d="M369.95,-9.5C357.53,-9.5 343.59,-9.5 330.21,-9.5"/>
<polygon fill="#63b8ff" stroke="#63b8ff" points="370,-13 380,-9.5 370,-6 370,-13"/>
</a>
</g>
</g>
<!-- Node8&#45;&gt;Node3 -->
<g id="edge8_Node000008_Node000003" class="edge">
<title>Node8&#45;&gt;Node3</title>
<g id="a_edge8_Node000008_Node000003"><a xlink:title=" ">
<path fill="none" stroke="#63b8ff" d="M365.5,-52.33C348.1,-54.58 328.37,-57.14 311.48,-59.32"/>
<polygon fill="#63b8ff" stroke="#63b8ff" points="365.96,-55.8 375.42,-51.04 365.06,-48.86 365.96,-55.8"/>
</a>
</g>
</g>
</g>
</svg>
