<?xml version="1.0" encoding="UTF-8" standalone="no"?>
<!DOCTYPE svg PUBLIC "-//W3C//DTD SVG 1.1//EN"
 "http://www.w3.org/Graphics/SVG/1.1/DTD/svg11.dtd">
<!-- Generated by graphviz version 2.43.0 (0)
 -->
<!-- Title: suika_gameLoop Pages: 1 -->
<svg width="760pt" height="327pt"
 viewBox="0.00 0.00 760.00 327.00" xmlns="http://www.w3.org/2000/svg" xmlns:xlink="http://www.w3.org/1999/xlink">
<g id="graph0" class="graph" transform="scale(1 1) rotate(0) translate(4 323)">
<title>suika_gameLoop</title>
<!-- Node1 -->
<g id="Node000001" class="node">
<title>Node1</title>
<g id="a_Node000001"><a xlink:title=" ">
<polygon fill="#999999" stroke="#666666" points="98,-168 0,-168 0,-149 98,-149 98,-168"/>
<text text-anchor="middle" x="49" y="-156" font-family="Helvetica,sans-Serif" font-size="10.00">suika_gameLoop</text>
</a>
</g>
</g>
<!-- Node2 -->
<g id="Node000002" class="node">
<title>Node2</title>
<g id="a_Node000002"><a xlink:href="suika_2src_2core_2game_8c.html#adbc69fd5e984caf25b56d1fb8fcf3ccb" target="_top" xlink:title=" ">
<polygon fill="white" stroke="#666666" points="210,-243 139,-243 139,-224 210,-224 210,-243"/>
<text text-anchor="middle" x="174.5" y="-231" font-family="Helvetica,sans-Serif" font-size="10.00">suika_draw</text>
</a>
</g>
</g>
<!-- Node1&#45;&gt;Node2 -->
<g id="edge1_Node000001_Node000002" class="edge">
<title>Node1&#45;&gt;Node2</title>
<g id="a_edge1_Node000001_Node000002"><a xlink:title=" ">
<path fill="none" stroke="#63b8ff" d="M65.89,-168.15C86.92,-180.92 124.2,-203.56 148.88,-218.55"/>
<polygon fill="#63b8ff" stroke="#63b8ff" points="147.3,-221.69 157.67,-223.89 150.94,-215.7 147.3,-221.69"/>
</a>
</g>
</g>
<!-- Node9 -->
<g id="Node000009" class="node">
<title>Node9</title>
<g id="a_Node000009"><a xlink:href="suika_2src_2core_2game_8c.html#a7a0b1ac9bedc2005a3c73ccbcdd67bd9" target="_top" xlink:title=" ">
<polygon fill="white" stroke="#666666" points="215,-112 134,-112 134,-93 215,-93 215,-112"/>
<text text-anchor="middle" x="174.5" y="-100" font-family="Helvetica,sans-Serif" font-size="10.00">suika_update</text>
</a>
</g>
</g>
<!-- Node1&#45;&gt;Node9 -->
<g id="edge8_Node000001_Node000009" class="edge">
<title>Node1&#45;&gt;Node9</title>
<g id="a_edge8_Node000001_Node000009"><a xlink:title=" ">
<path fill="none" stroke="#63b8ff" d="M71.23,-148.87C91.06,-139.88 120.86,-126.37 143.18,-116.25"/>
<polygon fill="#63b8ff" stroke="#63b8ff" points="144.88,-119.32 152.55,-112 141.99,-112.94 144.88,-119.32"/>
</a>
</g>
</g>
<!-- Node3 -->
<g id="Node000003" class="node">
<title>Node3</title>
<g id="a_Node000003"><a xlink:href="suika_2src_2core_2game_8c.html#a36b79c24a700011f032278fbfd42858b" target="_top" xlink:title=" ">
<polygon fill="white" stroke="#666666" points="396,-319 277,-319 277,-300 396,-300 396,-319"/>
<text text-anchor="middle" x="336.5" y="-307" font-family="Helvetica,sans-Serif" font-size="10.00">suika_drawContainer</text>
</a>
</g>
</g>
<!-- Node2&#45;&gt;Node3 -->
<g id="edge2_Node000002_Node000003" class="edge">
<title>Node2&#45;&gt;Node3</title>
<g id="a_edge2_Node000002_Node000003"><a xlink:title=" ">
<path fill="none" stroke="#63b8ff" d="M187.05,-243.26C201.26,-254.83 226.52,-273.98 251,-285.5 260.62,-290.03 271.27,-293.87 281.67,-297.06"/>
<polygon fill="#63b8ff" stroke="#63b8ff" points="280.95,-300.5 291.53,-299.93 282.9,-293.78 280.95,-300.5"/>
</a>
</g>
</g>
<!-- Node4 -->
<g id="Node000004" class="node">
<title>Node4</title>
<g id="a_Node000004"><a xlink:href="suika_2src_2core_2game_8c.html#a343cf96d1d78e07da4c666b13d0b88d1" target="_top" xlink:title=" ">
<polygon fill="white" stroke="#666666" points="566.5,-262 473.5,-262 473.5,-243 566.5,-243 566.5,-262"/>
<text text-anchor="middle" x="520" y="-250" font-family="Helvetica,sans-Serif" font-size="10.00">suika_drawFruit</text>
</a>
</g>
</g>
<!-- Node2&#45;&gt;Node4 -->
<g id="edge3_Node000002_Node000004" class="edge">
<title>Node2&#45;&gt;Node4</title>
<g id="a_edge3_Node000002_Node000004"><a xlink:title=" ">
<path fill="none" stroke="#63b8ff" d="M206.03,-243.01C219.65,-246.77 235.98,-250.64 251,-252.5 323.88,-261.53 408.76,-259.43 463.14,-256.48"/>
<polygon fill="#63b8ff" stroke="#63b8ff" points="463.48,-259.97 473.27,-255.91 463.08,-252.98 463.48,-259.97"/>
</a>
</g>
</g>
<!-- Node6 -->
<g id="Node000006" class="node">
<title>Node6</title>
<g id="a_Node000006"><a xlink:href="suika_2src_2core_2game_8c.html#ace17611fa8ed663544a3fd503f7d5f8e" target="_top" xlink:title=" ">
<polygon fill="white" stroke="#666666" points="422,-243 251,-243 251,-224 422,-224 422,-243"/>
<text text-anchor="middle" x="336.5" y="-231" font-family="Helvetica,sans-Serif" font-size="10.00">suika_drawGradientBackground</text>
</a>
</g>
</g>
<!-- Node2&#45;&gt;Node6 -->
<g id="edge5_Node000002_Node000006" class="edge">
<title>Node2&#45;&gt;Node6</title>
<g id="a_edge5_Node000002_Node000006"><a xlink:title=" ">
<path fill="none" stroke="#63b8ff" d="M210.22,-233.5C219.51,-233.5 230.01,-233.5 240.88,-233.5"/>
<polygon fill="#63b8ff" stroke="#63b8ff" points="240.95,-237 250.95,-233.5 240.95,-230 240.95,-237"/>
</a>
</g>
</g>
<!-- Node7 -->
<g id="Node000007" class="node">
<title>Node7</title>
<g id="a_Node000007"><a xlink:href="suika_2src_2core_2game_8c.html#a5e95cbe3020dca490d2a6c9323b8e6df" target="_top" xlink:title=" ">
<polygon fill="white" stroke="#666666" points="383.5,-206 289.5,-206 289.5,-187 383.5,-187 383.5,-206"/>
<text text-anchor="middle" x="336.5" y="-194" font-family="Helvetica,sans-Serif" font-size="10.00">suika_drawHUD</text>
</a>
</g>
</g>
<!-- Node2&#45;&gt;Node7 -->
<g id="edge6_Node000002_Node000007" class="edge">
<title>Node2&#45;&gt;Node7</title>
<g id="a_edge6_Node000002_Node000007"><a xlink:title=" ">
<path fill="none" stroke="#63b8ff" d="M210.06,-225.16C222.9,-222.09 237.61,-218.6 251,-215.5 261.21,-213.13 272.13,-210.65 282.61,-208.28"/>
<polygon fill="#63b8ff" stroke="#63b8ff" points="283.5,-211.67 292.49,-206.06 281.96,-204.84 283.5,-211.67"/>
</a>
</g>
</g>
<!-- Node5 -->
<g id="Node000005" class="node">
<title>Node5</title>
<g id="a_Node000005"><a xlink:href="suika_2src_2core_2game_8c.html#a86b0672b7e4006725e25ae8450bbbc22" target="_top" xlink:title=" ">
<polygon fill="white" stroke="#666666" points="752,-131 618,-131 618,-112 752,-112 752,-131"/>
<text text-anchor="middle" x="685" y="-119" font-family="Helvetica,sans-Serif" font-size="10.00">suika_getFruitProperties</text>
</a>
</g>
</g>
<!-- Node4&#45;&gt;Node5 -->
<g id="edge4_Node000004_Node000005" class="edge">
<title>Node4&#45;&gt;Node5</title>
<g id="a_edge4_Node000004_Node000005"><a xlink:title=" ">
<path fill="none" stroke="#63b8ff" d="M538.96,-242.86C551.44,-235.87 568.24,-225.85 582,-215.5 614.31,-191.2 648.1,-158.35 667.54,-138.61"/>
<polygon fill="#63b8ff" stroke="#63b8ff" points="670.24,-140.86 674.72,-131.26 665.23,-135.97 670.24,-140.86"/>
</a>
</g>
</g>
<!-- Node8 -->
<g id="Node000008" class="node">
<title>Node8</title>
<g id="a_Node000008"><a xlink:href="suika_2src_2core_2game_8c.html#a24d71cf760735799444dc3f2d677af08" target="_top" xlink:title=" ">
<polygon fill="white" stroke="#666666" points="569,-206 471,-206 471,-187 569,-187 569,-206"/>
<text text-anchor="middle" x="520" y="-194" font-family="Helvetica,sans-Serif" font-size="10.00">suika_drawPanel</text>
</a>
</g>
</g>
<!-- Node7&#45;&gt;Node8 -->
<g id="edge7_Node000007_Node000008" class="edge">
<title>Node7&#45;&gt;Node8</title>
<g id="a_edge7_Node000007_Node000008"><a xlink:title=" ">
<path fill="none" stroke="#63b8ff" d="M383.77,-196.5C407.22,-196.5 435.93,-196.5 460.85,-196.5"/>
<polygon fill="#63b8ff" stroke="#63b8ff" points="460.91,-200 470.91,-196.5 460.91,-193 460.91,-200"/>
</a>
</g>
</g>
<!-- Node10 -->
<g id="Node000010" class="node">
<title>Node10</title>
<g id="a_Node000010"><a xlink:href="suika_2src_2core_2game_8c.html#a9423928149c1bb3e03f19b5c0638bfea" target="_top" xlink:title=" ">
<polygon fill="white" stroke="#666666" points="400.5,-169 272.5,-169 272.5,-150 400.5,-150 400.5,-169"/>
<text text-anchor="middle" x="336.5" y="-157" font-family="Helvetica,sans-Serif" font-size="10.00">suika_checkGameOver</text>
</a>
</g>
</g>
<!-- Node9&#45;&gt;Node10 -->
<g id="edge9_Node000009_Node000010" class="edge">
<title>Node9&#45;&gt;Node10</title>
<g id="a_edge9_Node000009_Node000010"><a xlink:title=" ">
<path fill="none" stroke="#63b8ff" d="M195.39,-112.08C210.44,-119.11 231.75,-128.59 251,-135.5 262.78,-139.72 275.68,-143.7 287.78,-147.17"/>
<polygon fill="#63b8ff" stroke="#63b8ff" points="287.14,-150.62 297.72,-149.94 289.03,-143.88 287.14,-150.62"/>
</a>
</g>
</g>
<!-- Node11 -->
<g id="Node000011" class="node">
<title>Node11</title>
<g id="a_Node000011"><a xlink:href="suika_2src_2core_2game_8c.html#a006c1d15513718c42bcebdd17d905217" target="_top" xlink:title=" ">
<polygon fill="white" stroke="#666666" points="578,-131 462,-131 462,-112 578,-112 578,-131"/>
<text text-anchor="middle" x="520" y="-119" font-family="Helvetica,sans-Serif" font-size="10.00">suika_checkMerging</text>
</a>
</g>
</g>
<!-- Node9&#45;&gt;Node11 -->
<g id="edge10_Node000009_Node000011" class="edge">
<title>Node9&#45;&gt;Node11</title>
<g id="a_edge10_Node000009_Node000011"><a xlink:title=" ">
<path fill="none" stroke="#63b8ff" d="M215.24,-104.7C273.14,-107.9 381.45,-113.89 451.87,-117.79"/>
<polygon fill="#63b8ff" stroke="#63b8ff" points="451.79,-121.29 461.97,-118.35 452.18,-114.3 451.79,-121.29"/>
</a>
</g>
</g>
<!-- Node12 -->
<g id="Node000012" class="node">
<title>Node12</title>
<g id="a_Node000012"><a xlink:href="suika_2src_2core_2game_8c.html#ab70256256562f42ccedc516b20a20f9d" target="_top" xlink:title=" ">
<polygon fill="white" stroke="#666666" points="382,-93 291,-93 291,-74 382,-74 382,-93"/>
<text text-anchor="middle" x="336.5" y="-81" font-family="Helvetica,sans-Serif" font-size="10.00">suika_dropFruit</text>
</a>
</g>
</g>
<!-- Node9&#45;&gt;Node12 -->
<g id="edge12_Node000009_Node000012" class="edge">
<title>Node9&#45;&gt;Node12</title>
<g id="a_edge12_Node000009_Node000012"><a xlink:title=" ">
<path fill="none" stroke="#63b8ff" d="M215.05,-97.8C234.86,-95.45 259.17,-92.56 280.74,-90"/>
<polygon fill="#63b8ff" stroke="#63b8ff" points="281.24,-93.47 290.76,-88.81 280.42,-86.52 281.24,-93.47"/>
</a>
</g>
</g>
<!-- Node14 -->
<g id="Node000014" class="node">
<title>Node14</title>
<g id="a_Node000014"><a xlink:href="suika_2src_2core_2game_8c.html#a60c6e2017f72fea6b3cd6aff5c0c983a" target="_top" xlink:title=" ">
<polygon fill="white" stroke="#666666" points="372.5,-56 300.5,-56 300.5,-37 372.5,-37 372.5,-56"/>
<text text-anchor="middle" x="336.5" y="-44" font-family="Helvetica,sans-Serif" font-size="10.00">suika_reset</text>
</a>
</g>
</g>
<!-- Node9&#45;&gt;Node14 -->
<g id="edge15_Node000009_Node000014" class="edge">
<title>Node9&#45;&gt;Node14</title>
<g id="a_edge15_Node000009_Node000014"><a xlink:title=" ">
<path fill="none" stroke="#63b8ff" d="M191.46,-92.95C206.39,-84.38 229.54,-72.04 251,-64.5 263.51,-60.1 277.45,-56.6 290.34,-53.89"/>
<polygon fill="#63b8ff" stroke="#63b8ff" points="291.29,-57.27 300.41,-51.89 289.92,-50.41 291.29,-57.27"/>
</a>
</g>
</g>
<!-- Node15 -->
<g id="Node000015" class="node">
<title>Node15</title>
<g id="a_Node000015"><a xlink:href="suika_2src_2core_2game_8c.html#a609d2d138e1d54b2db72fa5b0e9f0640" target="_top" xlink:title=" ">
<polygon fill="white" stroke="#666666" points="395.5,-19 277.5,-19 277.5,0 395.5,0 395.5,-19"/>
<text text-anchor="middle" x="336.5" y="-7" font-family="Helvetica,sans-Serif" font-size="10.00">suika_updatePhysics</text>
</a>
</g>
</g>
<!-- Node9&#45;&gt;Node15 -->
<g id="edge17_Node000009_Node000015" class="edge">
<title>Node9&#45;&gt;Node15</title>
<g id="a_edge17_Node000009_Node000015"><a xlink:title=" ">
<path fill="none" stroke="#63b8ff" d="M182.18,-92.93C194.05,-76.73 220.45,-44.03 251,-27.5 256.16,-24.71 261.71,-22.35 267.41,-20.36"/>
<polygon fill="#63b8ff" stroke="#63b8ff" points="268.61,-23.66 277.11,-17.34 266.53,-16.97 268.61,-23.66"/>
</a>
</g>
</g>
<!-- Node11&#45;&gt;Node5 -->
<g id="edge11_Node000011_Node000005" class="edge">
<title>Node11&#45;&gt;Node5</title>
<g id="a_edge11_Node000011_Node000005"><a xlink:title=" ">
<path fill="none" stroke="#63b8ff" d="M578.01,-121.5C587.55,-121.5 597.58,-121.5 607.51,-121.5"/>
<polygon fill="#63b8ff" stroke="#63b8ff" points="607.8,-125 617.8,-121.5 607.8,-118 607.8,-125"/>
</a>
</g>
</g>
<!-- Node13 -->
<g id="Node000013" class="node">
<title>Node13</title>
<g id="a_Node000013"><a xlink:href="suika_2src_2core_2game_8c.html#afec037471cad5e1f6b2c97811cb98fba" target="_top" xlink:title=" ">
<polygon fill="white" stroke="#666666" points="582,-93 458,-93 458,-74 582,-74 582,-93"/>
<text text-anchor="middle" x="520" y="-81" font-family="Helvetica,sans-Serif" font-size="10.00">suika_spawnNextFruit</text>
</a>
</g>
</g>
<!-- Node12&#45;&gt;Node13 -->
<g id="edge13_Node000012_Node000013" class="edge">
<title>Node12&#45;&gt;Node13</title>
<g id="a_edge13_Node000012_Node000013"><a xlink:title=" ">
<path fill="none" stroke="#63b8ff" d="M382.37,-83.5C402.12,-83.5 425.81,-83.5 447.87,-83.5"/>
<polygon fill="#63b8ff" stroke="#63b8ff" points="447.88,-87 457.88,-83.5 447.88,-80 447.88,-87"/>
</a>
</g>
</g>
<!-- Node13&#45;&gt;Node5 -->
<g id="edge14_Node000013_Node000005" class="edge">
<title>Node13&#45;&gt;Node5</title>
<g id="a_edge14_Node000013_Node000005"><a xlink:title=" ">
<path fill="none" stroke="#63b8ff" d="M562.13,-93.09C583.74,-98.13 610.41,-104.34 633.29,-109.68"/>
<polygon fill="#63b8ff" stroke="#63b8ff" points="632.63,-113.12 643.16,-111.98 634.22,-106.3 632.63,-113.12"/>
</a>
</g>
</g>
<!-- Node14&#45;&gt;Node13 -->
<g id="edge16_Node000014_Node000013" class="edge">
<title>Node14&#45;&gt;Node13</title>
<g id="a_edge16_Node000014_Node000013"><a xlink:title=" ">
<path fill="none" stroke="#63b8ff" d="M372.93,-53.72C398.3,-58.9 433.02,-65.97 462.23,-71.93"/>
<polygon fill="#63b8ff" stroke="#63b8ff" points="461.82,-75.41 472.32,-73.98 463.22,-68.56 461.82,-75.41"/>
</a>
</g>
</g>
</g>
</svg>
