<?xml version="1.0" encoding="UTF-8" standalone="no"?>
<!DOCTYPE svg PUBLIC "-//W3C//DTD SVG 1.1//EN"
 "http://www.w3.org/Graphics/SVG/1.1/DTD/svg11.dtd">
<!-- Generated by graphviz version 2.43.0 (0)
 -->
<!-- Title: suika_initGame__full Pages: 1 -->
<svg width="630pt" height="175pt"
 viewBox="0.00 0.00 630.00 175.00" xmlns="http://www.w3.org/2000/svg" xmlns:xlink="http://www.w3.org/1999/xlink">
<g id="graph0" class="graph" transform="scale(1 1) rotate(0) translate(4 171)">
<title>suika_initGame__full</title>
<!-- Node1 -->
<g id="Node000001" class="node">
<title>Node1</title>
<g id="a_Node000001"><a xlink:title=" ">
<polygon fill="#999999" stroke="#666666" points="119,-93 0,-93 0,-74 119,-74 119,-93"/>
<text text-anchor="middle" x="59.5" y="-81" font-family="Helvetica,sans-Serif" font-size="10.00">suika_initGame__full</text>
</a>
</g>
</g>
<!-- Node2 -->
<g id="Node000002" class="node">
<title>Node2</title>
<g id="a_Node000002"><a xlink:href="suikaAPI_8c.html#aff3cec501f43ca3e7c322b5ca97c44cb" target="_top" xlink:title=" ">
<polygon fill="white" stroke="#666666" points="292,-130 155,-130 155,-111 292,-111 292,-130"/>
<text text-anchor="middle" x="223.5" y="-118" font-family="Helvetica,sans-Serif" font-size="10.00">suika_freeGameWrapper</text>
</a>
</g>
</g>
<!-- Node1&#45;&gt;Node2 -->
<g id="edge1_Node000001_Node000002" class="edge">
<title>Node1&#45;&gt;Node2</title>
<g id="a_edge1_Node000001_Node000002"><a xlink:title=" ">
<path fill="none" stroke="#63b8ff" d="M102.22,-93.03C123.11,-97.8 148.61,-103.62 170.74,-108.68"/>
<polygon fill="#63b8ff" stroke="#63b8ff" points="170.11,-112.13 180.64,-110.94 171.67,-105.3 170.11,-112.13"/>
</a>
</g>
</g>
<!-- Node6 -->
<g id="Node000006" class="node">
<title>Node6</title>
<g id="a_Node000006"><a xlink:href="suika_2src_2core_2game_8c.html#aadb299b4e95e8d52aefee09419239169" target="_top" xlink:title=" ">
<polygon fill="white" stroke="#666666" points="255,-93 192,-93 192,-74 255,-74 255,-93"/>
<text text-anchor="middle" x="223.5" y="-81" font-family="Helvetica,sans-Serif" font-size="10.00">suika_init</text>
</a>
</g>
</g>
<!-- Node1&#45;&gt;Node6 -->
<g id="edge5_Node000001_Node000006" class="edge">
<title>Node1&#45;&gt;Node6</title>
<g id="a_edge5_Node000001_Node000006"><a xlink:title=" ">
<path fill="none" stroke="#63b8ff" d="M119.44,-83.5C140.05,-83.5 162.73,-83.5 181.54,-83.5"/>
<polygon fill="#63b8ff" stroke="#63b8ff" points="181.57,-87 191.57,-83.5 181.57,-80 181.57,-87"/>
</a>
</g>
</g>
<!-- Node9 -->
<g id="Node000009" class="node">
<title>Node9</title>
<g id="a_Node000009"><a xlink:href="suika_2src_2core_2game_8c.html#aadc3a73ad1716ed7df2bac51d52cd3a6" target="_top" xlink:title=" ">
<polygon fill="white" stroke="#666666" points="274,-56 173,-56 173,-37 274,-37 274,-56"/>
<text text-anchor="middle" x="223.5" y="-44" font-family="Helvetica,sans-Serif" font-size="10.00">suika_loadAssets</text>
</a>
</g>
</g>
<!-- Node1&#45;&gt;Node9 -->
<g id="edge8_Node000001_Node000009" class="edge">
<title>Node1&#45;&gt;Node9</title>
<g id="a_edge8_Node000001_Node000009"><a xlink:title=" ">
<path fill="none" stroke="#63b8ff" d="M102.22,-73.97C123.11,-69.2 148.61,-63.38 170.74,-58.32"/>
<polygon fill="#63b8ff" stroke="#63b8ff" points="171.67,-61.7 180.64,-56.06 170.11,-54.87 171.67,-61.7"/>
</a>
</g>
</g>
<!-- Node3 -->
<g id="Node000003" class="node">
<title>Node3</title>
<g id="a_Node000003"><a xlink:href="suikaAPI_8c.html#aecb4b1a7bc34dd49f6177e568b8af6db" target="_top" xlink:title=" ">
<polygon fill="white" stroke="#666666" points="438,-130 342,-130 342,-111 438,-111 438,-130"/>
<text text-anchor="middle" x="390" y="-118" font-family="Helvetica,sans-Serif" font-size="10.00">suika_freeGame</text>
</a>
</g>
</g>
<!-- Node2&#45;&gt;Node3 -->
<g id="edge2_Node000002_Node000003" class="edge">
<title>Node2&#45;&gt;Node3</title>
<g id="a_edge2_Node000002_Node000003"><a xlink:title=" ">
<path fill="none" stroke="#63b8ff" d="M292.36,-120.5C305.49,-120.5 319.12,-120.5 331.86,-120.5"/>
<polygon fill="#63b8ff" stroke="#63b8ff" points="331.87,-124 341.87,-120.5 331.87,-117 331.87,-124"/>
</a>
</g>
</g>
<!-- Node4 -->
<g id="Node000004" class="node">
<title>Node4</title>
<g id="a_Node000004"><a xlink:href="suika_2src_2core_2game_8c.html#a8e2bb340c87ef243428ea8ec4f00533c" target="_top" xlink:title=" ">
<polygon fill="white" stroke="#666666" points="598,-167 512,-167 512,-148 598,-148 598,-167"/>
<text text-anchor="middle" x="555" y="-155" font-family="Helvetica,sans-Serif" font-size="10.00">suika_cleanup</text>
</a>
</g>
</g>
<!-- Node3&#45;&gt;Node4 -->
<g id="edge3_Node000003_Node000004" class="edge">
<title>Node3&#45;&gt;Node4</title>
<g id="a_edge3_Node000003_Node000004"><a xlink:title=" ">
<path fill="none" stroke="#63b8ff" d="M432.98,-130.03C454,-134.8 479.65,-140.62 501.92,-145.68"/>
<polygon fill="#63b8ff" stroke="#63b8ff" points="501.36,-149.14 511.88,-147.94 502.91,-142.31 501.36,-149.14"/>
</a>
</g>
</g>
<!-- Node5 -->
<g id="Node000005" class="node">
<title>Node5</title>
<g id="a_Node000005"><a xlink:href="suika_2src_2core_2game_8c.html#af97e86e3c48a7eab9ec13a2309e0fbcd" target="_top" xlink:title=" ">
<polygon fill="white" stroke="#666666" points="611.5,-130 498.5,-130 498.5,-111 611.5,-111 611.5,-130"/>
<text text-anchor="middle" x="555" y="-118" font-family="Helvetica,sans-Serif" font-size="10.00">suika_unloadAssets</text>
</a>
</g>
</g>
<!-- Node3&#45;&gt;Node5 -->
<g id="edge4_Node000003_Node000005" class="edge">
<title>Node3&#45;&gt;Node5</title>
<g id="a_edge4_Node000003_Node000005"><a xlink:title=" ">
<path fill="none" stroke="#63b8ff" d="M438.15,-120.5C453.72,-120.5 471.34,-120.5 488.05,-120.5"/>
<polygon fill="#63b8ff" stroke="#63b8ff" points="488.32,-124 498.32,-120.5 488.32,-117 488.32,-124"/>
</a>
</g>
</g>
<!-- Node7 -->
<g id="Node000007" class="node">
<title>Node7</title>
<g id="a_Node000007"><a xlink:href="suika_2src_2core_2game_8c.html#afec037471cad5e1f6b2c97811cb98fba" target="_top" xlink:title=" ">
<polygon fill="white" stroke="#666666" points="452,-93 328,-93 328,-74 452,-74 452,-93"/>
<text text-anchor="middle" x="390" y="-81" font-family="Helvetica,sans-Serif" font-size="10.00">suika_spawnNextFruit</text>
</a>
</g>
</g>
<!-- Node6&#45;&gt;Node7 -->
<g id="edge6_Node000006_Node000007" class="edge">
<title>Node6&#45;&gt;Node7</title>
<g id="a_edge6_Node000006_Node000007"><a xlink:title=" ">
<path fill="none" stroke="#63b8ff" d="M255.06,-83.5C272.78,-83.5 295.9,-83.5 317.92,-83.5"/>
<polygon fill="#63b8ff" stroke="#63b8ff" points="317.94,-87 327.94,-83.5 317.94,-80 317.94,-87"/>
</a>
</g>
</g>
<!-- Node8 -->
<g id="Node000008" class="node">
<title>Node8</title>
<g id="a_Node000008"><a xlink:href="suika_2src_2core_2game_8c.html#a86b0672b7e4006725e25ae8450bbbc22" target="_top" xlink:title=" ">
<polygon fill="white" stroke="#666666" points="622,-93 488,-93 488,-74 622,-74 622,-93"/>
<text text-anchor="middle" x="555" y="-81" font-family="Helvetica,sans-Serif" font-size="10.00">suika_getFruitProperties</text>
</a>
</g>
</g>
<!-- Node7&#45;&gt;Node8 -->
<g id="edge7_Node000007_Node000008" class="edge">
<title>Node7&#45;&gt;Node8</title>
<g id="a_edge7_Node000007_Node000008"><a xlink:title=" ">
<path fill="none" stroke="#63b8ff" d="M452.16,-83.5C460.53,-83.5 469.22,-83.5 477.82,-83.5"/>
<polygon fill="#63b8ff" stroke="#63b8ff" points="477.86,-87 487.86,-83.5 477.86,-80 477.86,-87"/>
</a>
</g>
</g>
<!-- Node10 -->
<g id="Node000010" class="node">
<title>Node10</title>
<g id="a_Node000010"><a xlink:href="suika_2src_2core_2game_8c.html#acac643f20a62d9edac6b6ab6d62b1db1" target="_top" xlink:title=" ">
<polygon fill="white" stroke="#666666" points="445.5,-56 334.5,-56 334.5,-37 445.5,-37 445.5,-56"/>
<text text-anchor="middle" x="390" y="-44" font-family="Helvetica,sans-Serif" font-size="10.00">suika_getAssetPath</text>
</a>
</g>
</g>
<!-- Node9&#45;&gt;Node10 -->
<g id="edge9_Node000009_Node000010" class="edge">
<title>Node9&#45;&gt;Node10</title>
<g id="a_edge9_Node000009_Node000010"><a xlink:title=" ">
<path fill="none" stroke="#63b8ff" d="M274.3,-46.5C290.04,-46.5 307.67,-46.5 324.3,-46.5"/>
<polygon fill="#63b8ff" stroke="#63b8ff" points="324.49,-50 334.49,-46.5 324.49,-43 324.49,-50"/>
</a>
</g>
</g>
<!-- Node11 -->
<g id="Node000011" class="node">
<title>Node11</title>
<g id="a_Node000011"><a xlink:href="suika_2src_2core_2game_8c.html#a2110c40d1e102d67712c645b1cae2afe" target="_top" xlink:title=" ">
<polygon fill="white" stroke="#666666" points="442,-19 338,-19 338,0 442,0 442,-19"/>
<text text-anchor="middle" x="390" y="-7" font-family="Helvetica,sans-Serif" font-size="10.00">suika_loadTexture</text>
</a>
</g>
</g>
<!-- Node9&#45;&gt;Node11 -->
<g id="edge10_Node000009_Node000011" class="edge">
<title>Node9&#45;&gt;Node11</title>
<g id="a_edge10_Node000009_Node000011"><a xlink:title=" ">
<path fill="none" stroke="#63b8ff" d="M266.86,-36.97C288.08,-32.2 313.97,-26.38 336.44,-21.32"/>
<polygon fill="#63b8ff" stroke="#63b8ff" points="337.51,-24.67 346.5,-19.06 335.97,-17.84 337.51,-24.67"/>
</a>
</g>
</g>
</g>
</svg>
