<?xml version="1.0" encoding="UTF-8" standalone="no"?>
<!DOCTYPE svg PUBLIC "-//W3C//DTD SVG 1.1//EN"
 "http://www.w3.org/Graphics/SVG/1.1/DTD/svg11.dtd">
<!-- Generated by graphviz version 2.43.0 (0)
 -->
<!-- Title: main Pages: 1 -->
<svg width="869pt" height="327pt"
 viewBox="0.00 0.00 869.00 327.00" xmlns="http://www.w3.org/2000/svg" xmlns:xlink="http://www.w3.org/1999/xlink">
<g id="graph0" class="graph" transform="scale(1 1) rotate(0) translate(4 323)">
<title>main</title>
<!-- Node1 -->
<g id="Node000001" class="node">
<title>Node1</title>
<g id="a_Node000001"><a xlink:title=" ">
<polygon fill="#999999" stroke="#666666" points="41,-261 0,-261 0,-242 41,-242 41,-261"/>
<text text-anchor="middle" x="20.5" y="-249" font-family="Helvetica,sans-Serif" font-size="10.00">main</text>
</a>
</g>
</g>
<!-- Node2 -->
<g id="Node000002" class="node">
<title>Node2</title>
<g id="a_Node000002"><a xlink:href="suikaAPI_8c.html#aecb4b1a7bc34dd49f6177e568b8af6db" target="_top" xlink:title=" ">
<polygon fill="white" stroke="#666666" points="174,-280 78,-280 78,-261 174,-261 174,-280"/>
<text text-anchor="middle" x="126" y="-268" font-family="Helvetica,sans-Serif" font-size="10.00">suika_freeGame</text>
</a>
</g>
</g>
<!-- Node1&#45;&gt;Node2 -->
<g id="edge1_Node000001_Node000002" class="edge">
<title>Node1&#45;&gt;Node2</title>
<g id="a_edge1_Node000001_Node000002"><a xlink:title=" ">
<path fill="none" stroke="#63b8ff" d="M41.46,-255.16C49.13,-256.57 58.32,-258.26 67.77,-259.99"/>
<polygon fill="#63b8ff" stroke="#63b8ff" points="67.17,-263.44 77.64,-261.81 68.44,-256.56 67.17,-263.44"/>
</a>
</g>
</g>
<!-- Node5 -->
<g id="Node000005" class="node">
<title>Node5</title>
<g id="a_Node000005"><a xlink:href="suikaAPI_8c.html#a7f41358d4fd1808bd05696cf110387bb" target="_top" xlink:title=" ">
<polygon fill="white" stroke="#666666" points="175,-243 77,-243 77,-224 175,-224 175,-243"/>
<text text-anchor="middle" x="126" y="-231" font-family="Helvetica,sans-Serif" font-size="10.00">suika_gameLoop</text>
</a>
</g>
</g>
<!-- Node1&#45;&gt;Node5 -->
<g id="edge4_Node000001_Node000005" class="edge">
<title>Node1&#45;&gt;Node5</title>
<g id="a_edge4_Node000001_Node000005"><a xlink:title=" ">
<path fill="none" stroke="#63b8ff" d="M41.46,-248.03C48.88,-246.74 57.72,-245.2 66.83,-243.62"/>
<polygon fill="#63b8ff" stroke="#63b8ff" points="67.52,-247.05 76.77,-241.89 66.32,-240.15 67.52,-247.05"/>
</a>
</g>
</g>
<!-- Node3 -->
<g id="Node000003" class="node">
<title>Node3</title>
<g id="a_Node000003"><a xlink:href="suika_2src_2core_2game_8c.html#a8e2bb340c87ef243428ea8ec4f00533c" target="_top" xlink:title=" ">
<polygon fill="white" stroke="#666666" points="310.5,-317 224.5,-317 224.5,-298 310.5,-298 310.5,-317"/>
<text text-anchor="middle" x="267.5" y="-305" font-family="Helvetica,sans-Serif" font-size="10.00">suika_cleanup</text>
</a>
</g>
</g>
<!-- Node2&#45;&gt;Node3 -->
<g id="edge2_Node000002_Node000003" class="edge">
<title>Node2&#45;&gt;Node3</title>
<g id="a_edge2_Node000002_Node000003"><a xlink:title=" ">
<path fill="none" stroke="#63b8ff" d="M162.92,-280.03C180.44,-284.67 201.72,-290.32 220.42,-295.28"/>
<polygon fill="#63b8ff" stroke="#63b8ff" points="219.65,-298.69 230.21,-297.88 221.44,-291.93 219.65,-298.69"/>
</a>
</g>
</g>
<!-- Node4 -->
<g id="Node000004" class="node">
<title>Node4</title>
<g id="a_Node000004"><a xlink:href="suika_2src_2core_2game_8c.html#af97e86e3c48a7eab9ec13a2309e0fbcd" target="_top" xlink:title=" ">
<polygon fill="white" stroke="#666666" points="324,-280 211,-280 211,-261 324,-261 324,-280"/>
<text text-anchor="middle" x="267.5" y="-268" font-family="Helvetica,sans-Serif" font-size="10.00">suika_unloadAssets</text>
</a>
</g>
</g>
<!-- Node2&#45;&gt;Node4 -->
<g id="edge3_Node000002_Node000004" class="edge">
<title>Node2&#45;&gt;Node4</title>
<g id="a_edge3_Node000002_Node000004"><a xlink:title=" ">
<path fill="none" stroke="#63b8ff" d="M174.23,-270.5C182.64,-270.5 191.53,-270.5 200.35,-270.5"/>
<polygon fill="#63b8ff" stroke="#63b8ff" points="200.64,-274 210.64,-270.5 200.64,-267 200.64,-274"/>
</a>
</g>
</g>
<!-- Node6 -->
<g id="Node000006" class="node">
<title>Node6</title>
<g id="a_Node000006"><a xlink:href="suika_2src_2core_2game_8c.html#adbc69fd5e984caf25b56d1fb8fcf3ccb" target="_top" xlink:title=" ">
<polygon fill="white" stroke="#666666" points="303,-243 232,-243 232,-224 303,-224 303,-243"/>
<text text-anchor="middle" x="267.5" y="-231" font-family="Helvetica,sans-Serif" font-size="10.00">suika_draw</text>
</a>
</g>
</g>
<!-- Node5&#45;&gt;Node6 -->
<g id="edge5_Node000005_Node000006" class="edge">
<title>Node5&#45;&gt;Node6</title>
<g id="a_edge5_Node000005_Node000006"><a xlink:title=" ">
<path fill="none" stroke="#63b8ff" d="M175.01,-233.5C189.98,-233.5 206.43,-233.5 221.2,-233.5"/>
<polygon fill="#63b8ff" stroke="#63b8ff" points="221.62,-237 231.62,-233.5 221.62,-230 221.62,-237"/>
</a>
</g>
</g>
<!-- Node13 -->
<g id="Node000013" class="node">
<title>Node13</title>
<g id="a_Node000013"><a xlink:href="suika_2src_2core_2game_8c.html#a7a0b1ac9bedc2005a3c73ccbcdd67bd9" target="_top" xlink:title=" ">
<polygon fill="white" stroke="#666666" points="308,-112 227,-112 227,-93 308,-93 308,-112"/>
<text text-anchor="middle" x="267.5" y="-100" font-family="Helvetica,sans-Serif" font-size="10.00">suika_update</text>
</a>
</g>
</g>
<!-- Node5&#45;&gt;Node13 -->
<g id="edge12_Node000005_Node000013" class="edge">
<title>Node5&#45;&gt;Node13</title>
<g id="a_edge12_Node000005_Node000013"><a xlink:title=" ">
<path fill="none" stroke="#63b8ff" d="M137.49,-223.65C161.23,-201.35 219.34,-146.79 248.78,-119.14"/>
<polygon fill="#63b8ff" stroke="#63b8ff" points="251.38,-121.5 256.27,-112.1 246.59,-116.4 251.38,-121.5"/>
</a>
</g>
</g>
<!-- Node7 -->
<g id="Node000007" class="node">
<title>Node7</title>
<g id="a_Node000007"><a xlink:href="suika_2src_2core_2game_8c.html#a36b79c24a700011f032278fbfd42858b" target="_top" xlink:title=" ">
<polygon fill="white" stroke="#666666" points="505,-319 386,-319 386,-300 505,-300 505,-319"/>
<text text-anchor="middle" x="445.5" y="-307" font-family="Helvetica,sans-Serif" font-size="10.00">suika_drawContainer</text>
</a>
</g>
</g>
<!-- Node6&#45;&gt;Node7 -->
<g id="edge6_Node000006_Node000007" class="edge">
<title>Node6&#45;&gt;Node7</title>
<g id="a_edge6_Node000006_Node000007"><a xlink:title=" ">
<path fill="none" stroke="#63b8ff" d="M303.24,-242.93C310.35,-245.53 317.61,-248.7 324,-252.5 342.66,-263.58 341.05,-274.92 360,-285.5 368.12,-290.03 377.16,-293.77 386.22,-296.83"/>
<polygon fill="#63b8ff" stroke="#63b8ff" points="385.44,-300.25 396.03,-299.89 387.53,-293.57 385.44,-300.25"/>
</a>
</g>
</g>
<!-- Node8 -->
<g id="Node000008" class="node">
<title>Node8</title>
<g id="a_Node000008"><a xlink:href="suika_2src_2core_2game_8c.html#a343cf96d1d78e07da4c666b13d0b88d1" target="_top" xlink:title=" ">
<polygon fill="white" stroke="#666666" points="675.5,-262 582.5,-262 582.5,-243 675.5,-243 675.5,-262"/>
<text text-anchor="middle" x="629" y="-250" font-family="Helvetica,sans-Serif" font-size="10.00">suika_drawFruit</text>
</a>
</g>
</g>
<!-- Node6&#45;&gt;Node8 -->
<g id="edge7_Node000006_Node000008" class="edge">
<title>Node6&#45;&gt;Node8</title>
<g id="a_edge7_Node000006_Node000008"><a xlink:title=" ">
<path fill="none" stroke="#63b8ff" d="M303.43,-242.51C320.38,-246.42 341.12,-250.56 360,-252.5 433.05,-260 517.89,-258.26 572.22,-255.81"/>
<polygon fill="#63b8ff" stroke="#63b8ff" points="572.51,-259.3 582.33,-255.33 572.18,-252.31 572.51,-259.3"/>
</a>
</g>
</g>
<!-- Node10 -->
<g id="Node000010" class="node">
<title>Node10</title>
<g id="a_Node000010"><a xlink:href="suika_2src_2core_2game_8c.html#ace17611fa8ed663544a3fd503f7d5f8e" target="_top" xlink:title=" ">
<polygon fill="white" stroke="#666666" points="531,-243 360,-243 360,-224 531,-224 531,-243"/>
<text text-anchor="middle" x="445.5" y="-231" font-family="Helvetica,sans-Serif" font-size="10.00">suika_drawGradientBackground</text>
</a>
</g>
</g>
<!-- Node6&#45;&gt;Node10 -->
<g id="edge9_Node000006_Node000010" class="edge">
<title>Node6&#45;&gt;Node10</title>
<g id="a_edge9_Node000006_Node000010"><a xlink:title=" ">
<path fill="none" stroke="#63b8ff" d="M303.27,-233.5C316.79,-233.5 333,-233.5 349.54,-233.5"/>
<polygon fill="#63b8ff" stroke="#63b8ff" points="349.86,-237 359.86,-233.5 349.86,-230 349.86,-237"/>
</a>
</g>
</g>
<!-- Node11 -->
<g id="Node000011" class="node">
<title>Node11</title>
<g id="a_Node000011"><a xlink:href="suika_2src_2core_2game_8c.html#a5e95cbe3020dca490d2a6c9323b8e6df" target="_top" xlink:title=" ">
<polygon fill="white" stroke="#666666" points="492.5,-206 398.5,-206 398.5,-187 492.5,-187 492.5,-206"/>
<text text-anchor="middle" x="445.5" y="-194" font-family="Helvetica,sans-Serif" font-size="10.00">suika_drawHUD</text>
</a>
</g>
</g>
<!-- Node6&#45;&gt;Node11 -->
<g id="edge10_Node000006_Node000011" class="edge">
<title>Node6&#45;&gt;Node11</title>
<g id="a_edge10_Node000006_Node000011"><a xlink:title=" ">
<path fill="none" stroke="#63b8ff" d="M303.27,-226.19C327.72,-221.05 360.94,-214.07 389.03,-208.16"/>
<polygon fill="#63b8ff" stroke="#63b8ff" points="390.05,-211.52 399.11,-206.04 388.61,-204.67 390.05,-211.52"/>
</a>
</g>
</g>
<!-- Node9 -->
<g id="Node000009" class="node">
<title>Node9</title>
<g id="a_Node000009"><a xlink:href="suika_2src_2core_2game_8c.html#a86b0672b7e4006725e25ae8450bbbc22" target="_top" xlink:title=" ">
<polygon fill="white" stroke="#666666" points="861,-131 727,-131 727,-112 861,-112 861,-131"/>
<text text-anchor="middle" x="794" y="-119" font-family="Helvetica,sans-Serif" font-size="10.00">suika_getFruitProperties</text>
</a>
</g>
</g>
<!-- Node8&#45;&gt;Node9 -->
<g id="edge8_Node000008_Node000009" class="edge">
<title>Node8&#45;&gt;Node9</title>
<g id="a_edge8_Node000008_Node000009"><a xlink:title=" ">
<path fill="none" stroke="#63b8ff" d="M647.96,-242.86C660.44,-235.87 677.24,-225.85 691,-215.5 723.31,-191.2 757.1,-158.35 776.54,-138.61"/>
<polygon fill="#63b8ff" stroke="#63b8ff" points="779.24,-140.86 783.72,-131.26 774.23,-135.97 779.24,-140.86"/>
</a>
</g>
</g>
<!-- Node12 -->
<g id="Node000012" class="node">
<title>Node12</title>
<g id="a_Node000012"><a xlink:href="suika_2src_2core_2game_8c.html#a24d71cf760735799444dc3f2d677af08" target="_top" xlink:title=" ">
<polygon fill="white" stroke="#666666" points="678,-206 580,-206 580,-187 678,-187 678,-206"/>
<text text-anchor="middle" x="629" y="-194" font-family="Helvetica,sans-Serif" font-size="10.00">suika_drawPanel</text>
</a>
</g>
</g>
<!-- Node11&#45;&gt;Node12 -->
<g id="edge11_Node000011_Node000012" class="edge">
<title>Node11&#45;&gt;Node12</title>
<g id="a_edge11_Node000011_Node000012"><a xlink:title=" ">
<path fill="none" stroke="#63b8ff" d="M492.77,-196.5C516.22,-196.5 544.93,-196.5 569.85,-196.5"/>
<polygon fill="#63b8ff" stroke="#63b8ff" points="569.91,-200 579.91,-196.5 569.91,-193 569.91,-200"/>
</a>
</g>
</g>
<!-- Node14 -->
<g id="Node000014" class="node">
<title>Node14</title>
<g id="a_Node000014"><a xlink:href="suika_2src_2core_2game_8c.html#a9423928149c1bb3e03f19b5c0638bfea" target="_top" xlink:title=" ">
<polygon fill="white" stroke="#666666" points="509.5,-169 381.5,-169 381.5,-150 509.5,-150 509.5,-169"/>
<text text-anchor="middle" x="445.5" y="-157" font-family="Helvetica,sans-Serif" font-size="10.00">suika_checkGameOver</text>
</a>
</g>
</g>
<!-- Node13&#45;&gt;Node14 -->
<g id="edge13_Node000013_Node000014" class="edge">
<title>Node13&#45;&gt;Node14</title>
<g id="a_edge13_Node000013_Node000014"><a xlink:title=" ">
<path fill="none" stroke="#63b8ff" d="M293.58,-112.08C311.88,-118.93 337.33,-128.2 360,-135.5 372.49,-139.52 386.12,-143.55 398.72,-147.12"/>
<polygon fill="#63b8ff" stroke="#63b8ff" points="397.99,-150.55 408.56,-149.89 399.88,-143.81 397.99,-150.55"/>
</a>
</g>
</g>
<!-- Node15 -->
<g id="Node000015" class="node">
<title>Node15</title>
<g id="a_Node000015"><a xlink:href="suika_2src_2core_2game_8c.html#a006c1d15513718c42bcebdd17d905217" target="_top" xlink:title=" ">
<polygon fill="white" stroke="#666666" points="687,-131 571,-131 571,-112 687,-112 687,-131"/>
<text text-anchor="middle" x="629" y="-119" font-family="Helvetica,sans-Serif" font-size="10.00">suika_checkMerging</text>
</a>
</g>
</g>
<!-- Node13&#45;&gt;Node15 -->
<g id="edge14_Node000013_Node000015" class="edge">
<title>Node13&#45;&gt;Node15</title>
<g id="a_edge14_Node000013_Node000015"><a xlink:title=" ">
<path fill="none" stroke="#63b8ff" d="M308,-104.59C368.8,-107.8 486.06,-114 560.5,-117.93"/>
<polygon fill="#63b8ff" stroke="#63b8ff" points="560.54,-121.44 570.71,-118.47 560.91,-114.45 560.54,-121.44"/>
</a>
</g>
</g>
<!-- Node16 -->
<g id="Node000016" class="node">
<title>Node16</title>
<g id="a_Node000016"><a xlink:href="suika_2src_2core_2game_8c.html#ab70256256562f42ccedc516b20a20f9d" target="_top" xlink:title=" ">
<polygon fill="white" stroke="#666666" points="491,-93 400,-93 400,-74 491,-74 491,-93"/>
<text text-anchor="middle" x="445.5" y="-81" font-family="Helvetica,sans-Serif" font-size="10.00">suika_dropFruit</text>
</a>
</g>
</g>
<!-- Node13&#45;&gt;Node16 -->
<g id="edge16_Node000013_Node000016" class="edge">
<title>Node13&#45;&gt;Node16</title>
<g id="a_edge16_Node000013_Node000016"><a xlink:title=" ">
<path fill="none" stroke="#63b8ff" d="M308.44,-98.19C332.43,-95.6 363.31,-92.27 389.58,-89.43"/>
<polygon fill="#63b8ff" stroke="#63b8ff" points="390.2,-92.88 399.77,-88.33 389.45,-85.92 390.2,-92.88"/>
</a>
</g>
</g>
<!-- Node18 -->
<g id="Node000018" class="node">
<title>Node18</title>
<g id="a_Node000018"><a xlink:href="suika_2src_2core_2game_8c.html#a60c6e2017f72fea6b3cd6aff5c0c983a" target="_top" xlink:title=" ">
<polygon fill="white" stroke="#666666" points="481.5,-56 409.5,-56 409.5,-37 481.5,-37 481.5,-56"/>
<text text-anchor="middle" x="445.5" y="-44" font-family="Helvetica,sans-Serif" font-size="10.00">suika_reset</text>
</a>
</g>
</g>
<!-- Node13&#45;&gt;Node18 -->
<g id="edge19_Node000013_Node000018" class="edge">
<title>Node13&#45;&gt;Node18</title>
<g id="a_edge19_Node000013_Node000018"><a xlink:title=" ">
<path fill="none" stroke="#63b8ff" d="M288.46,-92.96C306.73,-84.52 334.71,-72.37 360,-64.5 372.54,-60.6 386.4,-57.26 399.19,-54.55"/>
<polygon fill="#63b8ff" stroke="#63b8ff" points="400.08,-57.94 409.18,-52.52 398.69,-51.08 400.08,-57.94"/>
</a>
</g>
</g>
<!-- Node19 -->
<g id="Node000019" class="node">
<title>Node19</title>
<g id="a_Node000019"><a xlink:href="suika_2src_2core_2game_8c.html#a609d2d138e1d54b2db72fa5b0e9f0640" target="_top" xlink:title=" ">
<polygon fill="white" stroke="#666666" points="504.5,-19 386.5,-19 386.5,0 504.5,0 504.5,-19"/>
<text text-anchor="middle" x="445.5" y="-7" font-family="Helvetica,sans-Serif" font-size="10.00">suika_updatePhysics</text>
</a>
</g>
</g>
<!-- Node13&#45;&gt;Node19 -->
<g id="edge21_Node000013_Node000019" class="edge">
<title>Node13&#45;&gt;Node19</title>
<g id="a_edge21_Node000013_Node000019"><a xlink:title=" ">
<path fill="none" stroke="#63b8ff" d="M277.07,-92.98C292.17,-76.84 325.2,-44.24 360,-27.5 365.28,-24.96 370.92,-22.78 376.68,-20.9"/>
<polygon fill="#63b8ff" stroke="#63b8ff" points="377.86,-24.2 386.46,-18.02 375.88,-17.49 377.86,-24.2"/>
</a>
</g>
</g>
<!-- Node15&#45;&gt;Node9 -->
<g id="edge15_Node000015_Node000009" class="edge">
<title>Node15&#45;&gt;Node9</title>
<g id="a_edge15_Node000015_Node000009"><a xlink:title=" ">
<path fill="none" stroke="#63b8ff" d="M687.01,-121.5C696.55,-121.5 706.58,-121.5 716.51,-121.5"/>
<polygon fill="#63b8ff" stroke="#63b8ff" points="716.8,-125 726.8,-121.5 716.8,-118 716.8,-125"/>
</a>
</g>
</g>
<!-- Node17 -->
<g id="Node000017" class="node">
<title>Node17</title>
<g id="a_Node000017"><a xlink:href="suika_2src_2core_2game_8c.html#afec037471cad5e1f6b2c97811cb98fba" target="_top" xlink:title=" ">
<polygon fill="white" stroke="#666666" points="691,-93 567,-93 567,-74 691,-74 691,-93"/>
<text text-anchor="middle" x="629" y="-81" font-family="Helvetica,sans-Serif" font-size="10.00">suika_spawnNextFruit</text>
</a>
</g>
</g>
<!-- Node16&#45;&gt;Node17 -->
<g id="edge17_Node000016_Node000017" class="edge">
<title>Node16&#45;&gt;Node17</title>
<g id="a_edge17_Node000016_Node000017"><a xlink:title=" ">
<path fill="none" stroke="#63b8ff" d="M491.37,-83.5C511.12,-83.5 534.81,-83.5 556.87,-83.5"/>
<polygon fill="#63b8ff" stroke="#63b8ff" points="556.88,-87 566.88,-83.5 556.88,-80 556.88,-87"/>
</a>
</g>
</g>
<!-- Node17&#45;&gt;Node9 -->
<g id="edge18_Node000017_Node000009" class="edge">
<title>Node17&#45;&gt;Node9</title>
<g id="a_edge18_Node000017_Node000009"><a xlink:title=" ">
<path fill="none" stroke="#63b8ff" d="M671.13,-93.09C692.74,-98.13 719.41,-104.34 742.29,-109.68"/>
<polygon fill="#63b8ff" stroke="#63b8ff" points="741.63,-113.12 752.16,-111.98 743.22,-106.3 741.63,-113.12"/>
</a>
</g>
</g>
<!-- Node18&#45;&gt;Node17 -->
<g id="edge20_Node000018_Node000017" class="edge">
<title>Node18&#45;&gt;Node17</title>
<g id="a_edge20_Node000018_Node000017"><a xlink:title=" ">
<path fill="none" stroke="#63b8ff" d="M481.93,-53.72C507.3,-58.9 542.02,-65.97 571.23,-71.93"/>
<polygon fill="#63b8ff" stroke="#63b8ff" points="570.82,-75.41 581.32,-73.98 572.22,-68.56 570.82,-75.41"/>
</a>
</g>
</g>
</g>
</svg>
