<?xml version="1.0" encoding="UTF-8" standalone="no"?>
<!DOCTYPE svg PUBLIC "-//W3C//DTD SVG 1.1//EN"
 "http://www.w3.org/Graphics/SVG/1.1/DTD/svg11.dtd">
<!-- Generated by graphviz version 2.43.0 (0)
 -->
<!-- Title: suika_update Pages: 1 -->
<svg width="583pt" height="177pt"
 viewBox="0.00 0.00 583.00 177.00" xmlns="http://www.w3.org/2000/svg" xmlns:xlink="http://www.w3.org/1999/xlink">
<g id="graph0" class="graph" transform="scale(1 1) rotate(0) translate(4 173)">
<title>suika_update</title>
<!-- Node1 -->
<g id="Node000001" class="node">
<title>Node1</title>
<g id="a_Node000001"><a xlink:title=" ">
<polygon fill="#999999" stroke="#666666" points="81,-93 0,-93 0,-74 81,-74 81,-93"/>
<text text-anchor="middle" x="40.5" y="-81" font-family="Helvetica,sans-Serif" font-size="10.00">suika_update</text>
</a>
</g>
</g>
<!-- Node2 -->
<g id="Node000002" class="node">
<title>Node2</title>
<g id="a_Node000002"><a xlink:href="suika_2src_2core_2game_8c.html#a9423928149c1bb3e03f19b5c0638bfea" target="_top" xlink:title=" ">
<polygon fill="white" stroke="#666666" points="245,-169 117,-169 117,-150 245,-150 245,-169"/>
<text text-anchor="middle" x="181" y="-157" font-family="Helvetica,sans-Serif" font-size="10.00">suika_checkGameOver</text>
</a>
</g>
</g>
<!-- Node1&#45;&gt;Node2 -->
<g id="edge1_Node000001_Node000002" class="edge">
<title>Node1&#45;&gt;Node2</title>
<g id="a_edge1_Node000001_Node000002"><a xlink:title=" ">
<path fill="none" stroke="#63b8ff" d="M53.48,-93.1C67.91,-104.34 93.19,-122.99 117,-135.5 124.6,-139.49 133.01,-143.16 141.15,-146.37"/>
<polygon fill="#63b8ff" stroke="#63b8ff" points="139.92,-149.65 150.51,-149.92 142.4,-143.1 139.92,-149.65"/>
</a>
</g>
</g>
<!-- Node3 -->
<g id="Node000003" class="node">
<title>Node3</title>
<g id="a_Node000003"><a xlink:href="suika_2src_2core_2game_8c.html#a006c1d15513718c42bcebdd17d905217" target="_top" xlink:title=" ">
<polygon fill="white" stroke="#666666" points="401,-130 285,-130 285,-111 401,-111 401,-130"/>
<text text-anchor="middle" x="343" y="-118" font-family="Helvetica,sans-Serif" font-size="10.00">suika_checkMerging</text>
</a>
</g>
</g>
<!-- Node1&#45;&gt;Node3 -->
<g id="edge2_Node000001_Node000003" class="edge">
<title>Node1&#45;&gt;Node3</title>
<g id="a_edge2_Node000001_Node000003"><a xlink:title=" ">
<path fill="none" stroke="#63b8ff" d="M74.33,-93.03C87.49,-96.51 102.86,-100.17 117,-102.5 169.55,-111.15 229.72,-115.69 274.61,-118.05"/>
<polygon fill="#63b8ff" stroke="#63b8ff" points="274.65,-121.55 284.81,-118.56 275,-114.56 274.65,-121.55"/>
</a>
</g>
</g>
<!-- Node5 -->
<g id="Node000005" class="node">
<title>Node5</title>
<g id="a_Node000005"><a xlink:href="suika_2src_2core_2game_8c.html#ab70256256562f42ccedc516b20a20f9d" target="_top" xlink:title=" ">
<polygon fill="white" stroke="#666666" points="226.5,-93 135.5,-93 135.5,-74 226.5,-74 226.5,-93"/>
<text text-anchor="middle" x="181" y="-81" font-family="Helvetica,sans-Serif" font-size="10.00">suika_dropFruit</text>
</a>
</g>
</g>
<!-- Node1&#45;&gt;Node5 -->
<g id="edge4_Node000001_Node000005" class="edge">
<title>Node1&#45;&gt;Node5</title>
<g id="a_edge4_Node000001_Node000005"><a xlink:title=" ">
<path fill="none" stroke="#63b8ff" d="M81.19,-83.5C94.96,-83.5 110.65,-83.5 125.4,-83.5"/>
<polygon fill="#63b8ff" stroke="#63b8ff" points="125.44,-87 135.44,-83.5 125.44,-80 125.44,-87"/>
</a>
</g>
</g>
<!-- Node7 -->
<g id="Node000007" class="node">
<title>Node7</title>
<g id="a_Node000007"><a xlink:href="suika_2src_2core_2game_8c.html#a60c6e2017f72fea6b3cd6aff5c0c983a" target="_top" xlink:title=" ">
<polygon fill="white" stroke="#666666" points="217,-56 145,-56 145,-37 217,-37 217,-56"/>
<text text-anchor="middle" x="181" y="-44" font-family="Helvetica,sans-Serif" font-size="10.00">suika_reset</text>
</a>
</g>
</g>
<!-- Node1&#45;&gt;Node7 -->
<g id="edge7_Node000001_Node000007" class="edge">
<title>Node1&#45;&gt;Node7</title>
<g id="a_edge7_Node000001_Node000007"><a xlink:title=" ">
<path fill="none" stroke="#63b8ff" d="M77.17,-73.97C94.83,-69.25 116.34,-63.51 135.11,-58.49"/>
<polygon fill="#63b8ff" stroke="#63b8ff" points="136.18,-61.83 144.93,-55.87 134.37,-55.07 136.18,-61.83"/>
</a>
</g>
</g>
<!-- Node8 -->
<g id="Node000008" class="node">
<title>Node8</title>
<g id="a_Node000008"><a xlink:href="suika_2src_2core_2game_8c.html#a609d2d138e1d54b2db72fa5b0e9f0640" target="_top" xlink:title=" ">
<polygon fill="white" stroke="#666666" points="240,-19 122,-19 122,0 240,0 240,-19"/>
<text text-anchor="middle" x="181" y="-7" font-family="Helvetica,sans-Serif" font-size="10.00">suika_updatePhysics</text>
</a>
</g>
</g>
<!-- Node1&#45;&gt;Node8 -->
<g id="edge9_Node000001_Node000008" class="edge">
<title>Node1&#45;&gt;Node8</title>
<g id="a_edge9_Node000001_Node000008"><a xlink:title=" ">
<path fill="none" stroke="#63b8ff" d="M51.94,-73.81C65.81,-61.42 91.53,-40.06 117,-27.5 120.79,-25.63 124.8,-23.93 128.9,-22.38"/>
<polygon fill="#63b8ff" stroke="#63b8ff" points="130.23,-25.62 138.53,-19.04 127.93,-19.01 130.23,-25.62"/>
</a>
</g>
</g>
<!-- Node4 -->
<g id="Node000004" class="node">
<title>Node4</title>
<g id="a_Node000004"><a xlink:href="suika_2src_2core_2game_8c.html#a86b0672b7e4006725e25ae8450bbbc22" target="_top" xlink:title=" ">
<polygon fill="white" stroke="#666666" points="575,-111 441,-111 441,-92 575,-92 575,-111"/>
<text text-anchor="middle" x="508" y="-99" font-family="Helvetica,sans-Serif" font-size="10.00">suika_getFruitProperties</text>
</a>
</g>
</g>
<!-- Node3&#45;&gt;Node4 -->
<g id="edge3_Node000003_Node000004" class="edge">
<title>Node3&#45;&gt;Node4</title>
<g id="a_edge3_Node000003_Node000004"><a xlink:title=" ">
<path fill="none" stroke="#63b8ff" d="M401.01,-113.85C410.65,-112.73 420.79,-111.55 430.83,-110.38"/>
<polygon fill="#63b8ff" stroke="#63b8ff" points="431.28,-113.85 440.8,-109.22 430.47,-106.9 431.28,-113.85"/>
</a>
</g>
</g>
<!-- Node6 -->
<g id="Node000006" class="node">
<title>Node6</title>
<g id="a_Node000006"><a xlink:href="suika_2src_2core_2game_8c.html#afec037471cad5e1f6b2c97811cb98fba" target="_top" xlink:title=" ">
<polygon fill="white" stroke="#666666" points="405,-93 281,-93 281,-74 405,-74 405,-93"/>
<text text-anchor="middle" x="343" y="-81" font-family="Helvetica,sans-Serif" font-size="10.00">suika_spawnNextFruit</text>
</a>
</g>
</g>
<!-- Node5&#45;&gt;Node6 -->
<g id="edge5_Node000005_Node000006" class="edge">
<title>Node5&#45;&gt;Node6</title>
<g id="a_edge5_Node000005_Node000006"><a xlink:title=" ">
<path fill="none" stroke="#63b8ff" d="M226.57,-83.5C240.24,-83.5 255.65,-83.5 270.64,-83.5"/>
<polygon fill="#63b8ff" stroke="#63b8ff" points="270.93,-87 280.93,-83.5 270.93,-80 270.93,-87"/>
</a>
</g>
</g>
<!-- Node6&#45;&gt;Node4 -->
<g id="edge6_Node000006_Node000004" class="edge">
<title>Node6&#45;&gt;Node4</title>
<g id="a_edge6_Node000006_Node000004"><a xlink:title=" ">
<path fill="none" stroke="#63b8ff" d="M405.16,-90.25C413.53,-91.18 422.22,-92.14 430.82,-93.09"/>
<polygon fill="#63b8ff" stroke="#63b8ff" points="430.53,-96.58 440.86,-94.2 431.3,-89.62 430.53,-96.58"/>
</a>
</g>
</g>
<!-- Node7&#45;&gt;Node6 -->
<g id="edge8_Node000007_Node000006" class="edge">
<title>Node7&#45;&gt;Node6</title>
<g id="a_edge8_Node000007_Node000006"><a xlink:title=" ">
<path fill="none" stroke="#63b8ff" d="M217.11,-54.62C238.68,-59.61 266.69,-66.09 290.72,-71.64"/>
<polygon fill="#63b8ff" stroke="#63b8ff" points="290.21,-75.12 300.74,-73.96 291.79,-68.3 290.21,-75.12"/>
</a>
</g>
</g>
</g>
</svg>
