<?xml version="1.0" encoding="UTF-8" standalone="no"?>
<!DOCTYPE svg PUBLIC "-//W3C//DTD SVG 1.1//EN"
 "http://www.w3.org/Graphics/SVG/1.1/DTD/svg11.dtd">
<!-- Generated by graphviz version 2.43.0 (0)
 -->
<!-- Title: suika_getFruitProperties Pages: 1 -->
<!--zoomable 157 -->

<svg id="main" version="1.1" xmlns="http://www.w3.org/2000/svg" xmlns:xlink="http://www.w3.org/1999/xlink" xml:space="preserve" onload="init(evt)">
<style type="text/css"><![CDATA[
.node, .edge {opacity: 0.7;}
.node.selected, .edge.selected {opacity: 1;}
.edge:hover path { stroke: red; }
.edge:hover polygon { stroke: red; fill: red; }
]]></style>

<defs>
  <circle id="rim" cx="0" cy="0" r="7"/>
  <circle id="rim2" cx="0" cy="0" r="3.5"/>
  <g id="zoomPlus">
    <use xlink:href="#rim" fill="#404040"><set attributeName="fill" to="#808080" begin="zoomplus.mouseover" end="zoomplus.mouseout"/></use>
    <path d="M-4,0h8M0,-4v8" fill="none" stroke="white" stroke-width="1.5" pointer-events="none"/>
  </g>
  <g id="zoomMin">
    <use xlink:href="#rim" fill="#404040"><set attributeName="fill" to="#808080" begin="zoomminus.mouseover" end="zoomminus.mouseout"/></use>
    <path d="M-4,0h8" fill="none" stroke="white" stroke-width="1.5" pointer-events="none"/>
  </g>
  <g id="arrowUp" transform="translate(30 24)">
    <use xlink:href="#rim"/>
    <path pointer-events="none" fill="none" stroke="white" stroke-width="1.5" d="M0,-3.0v7 M-2.5,-0.5L0,-3.0L2.5,-0.5"/>
  </g>
  <g id="arrowRight" transform="rotate(90) translate(36 -43)">
    <use xlink:href="#rim"/>
    <path pointer-events="none" fill="none" stroke="white" stroke-width="1.5" d="M0,-3.0v7 M-2.5,-0.5L0,-3.0L2.5,-0.5"/>
  </g>
  <g id="arrowDown" transform="rotate(180) translate(-30 -48)">
    <use xlink:href="#rim"/>
    <path pointer-events="none" fill="none" stroke="white" stroke-width="1.5" d="M0,-3.0v7 M-2.5,-0.5L0,-3.0L2.5,-0.5"/>
  </g>
  <g id="arrowLeft" transform="rotate(270) translate(-36 17)">
    <use xlink:href="#rim"/>
    <path pointer-events="none" fill="none" stroke="white" stroke-width="1.5" d="M0,-3.0v7 M-2.5,-0.5L0,-3.0L2.5,-0.5"/>
  </g>
  <g id="resetDef">
    <use xlink:href="#rim2" fill="#404040"><set attributeName="fill" to="#808080" begin="reset.mouseover" end="reset.mouseout"/></use>
  </g>
</defs>
<script type="application/ecmascript">
var viewWidth = 795;
var viewHeight = 157;
var sectionId = 'dynsection-17';
</script>
<script type="application/ecmascript" xlink:href="svg.min.js"/>
<svg id="graph" class="graph">
<g id="viewport">
<title>suika_getFruitProperties</title>
<!-- Node1 -->
<g id="Node000001" class="node">
<title>Node1</title>
<g id="a_Node000001"><a xlink:title=" ">
<polygon fill="#999999" stroke="#666666" points="787,-93 653,-93 653,-74 787,-74 787,-93"/>
<text text-anchor="middle" x="720" y="-81" font-family="Helvetica,sans-Serif" font-size="10.00">suika_getFruitProperties</text>
</a>
</g>
</g>
<!-- Node2 -->
<g id="Node000002" class="node">
<title>Node2</title>
<g id="a_Node000002"><a xlink:href="suika_2src_2core_2game_8c.html#a006c1d15513718c42bcebdd17d905217" target="_top" xlink:title=" ">
<polygon fill="white" stroke="#666666" points="613,-149 497,-149 497,-130 613,-130 613,-149"/>
<text text-anchor="middle" x="555" y="-137" font-family="Helvetica,sans-Serif" font-size="10.00">suika_checkMerging</text>
</a>
</g>
</g>
<!-- Node1&#45;&gt;Node2 -->
<g id="edge1_Node000001_Node000002" class="edge">
<title>Node1&#45;&gt;Node2</title>
<g id="a_edge1_Node000001_Node000002"><a xlink:title=" ">
<path fill="none" stroke="#63b8ff" d="M681.33,-96.44C651.5,-106.69 610.51,-120.77 583.66,-130"/>
<polygon fill="#63b8ff" stroke="#63b8ff" points="682.66,-99.69 690.98,-93.13 680.38,-93.07 682.66,-99.69"/>
</a>
</g>
</g>
<!-- Node6 -->
<g id="Node000006" class="node">
<title>Node6</title>
<g id="a_Node000006"><a xlink:href="suika_2src_2core_2game_8c.html#a343cf96d1d78e07da4c666b13d0b88d1" target="_top" xlink:title=" ">
<polygon fill="white" stroke="#666666" points="601.5,-37 508.5,-37 508.5,-18 601.5,-18 601.5,-37"/>
<text text-anchor="middle" x="555" y="-25" font-family="Helvetica,sans-Serif" font-size="10.00">suika_drawFruit</text>
</a>
</g>
</g>
<!-- Node1&#45;&gt;Node6 -->
<g id="edge5_Node000001_Node000006" class="edge">
<title>Node1&#45;&gt;Node6</title>
<g id="a_edge5_Node000001_Node000006"><a xlink:title=" ">
<path fill="none" stroke="#63b8ff" d="M681.33,-70.56C651.5,-60.31 610.51,-46.23 583.66,-37"/>
<polygon fill="#63b8ff" stroke="#63b8ff" points="680.38,-73.93 690.98,-73.87 682.66,-67.31 680.38,-73.93"/>
</a>
</g>
</g>
<!-- Node8 -->
<g id="Node000008" class="node">
<title>Node8</title>
<g id="a_Node000008"><a xlink:href="suika_2src_2core_2game_8c.html#afec037471cad5e1f6b2c97811cb98fba" target="_top" xlink:title=" ">
<polygon fill="white" stroke="#666666" points="617,-93 493,-93 493,-74 617,-74 617,-93"/>
<text text-anchor="middle" x="555" y="-81" font-family="Helvetica,sans-Serif" font-size="10.00">suika_spawnNextFruit</text>
</a>
</g>
</g>
<!-- Node1&#45;&gt;Node8 -->
<g id="edge8_Node000001_Node000008" class="edge">
<title>Node1&#45;&gt;Node8</title>
<g id="a_edge8_Node000001_Node000008"><a xlink:title=" ">
<path fill="none" stroke="#63b8ff" d="M642.45,-83.5C634,-83.5 625.48,-83.5 617.25,-83.5"/>
<polygon fill="#63b8ff" stroke="#63b8ff" points="642.7,-87 652.7,-83.5 642.7,-80 642.7,-87"/>
</a>
</g>
</g>
<!-- Node3 -->
<g id="Node000003" class="node">
<title>Node3</title>
<g id="a_Node000003"><a xlink:href="suika_2src_2core_2game_8c.html#a7a0b1ac9bedc2005a3c73ccbcdd67bd9" target="_top" xlink:title=" ">
<polygon fill="white" stroke="#666666" points="311,-111 230,-111 230,-92 311,-92 311,-111"/>
<text text-anchor="middle" x="270.5" y="-99" font-family="Helvetica,sans-Serif" font-size="10.00">suika_update</text>
</a>
</g>
</g>
<!-- Node2&#45;&gt;Node3 -->
<g id="edge2_Node000002_Node000003" class="edge">
<title>Node2&#45;&gt;Node3</title>
<g id="a_edge2_Node000002_Node000003"><a xlink:title=" ">
<path fill="none" stroke="#63b8ff" d="M486.3,-145.68C450.26,-147.43 405.37,-147.12 366,-139.5 338.05,-134.09 307.88,-120.46 289.33,-111.08"/>
<polygon fill="#63b8ff" stroke="#63b8ff" points="486.9,-149.15 496.7,-145.11 486.52,-142.16 486.9,-149.15"/>
</a>
</g>
</g>
<!-- Node4 -->
<g id="Node000004" class="node">
<title>Node4</title>
<g id="a_Node000004"><a xlink:href="suikaAPI_8c.html#a7f41358d4fd1808bd05696cf110387bb" target="_top" xlink:title=" ">
<polygon fill="white" stroke="#666666" points="175,-56 77,-56 77,-37 175,-37 175,-56"/>
<text text-anchor="middle" x="126" y="-44" font-family="Helvetica,sans-Serif" font-size="10.00">suika_gameLoop</text>
</a>
</g>
</g>
<!-- Node3&#45;&gt;Node4 -->
<g id="edge3_Node000003_Node000004" class="edge">
<title>Node3&#45;&gt;Node4</title>
<g id="a_edge3_Node000003_Node000004"><a xlink:title=" ">
<path fill="none" stroke="#63b8ff" d="M235.32,-88.31C209.67,-78.41 175.13,-65.08 152.02,-56.16"/>
<polygon fill="#63b8ff" stroke="#63b8ff" points="234.09,-91.58 244.68,-91.92 236.61,-85.05 234.09,-91.58"/>
</a>
</g>
</g>
<!-- Node5 -->
<g id="Node000005" class="node">
<title>Node5</title>
<g id="a_Node000005"><a xlink:href="suika_2src_2main_8c.html#a840291bc02cba5474a4cb46a9b9566fe" target="_top" xlink:title=" ">
<polygon fill="white" stroke="#666666" points="41,-56 0,-56 0,-37 41,-37 41,-56"/>
<text text-anchor="middle" x="20.5" y="-44" font-family="Helvetica,sans-Serif" font-size="10.00">main</text>
</a>
</g>
</g>
<!-- Node4&#45;&gt;Node5 -->
<g id="edge4_Node000004_Node000005" class="edge">
<title>Node4&#45;&gt;Node5</title>
<g id="a_edge4_Node000004_Node000005"><a xlink:title=" ">
<path fill="none" stroke="#63b8ff" d="M66.79,-46.5C57.53,-46.5 48.55,-46.5 41.06,-46.5"/>
<polygon fill="#63b8ff" stroke="#63b8ff" points="66.89,-50 76.89,-46.5 66.89,-43 66.89,-50"/>
</a>
</g>
</g>
<!-- Node7 -->
<g id="Node000007" class="node">
<title>Node7</title>
<g id="a_Node000007"><a xlink:href="suika_2src_2core_2game_8c.html#adbc69fd5e984caf25b56d1fb8fcf3ccb" target="_top" xlink:title=" ">
<polygon fill="white" stroke="#666666" points="306,-19 235,-19 235,0 306,0 306,-19"/>
<text text-anchor="middle" x="270.5" y="-7" font-family="Helvetica,sans-Serif" font-size="10.00">suika_draw</text>
</a>
</g>
</g>
<!-- Node6&#45;&gt;Node7 -->
<g id="edge6_Node000006_Node000007" class="edge">
<title>Node6&#45;&gt;Node7</title>
<g id="a_edge6_Node000006_Node000007"><a xlink:title=" ">
<path fill="none" stroke="#63b8ff" d="M497.98,-23.93C440.79,-20.29 353.83,-14.75 306.01,-11.7"/>
<polygon fill="#63b8ff" stroke="#63b8ff" points="498.1,-27.44 508.3,-24.59 498.54,-20.46 498.1,-27.44"/>
</a>
</g>
</g>
<!-- Node7&#45;&gt;Node4 -->
<g id="edge7_Node000007_Node000004" class="edge">
<title>Node7&#45;&gt;Node4</title>
<g id="a_edge7_Node000007_Node000004"><a xlink:title=" ">
<path fill="none" stroke="#63b8ff" d="M224.7,-21.13C205.08,-26.23 182.34,-32.13 163.74,-36.96"/>
<polygon fill="#63b8ff" stroke="#63b8ff" points="225.84,-24.45 234.64,-18.55 224.08,-17.68 225.84,-24.45"/>
</a>
</g>
</g>
<!-- Node9 -->
<g id="Node000009" class="node">
<title>Node9</title>
<g id="a_Node000009"><a xlink:href="suika_2src_2core_2game_8c.html#ab70256256562f42ccedc516b20a20f9d" target="_top" xlink:title=" ">
<polygon fill="white" stroke="#666666" points="457,-93 366,-93 366,-74 457,-74 457,-93"/>
<text text-anchor="middle" x="411.5" y="-81" font-family="Helvetica,sans-Serif" font-size="10.00">suika_dropFruit</text>
</a>
</g>
</g>
<!-- Node8&#45;&gt;Node9 -->
<g id="edge9_Node000008_Node000009" class="edge">
<title>Node8&#45;&gt;Node9</title>
<g id="a_edge9_Node000008_Node000009"><a xlink:title=" ">
<path fill="none" stroke="#63b8ff" d="M482.62,-83.5C473.96,-83.5 465.31,-83.5 457.2,-83.5"/>
<polygon fill="#63b8ff" stroke="#63b8ff" points="482.76,-87 492.76,-83.5 482.76,-80 482.76,-87"/>
</a>
</g>
</g>
<!-- Node10 -->
<g id="Node000010" class="node">
<title>Node10</title>
<g id="a_Node000010"><a xlink:href="suika_2src_2core_2game_8c.html#aadb299b4e95e8d52aefee09419239169" target="_top" xlink:title=" ">
<polygon fill="white" stroke="#666666" points="443,-56 380,-56 380,-37 443,-37 443,-56"/>
<text text-anchor="middle" x="411.5" y="-44" font-family="Helvetica,sans-Serif" font-size="10.00">suika_init</text>
</a>
</g>
</g>
<!-- Node8&#45;&gt;Node10 -->
<g id="edge11_Node000008_Node000010" class="edge">
<title>Node8&#45;&gt;Node10</title>
<g id="a_edge11_Node000008_Node000010"><a xlink:title=" ">
<path fill="none" stroke="#63b8ff" d="M507.76,-71.41C486.54,-65.86 461.95,-59.43 443.08,-54.49"/>
<polygon fill="#63b8ff" stroke="#63b8ff" points="507,-74.83 517.56,-73.97 508.77,-68.06 507,-74.83"/>
</a>
</g>
</g>
<!-- Node12 -->
<g id="Node000012" class="node">
<title>Node12</title>
<g id="a_Node000012"><a xlink:href="suika_2src_2core_2game_8c.html#a60c6e2017f72fea6b3cd6aff5c0c983a" target="_top" xlink:title=" ">
<polygon fill="white" stroke="#666666" points="447.5,-130 375.5,-130 375.5,-111 447.5,-111 447.5,-130"/>
<text text-anchor="middle" x="411.5" y="-118" font-family="Helvetica,sans-Serif" font-size="10.00">suika_reset</text>
</a>
</g>
</g>
<!-- Node8&#45;&gt;Node12 -->
<g id="edge13_Node000008_Node000012" class="edge">
<title>Node8&#45;&gt;Node12</title>
<g id="a_edge13_Node000008_Node000012"><a xlink:title=" ">
<path fill="none" stroke="#63b8ff" d="M507.68,-95.61C488.21,-100.7 465.94,-106.53 447.84,-111.26"/>
<polygon fill="#63b8ff" stroke="#63b8ff" points="508.77,-98.94 517.56,-93.03 507,-92.17 508.77,-98.94"/>
</a>
</g>
</g>
<!-- Node9&#45;&gt;Node3 -->
<g id="edge10_Node000009_Node000003" class="edge">
<title>Node9&#45;&gt;Node3</title>
<g id="a_edge10_Node000009_Node000003"><a xlink:title=" ">
<path fill="none" stroke="#63b8ff" d="M355.62,-90.61C340.72,-92.54 324.87,-94.59 311,-96.38"/>
<polygon fill="#63b8ff" stroke="#63b8ff" points="356.29,-94.05 365.75,-89.29 355.39,-87.11 356.29,-94.05"/>
</a>
</g>
</g>
<!-- Node11 -->
<g id="Node000011" class="node">
<title>Node11</title>
<g id="a_Node000011"><a xlink:href="suikaAPI_8c.html#ac450b7d8520252d60ebfcb3450ea6bc9" target="_top" xlink:title=" ">
<polygon fill="white" stroke="#666666" points="330,-56 211,-56 211,-37 330,-37 330,-56"/>
<text text-anchor="middle" x="270.5" y="-44" font-family="Helvetica,sans-Serif" font-size="10.00">suika_initGame__full</text>
</a>
</g>
</g>
<!-- Node10&#45;&gt;Node11 -->
<g id="edge12_Node000010_Node000011" class="edge">
<title>Node10&#45;&gt;Node11</title>
<g id="a_edge12_Node000010_Node000011"><a xlink:title=" ">
<path fill="none" stroke="#63b8ff" d="M369.95,-46.5C357.53,-46.5 343.59,-46.5 330.21,-46.5"/>
<polygon fill="#63b8ff" stroke="#63b8ff" points="370,-50 380,-46.5 370,-43 370,-50"/>
</a>
</g>
</g>
<!-- Node12&#45;&gt;Node3 -->
<g id="edge14_Node000012_Node000003" class="edge">
<title>Node12&#45;&gt;Node3</title>
<g id="a_edge14_Node000012_Node000003"><a xlink:title=" ">
<path fill="none" stroke="#63b8ff" d="M365.5,-114.35C348.1,-111.97 328.37,-109.27 311.48,-106.97"/>
<polygon fill="#63b8ff" stroke="#63b8ff" points="365.04,-117.82 375.42,-115.71 365.99,-110.88 365.04,-117.82"/>
</a>
</g>
</g>
</g>
</svg>

<g id="navigator" transform="translate(0 0)" fill="#404254">
  <rect fill="#f2f5e9" fill-opacity="0.5" stroke="#606060" stroke-width=".5" x="0" y="0" width="60" height="60"/>
  <use id="zoomplus" xlink:href="#zoomPlus" x="17" y="9" onmousedown="handleZoom(evt,'in')"/>
  <use id="zoomminus" xlink:href="#zoomMin" x="42" y="9" onmousedown="handleZoom(evt,'out')"/>
  <use id="reset" xlink:href="#resetDef" x="30" y="36" onmousedown="handleReset()"/>
   <use id="arrowup" xlink:href="#arrowUp" x="0" y="0" onmousedown="handlePan(0,-1)"/>
  <use id="arrowright" xlink:href="#arrowRight" x="0" y="0" onmousedown="handlePan(1,0)"/>
  <use id="arrowdown" xlink:href="#arrowDown" x="0" y="0" onmousedown="handlePan(0,1)"/>
  <use id="arrowleft" xlink:href="#arrowLeft" x="0" y="0" onmousedown="handlePan(-1,0)"/>
</g>
<svg viewBox="0 0 15 15" width="100%" height="30px" preserveAspectRatio="xMaxYMin meet">
 <g id="arrow_out" transform="scale(0.3 0.3)">
  <a xlink:href="suika_2src_2core_2game_8c_a86b0672b7e4006725e25ae8450bbbc22_icgraph_org.svg" target="_base">
   <rect id="button" ry="5" rx="5" y="6" x="6" height="38" width="38"
        fill="#f2f5e9" fill-opacity="0.5" stroke="#606060" stroke-width="1.0"/>
   <path id="arrow"
     d="M 11.500037,31.436501 C 11.940474,20.09759 22.043105,11.32322 32.158766,21.979434 L 37.068811,17.246167 C 37.068811,17.246167 37.088388,32 37.088388,32 L 22.160133,31.978069 C 22.160133,31.978069 26.997745,27.140456 26.997745,27.140456 C 18.528582,18.264221 13.291696,25.230495 11.500037,31.436501 z"
     style="fill:#404040;"/>
  </a>
 </g>
</svg>

<style type='text/css'>
<![CDATA[
[data-mouse-over-selected='false'] { opacity: 0.7; }
[data-mouse-over-selected='true']  { opacity: 1.0; }
]]>
</style>
<script type="application/ecmascript"><![CDATA[
document.addEventListener('DOMContentLoaded', (event) => {
  highlightEdges();
  highlightAdjacentNodes();
});
]]></script>
</svg>
