<?xml version="1.0" encoding="UTF-8" standalone="no"?>
<!DOCTYPE svg PUBLIC "-//W3C//DTD SVG 1.1//EN"
 "http://www.w3.org/Graphics/SVG/1.1/DTD/svg11.dtd">
<!-- Generated by graphviz version 2.43.0 (0)
 -->
<!-- Title: suika/src/core/game.c Pages: 1 -->
<svg width="728pt" height="137pt"
 viewBox="0.00 0.00 727.50 137.00" xmlns="http://www.w3.org/2000/svg" xmlns:xlink="http://www.w3.org/1999/xlink">
<g id="graph0" class="graph" transform="scale(1 1) rotate(0) translate(4 133)">
<title>suika/src/core/game.c</title>
<!-- Node1 -->
<g id="Node000001" class="node">
<title>Node1</title>
<g id="a_Node000001"><a xlink:title="Core Suika game logic with sprite atlas support.">
<polygon fill="#999999" stroke="#666666" points="254.5,-129 132.5,-129 132.5,-110 254.5,-110 254.5,-129"/>
<text text-anchor="middle" x="193.5" y="-117" font-family="Helvetica,sans-Serif" font-size="10.00">suika/src/core/game.c</text>
</a>
</g>
</g>
<!-- Node2 -->
<g id="Node000002" class="node">
<title>Node2</title>
<g id="a_Node000002"><a xlink:title=" ">
<polygon fill="#e0e0e0" stroke="#999999" points="77,-74 0,-74 0,-55 77,-55 77,-74"/>
<text text-anchor="middle" x="38.5" y="-62" font-family="Helvetica,sans-Serif" font-size="10.00">core/game.h</text>
</a>
</g>
</g>
<!-- Node1&#45;&gt;Node2 -->
<g id="edge1_Node000001_Node000002" class="edge">
<title>Node1&#45;&gt;Node2</title>
<g id="a_edge1_Node000001_Node000002"><a xlink:title=" ">
<path fill="none" stroke="#63b8ff" d="M168.6,-109.98C142.8,-101.16 102.28,-87.31 73.32,-77.41"/>
<polygon fill="#63b8ff" stroke="#63b8ff" points="74.19,-74.01 63.6,-74.08 71.93,-80.63 74.19,-74.01"/>
</a>
</g>
</g>
<!-- Node3 -->
<g id="Node000003" class="node">
<title>Node3</title>
<g id="a_Node000003"><a xlink:title=" ">
<polygon fill="#e0e0e0" stroke="#999999" points="146,-74 95,-74 95,-55 146,-55 146,-74"/>
<text text-anchor="middle" x="120.5" y="-62" font-family="Helvetica,sans-Serif" font-size="10.00">math.h</text>
</a>
</g>
</g>
<!-- Node1&#45;&gt;Node3 -->
<g id="edge2_Node000001_Node000003" class="edge">
<title>Node1&#45;&gt;Node3</title>
<g id="a_edge2_Node000001_Node000003"><a xlink:title=" ">
<path fill="none" stroke="#63b8ff" d="M181.77,-109.98C170.77,-102 154.08,-89.88 140.9,-80.31"/>
<polygon fill="#63b8ff" stroke="#63b8ff" points="142.59,-77.21 132.44,-74.17 138.48,-82.88 142.59,-77.21"/>
</a>
</g>
</g>
<!-- Node4 -->
<g id="Node000004" class="node">
<title>Node4</title>
<g id="a_Node000004"><a xlink:title=" ">
<polygon fill="#e0e0e0" stroke="#999999" points="118,-19 65,-19 65,0 118,0 118,-19"/>
<text text-anchor="middle" x="91.5" y="-7" font-family="Helvetica,sans-Serif" font-size="10.00">string.h</text>
</a>
</g>
</g>
<!-- Node1&#45;&gt;Node4 -->
<g id="edge3_Node000001_Node000004" class="edge">
<title>Node1&#45;&gt;Node4</title>
<g id="a_edge3_Node000001_Node000004"><a xlink:title=" ">
<path fill="none" stroke="#63b8ff" d="M189.65,-109.96C183.52,-97.02 170.61,-72.18 154.5,-55 143.22,-42.97 128.22,-32.22 115.69,-24.3"/>
<polygon fill="#63b8ff" stroke="#63b8ff" points="117.44,-21.27 107.08,-19.06 113.8,-27.25 117.44,-21.27"/>
</a>
</g>
</g>
<!-- Node5 -->
<g id="Node000005" class="node">
<title>Node5</title>
<g id="a_Node000005"><a xlink:title=" ">
<polygon fill="#e0e0e0" stroke="#999999" points="189,-19 136,-19 136,0 189,0 189,-19"/>
<text text-anchor="middle" x="162.5" y="-7" font-family="Helvetica,sans-Serif" font-size="10.00">stdlib.h</text>
</a>
</g>
</g>
<!-- Node1&#45;&gt;Node5 -->
<g id="edge4_Node000001_Node000005" class="edge">
<title>Node1&#45;&gt;Node5</title>
<g id="a_edge4_Node000001_Node000005"><a xlink:title=" ">
<path fill="none" stroke="#63b8ff" d="M194.03,-109.64C194.5,-97.15 194.39,-73.78 188.5,-55 185.46,-45.3 180,-35.45 174.87,-27.49"/>
<polygon fill="#63b8ff" stroke="#63b8ff" points="177.69,-25.42 169.15,-19.14 171.91,-29.37 177.69,-25.42"/>
</a>
</g>
</g>
<!-- Node6 -->
<g id="Node000006" class="node">
<title>Node6</title>
<g id="a_Node000006"><a xlink:title=" ">
<polygon fill="#e0e0e0" stroke="#999999" points="432,-74 365,-74 365,-55 432,-55 432,-74"/>
<text text-anchor="middle" x="398.5" y="-62" font-family="Helvetica,sans-Serif" font-size="10.00">raymath.h</text>
</a>
</g>
</g>
<!-- Node1&#45;&gt;Node6 -->
<g id="edge5_Node000001_Node000006" class="edge">
<title>Node1&#45;&gt;Node6</title>
<g id="a_edge5_Node000001_Node000006"><a xlink:title=" ">
<path fill="none" stroke="#63b8ff" d="M226.44,-109.98C261.45,-100.93 316.97,-86.58 355.43,-76.64"/>
<polygon fill="#63b8ff" stroke="#63b8ff" points="356.5,-79.97 365.31,-74.08 354.75,-73.2 356.5,-79.97"/>
</a>
</g>
</g>
<!-- Node7 -->
<g id="Node000007" class="node">
<title>Node7</title>
<g id="a_Node000007"><a xlink:href="logger_8h.html" target="_top" xlink:title="Flexible, colored console + file logger with stack trace support (Linux&#45;focused).">
<polygon fill="white" stroke="#666666" points="346.5,-74 290.5,-74 290.5,-55 346.5,-55 346.5,-74"/>
<text text-anchor="middle" x="318.5" y="-62" font-family="Helvetica,sans-Serif" font-size="10.00">logger.h</text>
</a>
</g>
</g>
<!-- Node1&#45;&gt;Node7 -->
<g id="edge6_Node000001_Node000007" class="edge">
<title>Node1&#45;&gt;Node7</title>
<g id="a_edge6_Node000001_Node000007"><a xlink:title=" ">
<path fill="none" stroke="#63b8ff" d="M213.58,-109.98C233.87,-101.38 265.46,-87.99 288.67,-78.15"/>
<polygon fill="#63b8ff" stroke="#63b8ff" points="290.21,-81.3 298.05,-74.17 287.48,-74.85 290.21,-81.3"/>
</a>
</g>
</g>
<!-- Node7&#45;&gt;Node4 -->
<g id="edge13_Node000007_Node000004" class="edge">
<title>Node7&#45;&gt;Node4</title>
<g id="a_edge13_Node000007_Node000004"><a xlink:title=" ">
<path fill="none" stroke="#63b8ff" d="M290.5,-57.11C254.92,-48.96 191.36,-34.34 128,-19.34"/>
<polygon fill="#63b8ff" stroke="#63b8ff" points="128.78,-15.93 118.25,-17.03 127.17,-22.74 128.78,-15.93"/>
</a>
</g>
</g>
<!-- Node7&#45;&gt;Node5 -->
<g id="edge10_Node000007_Node000005" class="edge">
<title>Node7&#45;&gt;Node5</title>
<g id="a_edge10_Node000007_Node000005"><a xlink:title=" ">
<path fill="none" stroke="#63b8ff" d="M293.44,-54.98C267.47,-46.16 226.69,-32.31 197.54,-22.41"/>
<polygon fill="#63b8ff" stroke="#63b8ff" points="198.35,-18.99 187.76,-19.08 196.1,-25.61 198.35,-18.99"/>
</a>
</g>
</g>
<!-- Node8 -->
<g id="Node000008" class="node">
<title>Node8</title>
<g id="a_Node000008"><a xlink:title=" ">
<polygon fill="#e0e0e0" stroke="#999999" points="343.5,-19 293.5,-19 293.5,0 343.5,0 343.5,-19"/>
<text text-anchor="middle" x="318.5" y="-7" font-family="Helvetica,sans-Serif" font-size="10.00">stdio.h</text>
</a>
</g>
</g>
<!-- Node7&#45;&gt;Node8 -->
<g id="edge7_Node000007_Node000008" class="edge">
<title>Node7&#45;&gt;Node8</title>
<g id="a_edge7_Node000007_Node000008"><a xlink:title=" ">
<path fill="none" stroke="#63b8ff" d="M318.5,-54.75C318.5,-47.8 318.5,-37.85 318.5,-29.13"/>
<polygon fill="#63b8ff" stroke="#63b8ff" points="322,-29.09 318.5,-19.09 315,-29.09 322,-29.09"/>
</a>
</g>
</g>
<!-- Node9 -->
<g id="Node000009" class="node">
<title>Node9</title>
<g id="a_Node000009"><a xlink:title=" ">
<polygon fill="#e0e0e0" stroke="#999999" points="423.5,-19 361.5,-19 361.5,0 423.5,0 423.5,-19"/>
<text text-anchor="middle" x="392.5" y="-7" font-family="Helvetica,sans-Serif" font-size="10.00">stdbool.h</text>
</a>
</g>
</g>
<!-- Node7&#45;&gt;Node9 -->
<g id="edge8_Node000007_Node000009" class="edge">
<title>Node7&#45;&gt;Node9</title>
<g id="a_edge8_Node000007_Node000009"><a xlink:title=" ">
<path fill="none" stroke="#63b8ff" d="M330.39,-54.98C341.65,-46.92 358.79,-34.65 372.21,-25.03"/>
<polygon fill="#63b8ff" stroke="#63b8ff" points="374.3,-27.84 380.39,-19.17 370.23,-22.15 374.3,-27.84"/>
</a>
</g>
</g>
<!-- Node10 -->
<g id="Node000010" class="node">
<title>Node10</title>
<g id="a_Node000010"><a xlink:title=" ">
<polygon fill="#e0e0e0" stroke="#999999" points="497.5,-19 441.5,-19 441.5,0 497.5,0 497.5,-19"/>
<text text-anchor="middle" x="469.5" y="-7" font-family="Helvetica,sans-Serif" font-size="10.00">stdarg.h</text>
</a>
</g>
</g>
<!-- Node7&#45;&gt;Node10 -->
<g id="edge9_Node000007_Node000010" class="edge">
<title>Node7&#45;&gt;Node10</title>
<g id="a_edge9_Node000007_Node000010"><a xlink:title=" ">
<path fill="none" stroke="#63b8ff" d="M342.76,-54.98C367.82,-46.19 407.13,-32.39 435.33,-22.49"/>
<polygon fill="#63b8ff" stroke="#63b8ff" points="436.52,-25.78 444.8,-19.17 434.2,-19.18 436.52,-25.78"/>
</a>
</g>
</g>
<!-- Node11 -->
<g id="Node000011" class="node">
<title>Node11</title>
<g id="a_Node000011"><a xlink:title=" ">
<polygon fill="#e0e0e0" stroke="#999999" points="571.5,-19 515.5,-19 515.5,0 571.5,0 571.5,-19"/>
<text text-anchor="middle" x="543.5" y="-7" font-family="Helvetica,sans-Serif" font-size="10.00">stddef.h</text>
</a>
</g>
</g>
<!-- Node7&#45;&gt;Node11 -->
<g id="edge11_Node000007_Node000011" class="edge">
<title>Node7&#45;&gt;Node11</title>
<g id="a_edge11_Node000007_Node000011"><a xlink:title=" ">
<path fill="none" stroke="#63b8ff" d="M346.54,-56.89C386.65,-47.45 460.51,-30.05 505.5,-19.45"/>
<polygon fill="#63b8ff" stroke="#63b8ff" points="506.53,-22.8 515.46,-17.11 504.92,-15.99 506.53,-22.8"/>
</a>
</g>
</g>
<!-- Node12 -->
<g id="Node000012" class="node">
<title>Node12</title>
<g id="a_Node000012"><a xlink:title=" ">
<polygon fill="#e0e0e0" stroke="#999999" points="637.5,-19 589.5,-19 589.5,0 637.5,0 637.5,-19"/>
<text text-anchor="middle" x="613.5" y="-7" font-family="Helvetica,sans-Serif" font-size="10.00">time.h</text>
</a>
</g>
</g>
<!-- Node7&#45;&gt;Node12 -->
<g id="edge12_Node000007_Node000012" class="edge">
<title>Node7&#45;&gt;Node12</title>
<g id="a_edge12_Node000007_Node000012"><a xlink:title=" ">
<path fill="none" stroke="#63b8ff" d="M346.68,-57C349.99,-56.29 353.31,-55.61 356.5,-55 452.43,-36.58 480.08,-39.39 579.55,-19.03"/>
<polygon fill="#63b8ff" stroke="#63b8ff" points="580.33,-22.44 589.41,-16.98 578.91,-15.58 580.33,-22.44"/>
</a>
</g>
</g>
<!-- Node13 -->
<g id="Node000013" class="node">
<title>Node13</title>
<g id="a_Node000013"><a xlink:title=" ">
<polygon fill="#e0e0e0" stroke="#999999" points="719.5,-19 655.5,-19 655.5,0 719.5,0 719.5,-19"/>
<text text-anchor="middle" x="687.5" y="-7" font-family="Helvetica,sans-Serif" font-size="10.00">sys/stat.h</text>
</a>
</g>
</g>
<!-- Node7&#45;&gt;Node13 -->
<g id="edge14_Node000007_Node000013" class="edge">
<title>Node7&#45;&gt;Node13</title>
<g id="a_edge14_Node000007_Node000013"><a xlink:title=" ">
<path fill="none" stroke="#63b8ff" d="M346.66,-56.88C349.97,-56.2 353.3,-55.55 356.5,-55 481.22,-33.36 516.58,-39.84 645.08,-19.11"/>
<polygon fill="#63b8ff" stroke="#63b8ff" points="646.01,-22.5 655.32,-17.43 644.88,-15.59 646.01,-22.5"/>
</a>
</g>
</g>
<!-- Node14 -->
<g id="Node000014" class="node">
<title>Node14</title>
<g id="a_Node000014"><a xlink:title=" ">
<polygon fill="#e0e0e0" stroke="#999999" points="275.5,-19 207.5,-19 207.5,0 275.5,0 275.5,-19"/>
<text text-anchor="middle" x="241.5" y="-7" font-family="Helvetica,sans-Serif" font-size="10.00">sys/time.h</text>
</a>
</g>
</g>
<!-- Node7&#45;&gt;Node14 -->
<g id="edge15_Node000007_Node000014" class="edge">
<title>Node7&#45;&gt;Node14</title>
<g id="a_edge15_Node000007_Node000014"><a xlink:title=" ">
<path fill="none" stroke="#63b8ff" d="M306.13,-54.98C294.41,-46.92 276.58,-34.65 262.61,-25.03"/>
<polygon fill="#63b8ff" stroke="#63b8ff" points="264.32,-21.96 254.1,-19.17 260.35,-27.72 264.32,-21.96"/>
</a>
</g>
</g>
</g>
</svg>
