<?xml version="1.0" encoding="UTF-8" standalone="no"?>
<!DOCTYPE svg PUBLIC "-//W3C//DTD SVG 1.1//EN"
 "http://www.w3.org/Graphics/SVG/1.1/DTD/svg11.dtd">
<!-- Generated by graphviz version 2.43.0 (0)
 -->
<!-- Title: suika/src/suikaAPI.c Pages: 1 -->
<svg width="828pt" height="192pt"
 viewBox="0.00 0.00 828.00 192.00" xmlns="http://www.w3.org/2000/svg" xmlns:xlink="http://www.w3.org/1999/xlink">
<g id="graph0" class="graph" transform="scale(1 1) rotate(0) translate(4 188)">
<title>suika/src/suikaAPI.c</title>
<!-- Node1 -->
<g id="Node000001" class="node">
<title>Node1</title>
<g id="a_Node000001"><a xlink:title="Implementation of the Suika mini&#45;game API.">
<polygon fill="#999999" stroke="#666666" points="358,-184 246,-184 246,-165 358,-165 358,-184"/>
<text text-anchor="middle" x="302" y="-172" font-family="Helvetica,sans-Serif" font-size="10.00">suika/src/suikaAPI.c</text>
</a>
</g>
</g>
<!-- Node2 -->
<g id="Node000002" class="node">
<title>Node2</title>
<g id="a_Node000002"><a xlink:title=" ">
<polygon fill="#e0e0e0" stroke="#999999" points="102.5,-129 25.5,-129 25.5,-110 102.5,-110 102.5,-129"/>
<text text-anchor="middle" x="64" y="-117" font-family="Helvetica,sans-Serif" font-size="10.00">core/game.h</text>
</a>
</g>
</g>
<!-- Node1&#45;&gt;Node2 -->
<g id="edge1_Node000001_Node000002" class="edge">
<title>Node1&#45;&gt;Node2</title>
<g id="a_edge1_Node000001_Node000002"><a xlink:title=" ">
<path fill="none" stroke="#63b8ff" d="M263.76,-164.98C222.59,-155.82 157.01,-141.21 112.3,-131.26"/>
<polygon fill="#63b8ff" stroke="#63b8ff" points="113.06,-127.84 102.54,-129.08 111.54,-134.67 113.06,-127.84"/>
</a>
</g>
</g>
<!-- Node3 -->
<g id="Node000003" class="node">
<title>Node3</title>
<g id="a_Node000003"><a xlink:href="types_8h.html" target="_top" xlink:title=" ">
<polygon fill="white" stroke="#666666" points="197.5,-129 120.5,-129 120.5,-110 197.5,-110 197.5,-129"/>
<text text-anchor="middle" x="159" y="-117" font-family="Helvetica,sans-Serif" font-size="10.00">utils/types.h</text>
</a>
</g>
</g>
<!-- Node1&#45;&gt;Node3 -->
<g id="edge2_Node000001_Node000003" class="edge">
<title>Node1&#45;&gt;Node3</title>
<g id="a_edge2_Node000001_Node000003"><a xlink:title=" ">
<path fill="none" stroke="#63b8ff" d="M279.02,-164.98C255.5,-156.27 218.71,-142.63 192.06,-132.75"/>
<polygon fill="#63b8ff" stroke="#63b8ff" points="192.99,-129.36 182.39,-129.17 190.55,-135.93 192.99,-129.36"/>
</a>
</g>
</g>
<!-- Node7 -->
<g id="Node000007" class="node">
<title>Node7</title>
<g id="a_Node000007"><a xlink:title=" ">
<polygon fill="#e0e0e0" stroke="#999999" points="344,-129 260,-129 260,-110 344,-110 344,-129"/>
<text text-anchor="middle" x="302" y="-117" font-family="Helvetica,sans-Serif" font-size="10.00">utils/configs.h</text>
</a>
</g>
</g>
<!-- Node1&#45;&gt;Node7 -->
<g id="edge6_Node000001_Node000007" class="edge">
<title>Node1&#45;&gt;Node7</title>
<g id="a_edge6_Node000001_Node000007"><a xlink:title=" ">
<path fill="none" stroke="#63b8ff" d="M302,-164.75C302,-157.8 302,-147.85 302,-139.13"/>
<polygon fill="#63b8ff" stroke="#63b8ff" points="305.5,-139.09 302,-129.09 298.5,-139.09 305.5,-139.09"/>
</a>
</g>
</g>
<!-- Node8 -->
<g id="Node000008" class="node">
<title>Node8</title>
<g id="a_Node000008"><a xlink:href="logger_8h.html" target="_top" xlink:title="Flexible, colored console + file logger with stack trace support (Linux&#45;focused).">
<polygon fill="white" stroke="#666666" points="441,-129 385,-129 385,-110 441,-110 441,-129"/>
<text text-anchor="middle" x="413" y="-117" font-family="Helvetica,sans-Serif" font-size="10.00">logger.h</text>
</a>
</g>
</g>
<!-- Node1&#45;&gt;Node8 -->
<g id="edge7_Node000001_Node000008" class="edge">
<title>Node1&#45;&gt;Node8</title>
<g id="a_edge7_Node000001_Node000008"><a xlink:title=" ">
<path fill="none" stroke="#63b8ff" d="M319.83,-164.98C337.61,-156.5 365.15,-143.35 385.68,-133.54"/>
<polygon fill="#63b8ff" stroke="#63b8ff" points="387.33,-136.64 394.84,-129.17 384.31,-130.32 387.33,-136.64"/>
</a>
</g>
</g>
<!-- Node17 -->
<g id="Node000017" class="node">
<title>Node17</title>
<g id="a_Node000017"><a xlink:title=" ">
<polygon fill="#e0e0e0" stroke="#999999" points="526.5,-129 459.5,-129 459.5,-110 526.5,-110 526.5,-129"/>
<text text-anchor="middle" x="493" y="-117" font-family="Helvetica,sans-Serif" font-size="10.00">suikaAPI.h</text>
</a>
</g>
</g>
<!-- Node1&#45;&gt;Node17 -->
<g id="edge17_Node000001_Node000017" class="edge">
<title>Node1&#45;&gt;Node17</title>
<g id="a_edge17_Node000001_Node000017"><a xlink:title=" ">
<path fill="none" stroke="#63b8ff" d="M332.69,-164.98C365.17,-155.97 416.6,-141.7 452.41,-131.76"/>
<polygon fill="#63b8ff" stroke="#63b8ff" points="453.37,-135.13 462.07,-129.08 451.5,-128.38 453.37,-135.13"/>
</a>
</g>
</g>
<!-- Node4 -->
<g id="Node000004" class="node">
<title>Node4</title>
<g id="a_Node000004"><a xlink:title=" ">
<polygon fill="#e0e0e0" stroke="#999999" points="68,-74 0,-74 0,-55 68,-55 68,-74"/>
<text text-anchor="middle" x="34" y="-62" font-family="Helvetica,sans-Serif" font-size="10.00">common.h</text>
</a>
</g>
</g>
<!-- Node3&#45;&gt;Node4 -->
<g id="edge3_Node000003_Node000004" class="edge">
<title>Node3&#45;&gt;Node4</title>
<g id="a_edge3_Node000003_Node000004"><a xlink:title=" ">
<path fill="none" stroke="#63b8ff" d="M138.92,-109.98C118.63,-101.38 87.04,-87.99 63.83,-78.15"/>
<polygon fill="#63b8ff" stroke="#63b8ff" points="65.02,-74.85 54.45,-74.17 62.29,-81.3 65.02,-74.85"/>
</a>
</g>
</g>
<!-- Node5 -->
<g id="Node000005" class="node">
<title>Node5</title>
<g id="a_Node000005"><a xlink:href="generalAPI_8h.html" target="_top" xlink:title="Minimal shared interface and common types used by all mini&#45;games and the lobby.">
<polygon fill="white" stroke="#666666" points="188,-74 86,-74 86,-55 188,-55 188,-74"/>
<text text-anchor="middle" x="137" y="-62" font-family="Helvetica,sans-Serif" font-size="10.00">APIs/generalAPI.h</text>
</a>
</g>
</g>
<!-- Node3&#45;&gt;Node5 -->
<g id="edge4_Node000003_Node000005" class="edge">
<title>Node3&#45;&gt;Node5</title>
<g id="a_edge4_Node000003_Node000005"><a xlink:title=" ">
<path fill="none" stroke="#63b8ff" d="M155.37,-109.75C152.42,-102.65 148.17,-92.4 144.49,-83.56"/>
<polygon fill="#63b8ff" stroke="#63b8ff" points="147.63,-81.98 140.57,-74.09 141.17,-84.67 147.63,-81.98"/>
</a>
</g>
</g>
<!-- Node6 -->
<g id="Node000006" class="node">
<title>Node6</title>
<g id="a_Node000006"><a xlink:title=" ">
<polygon fill="#e0e0e0" stroke="#999999" points="207,-19 145,-19 145,0 207,0 207,-19"/>
<text text-anchor="middle" x="176" y="-7" font-family="Helvetica,sans-Serif" font-size="10.00">stdbool.h</text>
</a>
</g>
</g>
<!-- Node5&#45;&gt;Node6 -->
<g id="edge5_Node000005_Node000006" class="edge">
<title>Node5&#45;&gt;Node6</title>
<g id="a_edge5_Node000005_Node000006"><a xlink:title=" ">
<path fill="none" stroke="#63b8ff" d="M143.44,-54.75C148.89,-47.34 156.86,-36.5 163.56,-27.41"/>
<polygon fill="#63b8ff" stroke="#63b8ff" points="166.57,-29.22 169.68,-19.09 160.93,-25.07 166.57,-29.22"/>
</a>
</g>
</g>
<!-- Node8&#45;&gt;Node6 -->
<g id="edge9_Node000008_Node000006" class="edge">
<title>Node8&#45;&gt;Node6</title>
<g id="a_edge9_Node000008_Node000006"><a xlink:title=" ">
<path fill="none" stroke="#63b8ff" d="M384.67,-113.46C341.15,-105.37 260.23,-88.9 235,-74 215.44,-62.45 198.44,-42.44 187.77,-27.97"/>
<polygon fill="#63b8ff" stroke="#63b8ff" points="190.35,-25.55 181.72,-19.4 184.63,-29.59 190.35,-25.55"/>
</a>
</g>
</g>
<!-- Node9 -->
<g id="Node000009" class="node">
<title>Node9</title>
<g id="a_Node000009"><a xlink:title=" ">
<polygon fill="#e0e0e0" stroke="#999999" points="294,-74 244,-74 244,-55 294,-55 294,-74"/>
<text text-anchor="middle" x="269" y="-62" font-family="Helvetica,sans-Serif" font-size="10.00">stdio.h</text>
</a>
</g>
</g>
<!-- Node8&#45;&gt;Node9 -->
<g id="edge8_Node000008_Node000009" class="edge">
<title>Node8&#45;&gt;Node9</title>
<g id="a_edge8_Node000008_Node000009"><a xlink:title=" ">
<path fill="none" stroke="#63b8ff" d="M389.86,-109.98C366.18,-101.27 329.13,-87.63 302.29,-77.75"/>
<polygon fill="#63b8ff" stroke="#63b8ff" points="303.15,-74.34 292.56,-74.17 300.73,-80.91 303.15,-74.34"/>
</a>
</g>
</g>
<!-- Node10 -->
<g id="Node000010" class="node">
<title>Node10</title>
<g id="a_Node000010"><a xlink:title=" ">
<polygon fill="#e0e0e0" stroke="#999999" points="368,-74 312,-74 312,-55 368,-55 368,-74"/>
<text text-anchor="middle" x="340" y="-62" font-family="Helvetica,sans-Serif" font-size="10.00">stdarg.h</text>
</a>
</g>
</g>
<!-- Node8&#45;&gt;Node10 -->
<g id="edge10_Node000008_Node000010" class="edge">
<title>Node8&#45;&gt;Node10</title>
<g id="a_edge10_Node000008_Node000010"><a xlink:title=" ">
<path fill="none" stroke="#63b8ff" d="M401.27,-109.98C390.27,-102 373.58,-89.88 360.4,-80.31"/>
<polygon fill="#63b8ff" stroke="#63b8ff" points="362.09,-77.21 351.94,-74.17 357.98,-82.88 362.09,-77.21"/>
</a>
</g>
</g>
<!-- Node11 -->
<g id="Node000011" class="node">
<title>Node11</title>
<g id="a_Node000011"><a xlink:title=" ">
<polygon fill="#e0e0e0" stroke="#999999" points="439.5,-74 386.5,-74 386.5,-55 439.5,-55 439.5,-74"/>
<text text-anchor="middle" x="413" y="-62" font-family="Helvetica,sans-Serif" font-size="10.00">stdlib.h</text>
</a>
</g>
</g>
<!-- Node8&#45;&gt;Node11 -->
<g id="edge11_Node000008_Node000011" class="edge">
<title>Node8&#45;&gt;Node11</title>
<g id="a_edge11_Node000008_Node000011"><a xlink:title=" ">
<path fill="none" stroke="#63b8ff" d="M413,-109.75C413,-102.8 413,-92.85 413,-84.13"/>
<polygon fill="#63b8ff" stroke="#63b8ff" points="416.5,-84.09 413,-74.09 409.5,-84.09 416.5,-84.09"/>
</a>
</g>
</g>
<!-- Node12 -->
<g id="Node000012" class="node">
<title>Node12</title>
<g id="a_Node000012"><a xlink:title=" ">
<polygon fill="#e0e0e0" stroke="#999999" points="514,-74 458,-74 458,-55 514,-55 514,-74"/>
<text text-anchor="middle" x="486" y="-62" font-family="Helvetica,sans-Serif" font-size="10.00">stddef.h</text>
</a>
</g>
</g>
<!-- Node8&#45;&gt;Node12 -->
<g id="edge12_Node000008_Node000012" class="edge">
<title>Node8&#45;&gt;Node12</title>
<g id="a_edge12_Node000008_Node000012"><a xlink:title=" ">
<path fill="none" stroke="#63b8ff" d="M424.73,-109.98C435.73,-102 452.42,-89.88 465.6,-80.31"/>
<polygon fill="#63b8ff" stroke="#63b8ff" points="468.02,-82.88 474.06,-74.17 463.91,-77.21 468.02,-82.88"/>
</a>
</g>
</g>
<!-- Node13 -->
<g id="Node000013" class="node">
<title>Node13</title>
<g id="a_Node000013"><a xlink:title=" ">
<polygon fill="#e0e0e0" stroke="#999999" points="580,-74 532,-74 532,-55 580,-55 580,-74"/>
<text text-anchor="middle" x="556" y="-62" font-family="Helvetica,sans-Serif" font-size="10.00">time.h</text>
</a>
</g>
</g>
<!-- Node8&#45;&gt;Node13 -->
<g id="edge13_Node000008_Node000013" class="edge">
<title>Node8&#45;&gt;Node13</title>
<g id="a_edge13_Node000008_Node000013"><a xlink:title=" ">
<path fill="none" stroke="#63b8ff" d="M435.98,-109.98C459.5,-101.27 496.29,-87.63 522.94,-77.75"/>
<polygon fill="#63b8ff" stroke="#63b8ff" points="524.45,-80.93 532.61,-74.17 522.01,-74.36 524.45,-80.93"/>
</a>
</g>
</g>
<!-- Node14 -->
<g id="Node000014" class="node">
<title>Node14</title>
<g id="a_Node000014"><a xlink:title=" ">
<polygon fill="#e0e0e0" stroke="#999999" points="651.5,-74 598.5,-74 598.5,-55 651.5,-55 651.5,-74"/>
<text text-anchor="middle" x="625" y="-62" font-family="Helvetica,sans-Serif" font-size="10.00">string.h</text>
</a>
</g>
</g>
<!-- Node8&#45;&gt;Node14 -->
<g id="edge14_Node000008_Node000014" class="edge">
<title>Node8&#45;&gt;Node14</title>
<g id="a_edge14_Node000008_Node000014"><a xlink:title=" ">
<path fill="none" stroke="#63b8ff" d="M441.15,-111.46C479.13,-101.97 546.83,-85.04 588.62,-74.59"/>
<polygon fill="#63b8ff" stroke="#63b8ff" points="589.55,-77.97 598.4,-72.15 587.85,-71.18 589.55,-77.97"/>
</a>
</g>
</g>
<!-- Node15 -->
<g id="Node000015" class="node">
<title>Node15</title>
<g id="a_Node000015"><a xlink:title=" ">
<polygon fill="#e0e0e0" stroke="#999999" points="734,-74 670,-74 670,-55 734,-55 734,-74"/>
<text text-anchor="middle" x="702" y="-62" font-family="Helvetica,sans-Serif" font-size="10.00">sys/stat.h</text>
</a>
</g>
</g>
<!-- Node8&#45;&gt;Node15 -->
<g id="edge15_Node000008_Node000015" class="edge">
<title>Node8&#45;&gt;Node15</title>
<g id="a_edge15_Node000008_Node000015"><a xlink:title=" ">
<path fill="none" stroke="#63b8ff" d="M441.19,-112.03C444.49,-111.32 447.82,-110.63 451,-110 540.82,-92.27 566.28,-91.64 659.9,-74.15"/>
<polygon fill="#63b8ff" stroke="#63b8ff" points="660.61,-77.58 669.79,-72.29 659.32,-70.7 660.61,-77.58"/>
</a>
</g>
</g>
<!-- Node16 -->
<g id="Node000016" class="node">
<title>Node16</title>
<g id="a_Node000016"><a xlink:title=" ">
<polygon fill="#e0e0e0" stroke="#999999" points="820,-74 752,-74 752,-55 820,-55 820,-74"/>
<text text-anchor="middle" x="786" y="-62" font-family="Helvetica,sans-Serif" font-size="10.00">sys/time.h</text>
</a>
</g>
</g>
<!-- Node8&#45;&gt;Node16 -->
<g id="edge16_Node000008_Node000016" class="edge">
<title>Node8&#45;&gt;Node16</title>
<g id="a_edge16_Node000008_Node000016"><a xlink:title=" ">
<path fill="none" stroke="#63b8ff" d="M441.16,-111.88C444.47,-111.2 447.8,-110.55 451,-110 576.7,-88.25 612.17,-94.37 741.86,-74.07"/>
<polygon fill="#63b8ff" stroke="#63b8ff" points="742.45,-77.52 751.77,-72.5 741.35,-70.61 742.45,-77.52"/>
</a>
</g>
</g>
</g>
</svg>
