<?xml version="1.0" encoding="UTF-8" standalone="no"?>
<!DOCTYPE svg PUBLIC "-//W3C//DTD SVG 1.1//EN"
 "http://www.w3.org/Graphics/SVG/1.1/DTD/svg11.dtd">
<!-- Generated by graphviz version 2.43.0 (0)
 -->
<!-- Title: suika_freeGameWrapper Pages: 1 -->
<svg width="426pt" height="64pt"
 viewBox="0.00 0.00 426.00 64.00" xmlns="http://www.w3.org/2000/svg" xmlns:xlink="http://www.w3.org/1999/xlink">

<svg id="main" version="1.1" xmlns="http://www.w3.org/2000/svg" xmlns:xlink="http://www.w3.org/1999/xlink" xml:space="preserve" onload="init(evt)">
<style type="text/css"><![CDATA[
.node, .edge {opacity: 0.7;}
.node.selected, .edge.selected {opacity: 1;}
.edge:hover path { stroke: red; }
.edge:hover polygon { stroke: red; fill: red; }
]]></style>
<script type="application/ecmascript" xlink:href="svg.min.js"/>
<svg id="graph" class="graph">
<g id="graph0" class="graph" transform="scale(1 1) rotate(0) translate(4 60)">
<title>suika_freeGameWrapper</title>
<!-- Node1 -->
<g id="Node000001" class="node">
<title>Node1</title>
<g id="a_Node000001"><a xlink:title=" ">
<polygon fill="#999999" stroke="#666666" points="137,-37 0,-37 0,-18 137,-18 137,-37"/>
<text text-anchor="middle" x="68.5" y="-25" font-family="Helvetica,sans-Serif" font-size="10.00">suika_freeGameWrapper</text>
</a>
</g>
</g>
<!-- Node2 -->
<g id="Node000002" class="node">
<title>Node2</title>
<g id="a_Node000002"><a xlink:href="suikaAPI_8c.html#aecb4b1a7bc34dd49f6177e568b8af6db" target="_top" xlink:title=" ">
<polygon fill="white" stroke="#666666" points="269,-37 173,-37 173,-18 269,-18 269,-37"/>
<text text-anchor="middle" x="221" y="-25" font-family="Helvetica,sans-Serif" font-size="10.00">suika_freeGame</text>
</a>
</g>
</g>
<!-- Node1&#45;&gt;Node2 -->
<g id="edge1_Node000001_Node000002" class="edge">
<title>Node1&#45;&gt;Node2</title>
<g id="a_edge1_Node000001_Node000002"><a xlink:title=" ">
<path fill="none" stroke="#63b8ff" d="M137.27,-27.5C145.81,-27.5 154.48,-27.5 162.84,-27.5"/>
<polygon fill="#63b8ff" stroke="#63b8ff" points="162.84,-31 172.84,-27.5 162.84,-24 162.84,-31"/>
</a>
</g>
</g>
<!-- Node3 -->
<g id="Node000003" class="node">
<title>Node3</title>
<g id="a_Node000003"><a xlink:href="suika_2src_2core_2game_8c.html#a8e2bb340c87ef243428ea8ec4f00533c" target="_top" xlink:title=" ">
<polygon fill="white" stroke="#666666" points="404.5,-56 318.5,-56 318.5,-37 404.5,-37 404.5,-56"/>
<text text-anchor="middle" x="361.5" y="-44" font-family="Helvetica,sans-Serif" font-size="10.00">suika_cleanup</text>
</a>
</g>
</g>
<!-- Node2&#45;&gt;Node3 -->
<g id="edge2_Node000002_Node000003" class="edge">
<title>Node2&#45;&gt;Node3</title>
<g id="a_edge2_Node000002_Node000003"><a xlink:title=" ">
<path fill="none" stroke="#63b8ff" d="M269.28,-33.99C281.77,-35.7 295.32,-37.56 308.07,-39.31"/>
<polygon fill="#63b8ff" stroke="#63b8ff" points="307.7,-42.79 318.08,-40.68 308.65,-35.85 307.7,-42.79"/>
</a>
</g>
</g>
<!-- Node4 -->
<g id="Node000004" class="node">
<title>Node4</title>
<g id="a_Node000004"><a xlink:href="suika_2src_2core_2game_8c.html#af97e86e3c48a7eab9ec13a2309e0fbcd" target="_top" xlink:title=" ">
<polygon fill="white" stroke="#666666" points="418,-19 305,-19 305,0 418,0 418,-19"/>
<text text-anchor="middle" x="361.5" y="-7" font-family="Helvetica,sans-Serif" font-size="10.00">suika_unloadAssets</text>
</a>
</g>
</g>
<!-- Node2&#45;&gt;Node4 -->
<g id="edge3_Node000002_Node000004" class="edge">
<title>Node2&#45;&gt;Node4</title>
<g id="a_edge3_Node000002_Node000004"><a xlink:title=" ">
<path fill="none" stroke="#63b8ff" d="M269.28,-21.36C277.5,-20.29 286.18,-19.16 294.8,-18.04"/>
<polygon fill="#63b8ff" stroke="#63b8ff" points="295.37,-21.49 304.84,-16.73 294.47,-14.55 295.37,-21.49"/>
</a>
</g>
</g>
</g>
</svg>
</svg>

<style type='text/css'>
<![CDATA[
[data-mouse-over-selected='false'] { opacity: 0.7; }
[data-mouse-over-selected='true']  { opacity: 1.0; }
]]>
</style>
<script type="application/ecmascript"><![CDATA[
document.addEventListener('DOMContentLoaded', (event) => {
  highlightEdges();
  highlightAdjacentNodes();
});
]]></script>
</svg>
