<?xml version="1.0" encoding="UTF-8" standalone="no"?>
<!DOCTYPE svg PUBLIC "-//W3C//DTD SVG 1.1//EN"
 "http://www.w3.org/Graphics/SVG/1.1/DTD/svg11.dtd">
<!-- Generated by graphviz version 2.43.0 (0)
 -->
<!-- Title: suika_draw Pages: 1 -->
<svg width="456pt" height="138pt"
 viewBox="0.00 0.00 456.00 138.00" xmlns="http://www.w3.org/2000/svg" xmlns:xlink="http://www.w3.org/1999/xlink">
<g id="graph0" class="graph" transform="scale(1 1) rotate(0) translate(4 134)">
<title>suika_draw</title>
<!-- Node1 -->
<g id="Node000001" class="node">
<title>Node1</title>
<g id="a_Node000001"><a xlink:title=" ">
<polygon fill="#999999" stroke="#666666" points="71,-74 0,-74 0,-55 71,-55 71,-74"/>
<text text-anchor="middle" x="35.5" y="-62" font-family="Helvetica,sans-Serif" font-size="10.00">suika_draw</text>
</a>
</g>
</g>
<!-- Node2 -->
<g id="Node000002" class="node">
<title>Node2</title>
<g id="a_Node000002"><a xlink:href="suika_2src_2core_2game_8c.html#a36b79c24a700011f032278fbfd42858b" target="_top" xlink:title=" ">
<polygon fill="white" stroke="#666666" points="252,-130 133,-130 133,-111 252,-111 252,-130"/>
<text text-anchor="middle" x="192.5" y="-118" font-family="Helvetica,sans-Serif" font-size="10.00">suika_drawContainer</text>
</a>
</g>
</g>
<!-- Node1&#45;&gt;Node2 -->
<g id="edge1_Node000001_Node000002" class="edge">
<title>Node1&#45;&gt;Node2</title>
<g id="a_edge1_Node000001_Node000002"><a xlink:title=" ">
<path fill="none" stroke="#63b8ff" d="M51.32,-74.11C65.19,-82.7 86.77,-95.07 107,-102.5 112.91,-104.67 119.16,-106.62 125.47,-108.35"/>
<polygon fill="#63b8ff" stroke="#63b8ff" points="124.85,-111.8 135.41,-110.9 126.59,-105.02 124.85,-111.8"/>
</a>
</g>
</g>
<!-- Node3 -->
<g id="Node000003" class="node">
<title>Node3</title>
<g id="a_Node000003"><a xlink:href="suika_2src_2core_2game_8c.html#a343cf96d1d78e07da4c666b13d0b88d1" target="_top" xlink:title=" ">
<polygon fill="white" stroke="#666666" points="239,-93 146,-93 146,-74 239,-74 239,-93"/>
<text text-anchor="middle" x="192.5" y="-81" font-family="Helvetica,sans-Serif" font-size="10.00">suika_drawFruit</text>
</a>
</g>
</g>
<!-- Node1&#45;&gt;Node3 -->
<g id="edge2_Node000001_Node000003" class="edge">
<title>Node1&#45;&gt;Node3</title>
<g id="a_edge2_Node000001_Node000003"><a xlink:title=" ">
<path fill="none" stroke="#63b8ff" d="M71.29,-68.76C90.32,-71.1 114.35,-74.04 135.91,-76.69"/>
<polygon fill="#63b8ff" stroke="#63b8ff" points="135.59,-80.17 145.94,-77.92 136.44,-73.22 135.59,-80.17"/>
</a>
</g>
</g>
<!-- Node5 -->
<g id="Node000005" class="node">
<title>Node5</title>
<g id="a_Node000005"><a xlink:href="suika_2src_2core_2game_8c.html#ace17611fa8ed663544a3fd503f7d5f8e" target="_top" xlink:title=" ">
<polygon fill="white" stroke="#666666" points="278,-56 107,-56 107,-37 278,-37 278,-56"/>
<text text-anchor="middle" x="192.5" y="-44" font-family="Helvetica,sans-Serif" font-size="10.00">suika_drawGradientBackground</text>
</a>
</g>
</g>
<!-- Node1&#45;&gt;Node5 -->
<g id="edge4_Node000001_Node000005" class="edge">
<title>Node1&#45;&gt;Node5</title>
<g id="a_edge4_Node000001_Node000005"><a xlink:title=" ">
<path fill="none" stroke="#63b8ff" d="M71.29,-60.46C79.92,-59.46 89.59,-58.34 99.58,-57.17"/>
<polygon fill="#63b8ff" stroke="#63b8ff" points="100.13,-60.63 109.66,-56 99.33,-53.68 100.13,-60.63"/>
</a>
</g>
</g>
<!-- Node6 -->
<g id="Node000006" class="node">
<title>Node6</title>
<g id="a_Node000006"><a xlink:href="suika_2src_2core_2game_8c.html#a5e95cbe3020dca490d2a6c9323b8e6df" target="_top" xlink:title=" ">
<polygon fill="white" stroke="#666666" points="239.5,-19 145.5,-19 145.5,0 239.5,0 239.5,-19"/>
<text text-anchor="middle" x="192.5" y="-7" font-family="Helvetica,sans-Serif" font-size="10.00">suika_drawHUD</text>
</a>
</g>
</g>
<!-- Node1&#45;&gt;Node6 -->
<g id="edge5_Node000001_Node000006" class="edge">
<title>Node1&#45;&gt;Node6</title>
<g id="a_edge5_Node000001_Node000006"><a xlink:title=" ">
<path fill="none" stroke="#63b8ff" d="M52.5,-54.86C66.46,-46.81 87.48,-35.55 107,-28.5 116.03,-25.24 125.8,-22.42 135.4,-20.03"/>
<polygon fill="#63b8ff" stroke="#63b8ff" points="136.36,-23.4 145.29,-17.7 134.75,-16.59 136.36,-23.4"/>
</a>
</g>
</g>
<!-- Node4 -->
<g id="Node000004" class="node">
<title>Node4</title>
<g id="a_Node000004"><a xlink:href="suika_2src_2core_2game_8c.html#a86b0672b7e4006725e25ae8450bbbc22" target="_top" xlink:title=" ">
<polygon fill="white" stroke="#666666" points="448,-93 314,-93 314,-74 448,-74 448,-93"/>
<text text-anchor="middle" x="381" y="-81" font-family="Helvetica,sans-Serif" font-size="10.00">suika_getFruitProperties</text>
</a>
</g>
</g>
<!-- Node3&#45;&gt;Node4 -->
<g id="edge3_Node000003_Node000004" class="edge">
<title>Node3&#45;&gt;Node4</title>
<g id="a_edge3_Node000003_Node000004"><a xlink:title=" ">
<path fill="none" stroke="#63b8ff" d="M239.12,-83.5C258.49,-83.5 281.6,-83.5 303.44,-83.5"/>
<polygon fill="#63b8ff" stroke="#63b8ff" points="303.71,-87 313.71,-83.5 303.71,-80 303.71,-87"/>
</a>
</g>
</g>
<!-- Node7 -->
<g id="Node000007" class="node">
<title>Node7</title>
<g id="a_Node000007"><a xlink:href="suika_2src_2core_2game_8c.html#a24d71cf760735799444dc3f2d677af08" target="_top" xlink:title=" ">
<polygon fill="white" stroke="#666666" points="430,-19 332,-19 332,0 430,0 430,-19"/>
<text text-anchor="middle" x="381" y="-7" font-family="Helvetica,sans-Serif" font-size="10.00">suika_drawPanel</text>
</a>
</g>
</g>
<!-- Node6&#45;&gt;Node7 -->
<g id="edge6_Node000006_Node000007" class="edge">
<title>Node6&#45;&gt;Node7</title>
<g id="a_edge6_Node000006_Node000007"><a xlink:title=" ">
<path fill="none" stroke="#63b8ff" d="M239.6,-9.5C264.36,-9.5 295.14,-9.5 321.56,-9.5"/>
<polygon fill="#63b8ff" stroke="#63b8ff" points="321.83,-13 331.83,-9.5 321.83,-6 321.83,-13"/>
</a>
</g>
</g>
</g>
</svg>
