<?xml version="1.0" encoding="UTF-8" standalone="no"?>
<!DOCTYPE svg PUBLIC "-//W3C//DTD SVG 1.1//EN"
 "http://www.w3.org/Graphics/SVG/1.1/DTD/svg11.dtd">
<!-- Generated by graphviz version 2.43.0 (0)
 -->
<!-- Title: firstparty/systemSettings.h Pages: 1 -->
<svg width="206pt" height="137pt"
 viewBox="0.00 0.00 205.50 137.00" xmlns="http://www.w3.org/2000/svg" xmlns:xlink="http://www.w3.org/1999/xlink">
<g id="graph0" class="graph" transform="scale(1 1) rotate(0) translate(4 133)">
<title>firstparty/systemSettings.h</title>
<!-- Node1 -->
<g id="Node000001" class="node">
<title>Node1</title>
<g id="a_Node000001"><a xlink:title="Settings structures for mini&#45;games.">
<polygon fill="#999999" stroke="#666666" points="167,-129 18,-129 18,-110 167,-110 167,-129"/>
<text text-anchor="middle" x="92.5" y="-117" font-family="Helvetica,sans-Serif" font-size="10.00">firstparty/systemSettings.h</text>
</a>
</g>
</g>
<!-- Node2 -->
<g id="Node000002" class="node">
<title>Node2</title>
<g id="a_Node000002"><a xlink:href="baseTypes_8h.html" target="_top" xlink:title="Fixed&#45;size integer aliases, small vector types, and common shorthand aliases used as near&#45;primitive t...">
<polygon fill="white" stroke="#666666" points="77,-74 0,-74 0,-55 77,-55 77,-74"/>
<text text-anchor="middle" x="38.5" y="-62" font-family="Helvetica,sans-Serif" font-size="10.00">baseTypes.h</text>
</a>
</g>
</g>
<!-- Node1&#45;&gt;Node2 -->
<g id="edge1_Node000001_Node000002" class="edge">
<title>Node1&#45;&gt;Node2</title>
<g id="a_edge1_Node000001_Node000002"><a xlink:title=" ">
<path fill="none" stroke="#63b8ff" d="M83.58,-109.75C75.72,-102.03 64.07,-90.6 54.58,-81.28"/>
<polygon fill="#63b8ff" stroke="#63b8ff" points="56.84,-78.6 47.25,-74.09 51.94,-83.59 56.84,-78.6"/>
</a>
</g>
</g>
<!-- Node5 -->
<g id="Node000005" class="node">
<title>Node5</title>
<g id="a_Node000005"><a xlink:href="generalAPI_8h.html" target="_top" xlink:title="Minimal shared interface and common types used by all mini&#45;games and the lobby.">
<polygon fill="white" stroke="#666666" points="197.5,-74 95.5,-74 95.5,-55 197.5,-55 197.5,-74"/>
<text text-anchor="middle" x="146.5" y="-62" font-family="Helvetica,sans-Serif" font-size="10.00">APIs/generalAPI.h</text>
</a>
</g>
</g>
<!-- Node1&#45;&gt;Node5 -->
<g id="edge4_Node000001_Node000005" class="edge">
<title>Node1&#45;&gt;Node5</title>
<g id="a_edge4_Node000001_Node000005"><a xlink:title=" ">
<path fill="none" stroke="#63b8ff" d="M101.42,-109.75C109.28,-102.03 120.93,-90.6 130.42,-81.28"/>
<polygon fill="#63b8ff" stroke="#63b8ff" points="133.06,-83.59 137.75,-74.09 128.16,-78.6 133.06,-83.59"/>
</a>
</g>
</g>
<!-- Node3 -->
<g id="Node000003" class="node">
<title>Node3</title>
<g id="a_Node000003"><a xlink:title=" ">
<polygon fill="#e0e0e0" stroke="#999999" points="65,-19 12,-19 12,0 65,0 65,-19"/>
<text text-anchor="middle" x="38.5" y="-7" font-family="Helvetica,sans-Serif" font-size="10.00">stdint.h</text>
</a>
</g>
</g>
<!-- Node2&#45;&gt;Node3 -->
<g id="edge2_Node000002_Node000003" class="edge">
<title>Node2&#45;&gt;Node3</title>
<g id="a_edge2_Node000002_Node000003"><a xlink:title=" ">
<path fill="none" stroke="#63b8ff" d="M38.5,-54.75C38.5,-47.8 38.5,-37.85 38.5,-29.13"/>
<polygon fill="#63b8ff" stroke="#63b8ff" points="42,-29.09 38.5,-19.09 35,-29.09 42,-29.09"/>
</a>
</g>
</g>
<!-- Node4 -->
<g id="Node000004" class="node">
<title>Node4</title>
<g id="a_Node000004"><a xlink:title=" ">
<polygon fill="#e0e0e0" stroke="#999999" points="161.5,-19 99.5,-19 99.5,0 161.5,0 161.5,-19"/>
<text text-anchor="middle" x="130.5" y="-7" font-family="Helvetica,sans-Serif" font-size="10.00">stdbool.h</text>
</a>
</g>
</g>
<!-- Node2&#45;&gt;Node4 -->
<g id="edge3_Node000002_Node000004" class="edge">
<title>Node2&#45;&gt;Node4</title>
<g id="a_edge3_Node000002_Node000004"><a xlink:title=" ">
<path fill="none" stroke="#63b8ff" d="M53.28,-54.98C67.68,-46.69 89.81,-33.94 106.69,-24.22"/>
<polygon fill="#63b8ff" stroke="#63b8ff" points="108.53,-27.19 115.45,-19.17 105.04,-21.13 108.53,-27.19"/>
</a>
</g>
</g>
<!-- Node5&#45;&gt;Node4 -->
<g id="edge5_Node000005_Node000004" class="edge">
<title>Node5&#45;&gt;Node4</title>
<g id="a_edge5_Node000005_Node000004"><a xlink:title=" ">
<path fill="none" stroke="#63b8ff" d="M143.86,-54.75C141.74,-47.72 138.69,-37.62 136.04,-28.84"/>
<polygon fill="#63b8ff" stroke="#63b8ff" points="139.33,-27.65 133.09,-19.09 132.63,-29.67 139.33,-27.65"/>
</a>
</g>
</g>
</g>
</svg>
