<?xml version="1.0" encoding="UTF-8" standalone="no"?>
<!DOCTYPE svg PUBLIC "-//W3C//DTD SVG 1.1//EN"
 "http://www.w3.org/Graphics/SVG/1.1/DTD/svg11.dtd">
<!-- Generated by graphviz version 2.43.0 (0)
 -->
<!-- Title: suika/include/utils/types.h Pages: 1 -->
<svg width="196pt" height="148pt"
 viewBox="0.00 0.00 196.00 148.00" xmlns="http://www.w3.org/2000/svg" xmlns:xlink="http://www.w3.org/1999/xlink">
<g id="graph0" class="graph" transform="scale(1 1) rotate(0) translate(4 144)">
<title>suika/include/utils/types.h</title>
<!-- Node1 -->
<g id="Node000001" class="node">
<title>Node1</title>
<g id="a_Node000001"><a xlink:title=" ">
<polygon fill="#999999" stroke="#666666" points="137,-140 33,-140 33,-110 137,-110 137,-140"/>
<text text-anchor="start" x="41" y="-128" font-family="Helvetica,sans-Serif" font-size="10.00">suika/include/utils</text>
<text text-anchor="middle" x="85" y="-117" font-family="Helvetica,sans-Serif" font-size="10.00">/types.h</text>
</a>
</g>
</g>
<!-- Node2 -->
<g id="Node000002" class="node">
<title>Node2</title>
<g id="a_Node000002"><a xlink:title=" ">
<polygon fill="#e0e0e0" stroke="#999999" points="68,-74 0,-74 0,-55 68,-55 68,-74"/>
<text text-anchor="middle" x="34" y="-62" font-family="Helvetica,sans-Serif" font-size="10.00">common.h</text>
</a>
</g>
</g>
<!-- Node1&#45;&gt;Node2 -->
<g id="edge1_Node000001_Node000002" class="edge">
<title>Node1&#45;&gt;Node2</title>
<g id="a_edge1_Node000001_Node000002"><a xlink:title=" ">
<path fill="none" stroke="#63b8ff" d="M72.65,-109.84C65.33,-101.43 56,-90.74 48.35,-81.96"/>
<polygon fill="#63b8ff" stroke="#63b8ff" points="50.85,-79.5 41.64,-74.27 45.58,-84.1 50.85,-79.5"/>
</a>
</g>
</g>
<!-- Node3 -->
<g id="Node000003" class="node">
<title>Node3</title>
<g id="a_Node000003"><a xlink:href="generalAPI_8h.html" target="_top" xlink:title="Minimal shared interface and common types used by all mini&#45;games and the lobby.">
<polygon fill="white" stroke="#666666" points="188,-74 86,-74 86,-55 188,-55 188,-74"/>
<text text-anchor="middle" x="137" y="-62" font-family="Helvetica,sans-Serif" font-size="10.00">APIs/generalAPI.h</text>
</a>
</g>
</g>
<!-- Node1&#45;&gt;Node3 -->
<g id="edge2_Node000001_Node000003" class="edge">
<title>Node1&#45;&gt;Node3</title>
<g id="a_edge2_Node000001_Node000003"><a xlink:title=" ">
<path fill="none" stroke="#63b8ff" d="M97.59,-109.84C105.06,-101.43 114.56,-90.74 122.37,-81.96"/>
<polygon fill="#63b8ff" stroke="#63b8ff" points="125.18,-84.07 129.21,-74.27 119.95,-79.41 125.18,-84.07"/>
</a>
</g>
</g>
<!-- Node4 -->
<g id="Node000004" class="node">
<title>Node4</title>
<g id="a_Node000004"><a xlink:title=" ">
<polygon fill="#e0e0e0" stroke="#999999" points="168,-19 106,-19 106,0 168,0 168,-19"/>
<text text-anchor="middle" x="137" y="-7" font-family="Helvetica,sans-Serif" font-size="10.00">stdbool.h</text>
</a>
</g>
</g>
<!-- Node3&#45;&gt;Node4 -->
<g id="edge3_Node000003_Node000004" class="edge">
<title>Node3&#45;&gt;Node4</title>
<g id="a_edge3_Node000003_Node000004"><a xlink:title=" ">
<path fill="none" stroke="#63b8ff" d="M137,-54.75C137,-47.8 137,-37.85 137,-29.13"/>
<polygon fill="#63b8ff" stroke="#63b8ff" points="140.5,-29.09 137,-19.09 133.5,-29.09 140.5,-29.09"/>
</a>
</g>
</g>
</g>
</svg>
