<?xml version="1.0" encoding="UTF-8" standalone="no"?>
<!DOCTYPE svg PUBLIC "-//W3C//DTD SVG 1.1//EN"
 "http://www.w3.org/Graphics/SVG/1.1/DTD/svg11.dtd">
<!-- Generated by graphviz version 2.43.0 (0)
 -->
<!-- Title: lobby/include/utils/userTypes.h Pages: 1 -->
<svg width="713pt" height="159pt"
 viewBox="0.00 0.00 713.00 159.00" xmlns="http://www.w3.org/2000/svg" xmlns:xlink="http://www.w3.org/1999/xlink">
<g id="graph0" class="graph" transform="scale(1 1) rotate(0) translate(4 155)">
<title>lobby/include/utils/userTypes.h</title>
<!-- Node1 -->
<g id="Node000001" class="node">
<title>Node1</title>
<g id="a_Node000001"><a xlink:title="Core type definitions used throughout the game &#45; especially lobby and mini&#45;game integration.">
<polygon fill="#999999" stroke="#666666" points="445,-151 339,-151 339,-121 445,-121 445,-151"/>
<text text-anchor="start" x="347" y="-139" font-family="Helvetica,sans-Serif" font-size="10.00">lobby/include/utils</text>
<text text-anchor="middle" x="392" y="-128" font-family="Helvetica,sans-Serif" font-size="10.00">/userTypes.h</text>
</a>
</g>
</g>
<!-- Node2 -->
<g id="Node000002" class="node">
<title>Node2</title>
<g id="a_Node000002"><a xlink:href="lobbyAPI_8h.html" target="_top" xlink:title="Public API for the Lobby mini&#45;game.">
<polygon fill="white" stroke="#666666" points="460.5,-79.5 323.5,-79.5 323.5,-60.5 460.5,-60.5 460.5,-79.5"/>
<text text-anchor="middle" x="392" y="-67.5" font-family="Helvetica,sans-Serif" font-size="10.00">lobby/include/lobbyAPI.h</text>
</a>
</g>
</g>
<!-- Node1&#45;&gt;Node2 -->
<g id="edge1_Node000001_Node000002" class="edge">
<title>Node1&#45;&gt;Node2</title>
<g id="a_edge1_Node000001_Node000002"><a xlink:title=" ">
<path fill="none" stroke="#63b8ff" d="M392,-110.6C392,-99.8 392,-87.78 392,-79.84"/>
<polygon fill="#63b8ff" stroke="#63b8ff" points="388.5,-110.8 392,-120.8 395.5,-110.8 388.5,-110.8"/>
</a>
</g>
</g>
<!-- Node5 -->
<g id="Node000005" class="node">
<title>Node5</title>
<g id="a_Node000005"><a xlink:href="app_8h.html" target="_top" xlink:title=" ">
<polygon fill="white" stroke="#666666" points="153,-79.5 29,-79.5 29,-60.5 153,-60.5 153,-79.5"/>
<text text-anchor="middle" x="91" y="-67.5" font-family="Helvetica,sans-Serif" font-size="10.00">lobby/include/ui/app.h</text>
</a>
</g>
</g>
<!-- Node1&#45;&gt;Node5 -->
<g id="edge4_Node000001_Node000005" class="edge">
<title>Node1&#45;&gt;Node5</title>
<g id="a_edge4_Node000001_Node000005"><a xlink:title=" ">
<path fill="none" stroke="#63b8ff" d="M328.83,-121.57C269.22,-108.89 181.66,-90.28 131.09,-79.52"/>
<polygon fill="#63b8ff" stroke="#63b8ff" points="328.37,-125.05 338.88,-123.71 329.83,-118.2 328.37,-125.05"/>
</a>
</g>
</g>
<!-- Node7 -->
<g id="Node000007" class="node">
<title>Node7</title>
<g id="a_Node000007"><a xlink:href="lobby_2include_2ui_2game_8h.html" target="_top" xlink:title=" ">
<polygon fill="white" stroke="#666666" points="305,-79.5 171,-79.5 171,-60.5 305,-60.5 305,-79.5"/>
<text text-anchor="middle" x="238" y="-67.5" font-family="Helvetica,sans-Serif" font-size="10.00">lobby/include/ui/game.h</text>
</a>
</g>
</g>
<!-- Node1&#45;&gt;Node7 -->
<g id="edge7_Node000001_Node000007" class="edge">
<title>Node1&#45;&gt;Node7</title>
<g id="a_edge7_Node000001_Node000007"><a xlink:title=" ">
<path fill="none" stroke="#63b8ff" d="M348.93,-117.1C319.37,-104.82 281.47,-89.06 258.49,-79.52"/>
<polygon fill="#63b8ff" stroke="#63b8ff" points="347.63,-120.35 358.2,-120.95 350.31,-113.89 347.63,-120.35"/>
</a>
</g>
</g>
<!-- Node9 -->
<g id="Node000009" class="node">
<title>Node9</title>
<g id="a_Node000009"><a xlink:href="suika_2include_2core_2game_8h.html" target="_top" xlink:title=" ">
<polygon fill="white" stroke="#666666" points="583,-85 479,-85 479,-55 583,-55 583,-85"/>
<text text-anchor="start" x="487" y="-73" font-family="Helvetica,sans-Serif" font-size="10.00">suika/include/core</text>
<text text-anchor="middle" x="531" y="-62" font-family="Helvetica,sans-Serif" font-size="10.00">/game.h</text>
</a>
</g>
</g>
<!-- Node1&#45;&gt;Node9 -->
<g id="edge10_Node000001_Node000009" class="edge">
<title>Node1&#45;&gt;Node9</title>
<g id="a_edge10_Node000001_Node000009"><a xlink:title=" ">
<path fill="none" stroke="#63b8ff" d="M431.86,-116.65C453.72,-106.58 480.39,-94.3 500.57,-85.01"/>
<polygon fill="#63b8ff" stroke="#63b8ff" points="430.12,-113.59 422.5,-120.95 433.05,-119.95 430.12,-113.59"/>
</a>
</g>
</g>
<!-- Node10 -->
<g id="Node000010" class="node">
<title>Node10</title>
<g id="a_Node000010"><a xlink:href="suika_2include_2utils_2globals_8h.html" target="_top" xlink:title=" ">
<polygon fill="white" stroke="#666666" points="705,-85 601,-85 601,-55 705,-55 705,-85"/>
<text text-anchor="start" x="609" y="-73" font-family="Helvetica,sans-Serif" font-size="10.00">suika/include/utils</text>
<text text-anchor="middle" x="653" y="-62" font-family="Helvetica,sans-Serif" font-size="10.00">/globals.h</text>
</a>
</g>
</g>
<!-- Node1&#45;&gt;Node10 -->
<g id="edge11_Node000001_Node000010" class="edge">
<title>Node1&#45;&gt;Node10</title>
<g id="a_edge11_Node000001_Node000010"><a xlink:title=" ">
<path fill="none" stroke="#63b8ff" d="M455,-119.55C499.64,-108.6 558.83,-94.09 600.83,-83.79"/>
<polygon fill="#63b8ff" stroke="#63b8ff" points="454.01,-116.19 445.13,-121.97 455.68,-122.99 454.01,-116.19"/>
</a>
</g>
</g>
<!-- Node3 -->
<g id="Node000003" class="node">
<title>Node3</title>
<g id="a_Node000003"><a xlink:href="lobbyAPI_8c.html" target="_top" xlink:title="Lobby / hub scene &#45; entry point and central navigation area.">
<polygon fill="white" stroke="#666666" points="235.5,-19 120.5,-19 120.5,0 235.5,0 235.5,-19"/>
<text text-anchor="middle" x="178" y="-7" font-family="Helvetica,sans-Serif" font-size="10.00">lobby/src/lobbyAPI.c</text>
</a>
</g>
</g>
<!-- Node2&#45;&gt;Node3 -->
<g id="edge2_Node000002_Node000003" class="edge">
<title>Node2&#45;&gt;Node3</title>
<g id="a_edge2_Node000002_Node000003"><a xlink:title=" ">
<path fill="none" stroke="#63b8ff" d="M351.12,-57.82C309.73,-46.51 246.65,-29.27 209.15,-19.02"/>
<polygon fill="#63b8ff" stroke="#63b8ff" points="350.31,-61.23 360.88,-60.49 352.16,-54.48 350.31,-61.23"/>
</a>
</g>
</g>
<!-- Node4 -->
<g id="Node000004" class="node">
<title>Node4</title>
<g id="a_Node000004"><a xlink:href="lobby_2src_2main_8c.html" target="_top" xlink:title="Program entry point – lobby main loop and game scene manager.">
<polygon fill="white" stroke="#666666" points="481.5,-19 384.5,-19 384.5,0 481.5,0 481.5,-19"/>
<text text-anchor="middle" x="433" y="-7" font-family="Helvetica,sans-Serif" font-size="10.00">lobby/src/main.c</text>
</a>
</g>
</g>
<!-- Node2&#45;&gt;Node4 -->
<g id="edge3_Node000002_Node000004" class="edge">
<title>Node2&#45;&gt;Node4</title>
<g id="a_edge3_Node000002_Node000004"><a xlink:title=" ">
<path fill="none" stroke="#63b8ff" d="M403.82,-52.13C411.38,-41.35 420.86,-27.82 426.93,-19.17"/>
<polygon fill="#63b8ff" stroke="#63b8ff" points="400.92,-50.17 398.05,-60.37 406.66,-54.19 400.92,-50.17"/>
</a>
</g>
</g>
<!-- Node5&#45;&gt;Node3 -->
<g id="edge5_Node000005_Node000003" class="edge">
<title>Node5&#45;&gt;Node3</title>
<g id="a_edge5_Node000005_Node000003"><a xlink:title=" ">
<path fill="none" stroke="#63b8ff" d="M112.33,-54.66C128.86,-43.55 151.21,-28.51 165.11,-19.17"/>
<polygon fill="#63b8ff" stroke="#63b8ff" points="110.18,-51.88 103.84,-60.37 114.09,-57.69 110.18,-51.88"/>
</a>
</g>
</g>
<!-- Node6 -->
<g id="Node000006" class="node">
<title>Node6</title>
<g id="a_Node000006"><a xlink:href="app_8c.html" target="_top" xlink:title=" ">
<polygon fill="white" stroke="#666666" points="102,-19 0,-19 0,0 102,0 102,-19"/>
<text text-anchor="middle" x="51" y="-7" font-family="Helvetica,sans-Serif" font-size="10.00">lobby/src/ui/app.c</text>
</a>
</g>
</g>
<!-- Node5&#45;&gt;Node6 -->
<g id="edge6_Node000005_Node000006" class="edge">
<title>Node5&#45;&gt;Node6</title>
<g id="a_edge6_Node000005_Node000006"><a xlink:title=" ">
<path fill="none" stroke="#63b8ff" d="M79.24,-51.8C71.91,-41.08 62.78,-27.73 56.93,-19.17"/>
<polygon fill="#63b8ff" stroke="#63b8ff" points="76.56,-54.09 85.1,-60.37 82.34,-50.14 76.56,-54.09"/>
</a>
</g>
</g>
<!-- Node7&#45;&gt;Node3 -->
<g id="edge8_Node000007_Node000003" class="edge">
<title>Node7&#45;&gt;Node3</title>
<g id="a_edge8_Node000007_Node000003"><a xlink:title=" ">
<path fill="none" stroke="#63b8ff" d="M221.68,-53.09C210.48,-42.17 196.03,-28.08 186.89,-19.17"/>
<polygon fill="#63b8ff" stroke="#63b8ff" points="219.54,-55.89 229.15,-60.37 224.43,-50.88 219.54,-55.89"/>
</a>
</g>
</g>
<!-- Node8 -->
<g id="Node000008" class="node">
<title>Node8</title>
<g id="a_Node000008"><a xlink:href="lobby_2src_2ui_2game_8c.html" target="_top" xlink:title="Low&#45;level drawing routines for lobby gameplay elements.">
<polygon fill="white" stroke="#666666" points="366,-19 254,-19 254,0 366,0 366,-19"/>
<text text-anchor="middle" x="310" y="-7" font-family="Helvetica,sans-Serif" font-size="10.00">lobby/src/ui/game.c</text>
</a>
</g>
</g>
<!-- Node7&#45;&gt;Node8 -->
<g id="edge9_Node000007_Node000008" class="edge">
<title>Node7&#45;&gt;Node8</title>
<g id="a_edge9_Node000007_Node000008"><a xlink:title=" ">
<path fill="none" stroke="#63b8ff" d="M256.42,-54.04C270.01,-42.99 288.04,-28.34 299.33,-19.17"/>
<polygon fill="#63b8ff" stroke="#63b8ff" points="254.18,-51.35 248.62,-60.37 258.59,-56.78 254.18,-51.35"/>
</a>
</g>
</g>
</g>
</svg>
