<?xml version="1.0" encoding="UTF-8" standalone="no"?>
<!DOCTYPE svg PUBLIC "-//W3C//DTD SVG 1.1//EN"
 "http://www.w3.org/Graphics/SVG/1.1/DTD/svg11.dtd">
<!-- Generated by graphviz version 2.43.0 (0)
 -->
<!-- Title: getTextureRec Pages: 1 -->
<svg width="452pt" height="101pt"
 viewBox="0.00 0.00 452.00 101.00" xmlns="http://www.w3.org/2000/svg" xmlns:xlink="http://www.w3.org/1999/xlink">

<svg id="main" version="1.1" xmlns="http://www.w3.org/2000/svg" xmlns:xlink="http://www.w3.org/1999/xlink" xml:space="preserve" onload="init(evt)">
<style type="text/css"><![CDATA[
.node, .edge {opacity: 0.7;}
.node.selected, .edge.selected {opacity: 1;}
.edge:hover path { stroke: red; }
.edge:hover polygon { stroke: red; fill: red; }
]]></style>
<script type="application/ecmascript" xlink:href="svg.min.js"/>
<svg id="graph" class="graph">
<g id="graph0" class="graph" transform="scale(1 1) rotate(0) translate(4 97)">
<title>getTextureRec</title>
<!-- Node1 -->
<g id="Node000001" class="node">
<title>Node1</title>
<g id="a_Node000001"><a xlink:title="Returns the full source rectangle of a texture ({0, 0, w, h}).">
<polygon fill="#999999" stroke="#666666" points="444,-56 358,-56 358,-37 444,-37 444,-56"/>
<text text-anchor="middle" x="401" y="-44" font-family="Helvetica,sans-Serif" font-size="10.00">getTextureRec</text>
</a>
</g>
</g>
<!-- Node2 -->
<g id="Node000002" class="node">
<title>Node2</title>
<g id="a_Node000002"><a xlink:href="app_8c.html#a0e9e4b5753ec221d6f00645e3471326c" target="_top" xlink:title="Draws the skin selection menu overlay when open.">
<polygon fill="white" stroke="#666666" points="322,-93 213,-93 213,-74 322,-74 322,-93"/>
<text text-anchor="middle" x="267.5" y="-81" font-family="Helvetica,sans-Serif" font-size="10.00">drawMenuTextures</text>
</a>
</g>
</g>
<!-- Node1&#45;&gt;Node2 -->
<g id="edge1_Node000001_Node000002" class="edge">
<title>Node1&#45;&gt;Node2</title>
<g id="a_edge1_Node000001_Node000002"><a xlink:title=" ">
<path fill="none" stroke="#63b8ff" d="M356.19,-58.83C338.78,-63.73 319.04,-69.28 302.71,-73.88"/>
<polygon fill="#63b8ff" stroke="#63b8ff" points="357.46,-62.11 366.14,-56.03 355.56,-55.37 357.46,-62.11"/>
</a>
</g>
</g>
<!-- Node5 -->
<g id="Node000005" class="node">
<title>Node5</title>
<g id="a_Node000005"><a xlink:href="lobby_2src_2ui_2game_8c.html#a249058c026ab0f8f5ee8f533a1bdee15" target="_top" xlink:title="Draws the player character in the lobby.">
<polygon fill="white" stroke="#666666" points="303,-56 232,-56 232,-37 303,-37 303,-56"/>
<text text-anchor="middle" x="267.5" y="-44" font-family="Helvetica,sans-Serif" font-size="10.00">drawPlayer</text>
</a>
</g>
</g>
<!-- Node1&#45;&gt;Node5 -->
<g id="edge4_Node000001_Node000005" class="edge">
<title>Node1&#45;&gt;Node5</title>
<g id="a_edge4_Node000001_Node000005"><a xlink:title=" ">
<path fill="none" stroke="#63b8ff" d="M347.56,-46.5C332.67,-46.5 316.84,-46.5 303.28,-46.5"/>
<polygon fill="#63b8ff" stroke="#63b8ff" points="347.67,-50 357.67,-46.5 347.67,-43 347.67,-50"/>
</a>
</g>
</g>
<!-- Node6 -->
<g id="Node000006" class="node">
<title>Node6</title>
<g id="a_Node000006"><a xlink:href="app_8c.html#aa2b7b70d122b50fbf2af1328e0f6eb1a" target="_top" xlink:title="Draws the skin&#45;menu toggle button (usually an icon in a corner).">
<polygon fill="white" stroke="#666666" points="314.5,-19 220.5,-19 220.5,0 314.5,0 314.5,-19"/>
<text text-anchor="middle" x="267.5" y="-7" font-family="Helvetica,sans-Serif" font-size="10.00">drawSkinButton</text>
</a>
</g>
</g>
<!-- Node1&#45;&gt;Node6 -->
<g id="edge6_Node000001_Node000006" class="edge">
<title>Node1&#45;&gt;Node6</title>
<g id="a_edge6_Node000001_Node000006"><a xlink:title=" ">
<path fill="none" stroke="#63b8ff" d="M356.19,-34.17C338.78,-29.27 319.04,-23.72 302.71,-19.12"/>
<polygon fill="#63b8ff" stroke="#63b8ff" points="355.56,-37.63 366.14,-36.97 357.46,-30.89 355.56,-37.63"/>
</a>
</g>
</g>
<!-- Node3 -->
<g id="Node000003" class="node">
<title>Node3</title>
<g id="a_Node000003"><a xlink:href="lobbyAPI_8c.html#aea557c0037d29d29b3a14ee7e981c572" target="_top" xlink:title="Executes one frame of the game (input &#45;&gt; update &#45;&gt; render).">
<polygon fill="white" stroke="#666666" points="177,-56 77,-56 77,-37 177,-37 177,-56"/>
<text text-anchor="middle" x="127" y="-44" font-family="Helvetica,sans-Serif" font-size="10.00">lobby_gameLoop</text>
</a>
</g>
</g>
<!-- Node2&#45;&gt;Node3 -->
<g id="edge2_Node000002_Node000003" class="edge">
<title>Node2&#45;&gt;Node3</title>
<g id="a_edge2_Node000002_Node000003"><a xlink:title=" ">
<path fill="none" stroke="#63b8ff" d="M221.13,-71.38C202.6,-66.43 181.47,-60.78 164.03,-56.12"/>
<polygon fill="#63b8ff" stroke="#63b8ff" points="220.27,-74.77 230.83,-73.97 222.07,-68.01 220.27,-74.77"/>
</a>
</g>
</g>
<!-- Node4 -->
<g id="Node000004" class="node">
<title>Node4</title>
<g id="a_Node000004"><a xlink:href="lobby_2src_2main_8c.html#a829bd6402048eb2a52282fa941b2c45d" target="_top" xlink:title="Program entry point.">
<polygon fill="white" stroke="#666666" points="41,-56 0,-56 0,-37 41,-37 41,-56"/>
<text text-anchor="middle" x="20.5" y="-44" font-family="Helvetica,sans-Serif" font-size="10.00">main</text>
</a>
</g>
</g>
<!-- Node3&#45;&gt;Node4 -->
<g id="edge3_Node000003_Node000004" class="edge">
<title>Node3&#45;&gt;Node4</title>
<g id="a_edge3_Node000003_Node000004"><a xlink:title=" ">
<path fill="none" stroke="#63b8ff" d="M66.77,-46.5C57.58,-46.5 48.68,-46.5 41.24,-46.5"/>
<polygon fill="#63b8ff" stroke="#63b8ff" points="66.81,-50 76.81,-46.5 66.81,-43 66.81,-50"/>
</a>
</g>
</g>
<!-- Node5&#45;&gt;Node3 -->
<g id="edge5_Node000005_Node000003" class="edge">
<title>Node5&#45;&gt;Node3</title>
<g id="a_edge5_Node000005_Node000003"><a xlink:title=" ">
<path fill="none" stroke="#63b8ff" d="M221.82,-46.5C207.53,-46.5 191.62,-46.5 177.03,-46.5"/>
<polygon fill="#63b8ff" stroke="#63b8ff" points="221.91,-50 231.91,-46.5 221.91,-43 221.91,-50"/>
</a>
</g>
</g>
<!-- Node6&#45;&gt;Node3 -->
<g id="edge7_Node000006_Node000003" class="edge">
<title>Node6&#45;&gt;Node3</title>
<g id="a_edge7_Node000006_Node000003"><a xlink:title=" ">
<path fill="none" stroke="#63b8ff" d="M221.13,-21.62C202.6,-26.57 181.47,-32.22 164.03,-36.88"/>
<polygon fill="#63b8ff" stroke="#63b8ff" points="222.07,-24.99 230.83,-19.03 220.27,-18.23 222.07,-24.99"/>
</a>
</g>
</g>
</g>
</svg>
</svg>

<style type='text/css'>
<![CDATA[
[data-mouse-over-selected='false'] { opacity: 0.7; }
[data-mouse-over-selected='true']  { opacity: 1.0; }
]]>
</style>
<script type="application/ecmascript"><![CDATA[
document.addEventListener('DOMContentLoaded', (event) => {
  highlightEdges();
  highlightAdjacentNodes();
});
]]></script>
</svg>
